<svg xmlns="http://www.w3.org/2000/svg" viewBox="0 0 500 500"><g id="freepik--background-complete--inject-59"><path d="M196.28,93.53a26.18,26.18,0,0,0-15.91-2.39c2.68,4.42,7.49,9.69,12.2,11.82a25.93,25.93,0,0,0,15.15,1.86A26.11,26.11,0,0,0,196.28,93.53Z" style="fill:#ebebeb"></path><path d="M187.74,94.45a5.18,5.18,0,0,1,.85.24c.54.16,1.32.43,2.27.79a63.34,63.34,0,0,1,7.22,3.27,61.79,61.79,0,0,1,6.75,4.15c.83.58,1.49,1.07,1.93,1.43a3.71,3.71,0,0,1,.67.57,7.52,7.52,0,0,1-.74-.48c-.46-.33-1.13-.79-2-1.35-1.68-1.13-4.05-2.61-6.77-4.06s-5.28-2.57-7.16-3.33c-.94-.39-1.7-.68-2.23-.89A5.09,5.09,0,0,1,187.74,94.45Z" style="fill:#e0e0e0"></path><path d="M200.38,115.16a22.85,22.85,0,0,0-13.95,1.67c3.28,3.1,8.55,6.43,13,7.13a22.65,22.65,0,0,0,13.2-1.93A22.9,22.9,0,0,0,200.38,115.16Z" style="fill:#ebebeb"></path><path d="M193.41,117.91a6.42,6.42,0,0,1,.77,0c.49,0,1.21.06,2.09.14a55.07,55.07,0,0,1,6.84,1.09,54.16,54.16,0,0,1,6.65,1.93c.83.3,1.5.56,2,.76a4.12,4.12,0,0,1,.7.33,5.34,5.34,0,0,1-.74-.24l-2-.68c-1.68-.56-4-1.26-6.65-1.85a68.83,68.83,0,0,0-6.8-1.16c-.88-.1-1.59-.18-2.08-.22A3.59,3.59,0,0,1,193.41,117.91Z" style="fill:#e0e0e0"></path><path d="M212.52,103.07A23,23,0,0,1,222,92.72c.61,4.47.23,10.7-1.8,14.73a22.68,22.68,0,0,1-9.28,9.58A22.79,22.79,0,0,1,212.52,103.07Z" style="fill:#ebebeb"></path><path d="M218.83,99a6.28,6.28,0,0,0-.45.63c-.27.41-.65,1-1.1,1.78a56.61,56.61,0,0,0-3.12,6.19,55.28,55.28,0,0,0-2.31,6.53c-.25.85-.42,1.54-.53,2a3.64,3.64,0,0,0-.14.76,6.37,6.37,0,0,0,.24-.74c.13-.47.34-1.16.6-2a67.09,67.09,0,0,1,2.38-6.48,68.5,68.5,0,0,1,3-6.2c.42-.77.78-1.39,1-1.82A3.6,3.6,0,0,0,218.83,99Z" style="fill:#e0e0e0"></path><path d="M210.32,83.12a22.41,22.41,0,0,1,11.6-7.36c-.57,4.38-2.5,10.16-5.44,13.44a22.13,22.13,0,0,1-11.19,6.69A22.35,22.35,0,0,1,210.32,83.12Z" style="fill:#ebebeb"></path><path d="M217.31,80.89a4.7,4.7,0,0,0-.58.48c-.37.32-.88.8-1.5,1.4a55.16,55.16,0,0,0-4.51,5,56.25,56.25,0,0,0-3.84,5.57c-.44.75-.78,1.36-1,1.79a6.27,6.27,0,0,0-.33.68,4.17,4.17,0,0,0,.42-.63c.25-.42.61-1,1.08-1.74C208,92,209.3,90.05,210.92,88s3.24-3.84,4.44-5.08l1.43-1.46A4.21,4.21,0,0,0,217.31,80.89Z" style="fill:#e0e0e0"></path><path d="M231.75,157.64l-.11-.19-.36-.54-1.38-2-1-1.46-1.15-1.77c-.81-1.28-1.78-2.71-2.73-4.36l-1.54-2.57c-.52-.89-1-1.85-1.58-2.83-1.11-1.94-2.16-4.09-3.31-6.34a160.38,160.38,0,0,1-6.4-15.07,150.64,150.64,0,0,1-4.63-15.72c-.52-2.46-1.06-4.79-1.4-7-.18-1.1-.39-2.17-.53-3.2s-.26-2-.38-3c-.28-1.89-.39-3.61-.52-5.12-.07-.75-.12-1.45-.18-2.1s0-1.24-.07-1.77q-.08-1.58-.12-2.46l0-.63c0-.15,0-.22,0-.22a.72.72,0,0,0,0,.22v.64c0,.58,0,1.4.05,2.45,0,.54,0,1.13,0,1.78s.1,1.35.15,2.11c.12,1.51.21,3.23.47,5.13.11.94.23,1.94.36,3s.33,2.1.51,3.21c.32,2.22.86,4.56,1.37,7a149.17,149.17,0,0,0,4.61,15.76,154.66,154.66,0,0,0,6.45,15.1c1.15,2.24,2.22,4.39,3.35,6.33.55,1,1.06,1.94,1.6,2.83s1.06,1.74,1.55,2.56c1,1.65,2,3.07,2.79,4.34.41.63.81,1.21,1.17,1.75l1,1.45,1.45,2,.38.51A1.56,1.56,0,0,0,231.75,157.64Z" style="fill:#e0e0e0"></path><path d="M161.56,93.76a13.65,13.65,0,0,0,13.94-2c.76-.63,1.5-1.57,1.2-2.5S175.1,88,174.06,88a16.1,16.1,0,0,0-11.72,5.14,18.45,18.45,0,0,0,5.74-9c.36-1.33.46-3-.68-3.8s-2.6-.15-3.65.67a10.82,10.82,0,0,0-3.16,12.45,10.18,10.18,0,0,0-8.81-7.57c-1.58-.14-3.57.46-3.81,2a3.34,3.34,0,0,0,1.09,2.59,13,13,0,0,0,10,4.28,11.39,11.39,0,0,0-11,5.9c-.65,1.25-1,2.86-.23,4,1,1.47,3.25,1.32,4.93.7a14.93,14.93,0,0,0,8.92-9.31,8.46,8.46,0,0,0,1.85,7.67c1.2,1.34,3.42,2.23,4.74,1s.7-3.28-.14-4.79a21.06,21.06,0,0,0-6.19-6.92" style="fill:#ebebeb"></path><path d="M171.06,91.48a44.26,44.26,0,0,0-5.33.86,45.54,45.54,0,0,0-5,2,11.78,11.78,0,0,1,4.91-2.42A11.61,11.61,0,0,1,171.06,91.48Z" style="fill:#e0e0e0"></path><path d="M165.22,86.17a22,22,0,0,0-2.43,3.64c-1,2.2-1.3,4.2-1.45,4.17a9.2,9.2,0,0,1,1-4.37A7.19,7.19,0,0,1,165.22,86.17Z" style="fill:#e0e0e0"></path><path d="M153.91,90.32a7.9,7.9,0,0,1,4.21.87A6.6,6.6,0,0,1,161.4,94a19.51,19.51,0,0,0-3.48-2.33C155.81,90.65,153.88,90.48,153.91,90.32Z" style="fill:#e0e0e0"></path><path d="M159.39,94.56a1.7,1.7,0,0,1,.35-1.81,1.73,1.73,0,0,1,1.81-.38,4.63,4.63,0,0,0-.27,1.52,6.73,6.73,0,0,0-1.89.67" style="fill:#fafafa"></path><path d="M151.69,102.28a5.61,5.61,0,0,1,.94-1.69,16.94,16.94,0,0,1,3.18-3.42,17.35,17.35,0,0,1,4-2.43,5.76,5.76,0,0,1,1.85-.58,32.89,32.89,0,0,0-5.54,3.38A32.43,32.43,0,0,0,151.69,102.28Z" style="fill:#e0e0e0"></path><path d="M201.6,67.43a16.08,16.08,0,0,0,16.5,1.47c1-.51,2.13-1.39,2-2.54s-1.49-1.87-2.68-2.15A18.86,18.86,0,0,0,202.66,67a21.58,21.58,0,0,0,9-8.8c.78-1.42,1.34-3.33.25-4.53s-2.94-.87-4.36-.21a12.72,12.72,0,0,0-6.95,13.41,12,12,0,0,0-8.06-11c-1.77-.58-4.21-.43-4.9,1.31a3.9,3.9,0,0,0,.55,3.25,15.24,15.24,0,0,0,10.26,7.57,13.39,13.39,0,0,0-14.2,3.8c-1.08,1.26-1.95,3-1.34,4.55.77,2,3.36,2.38,5.45,2.13A17.53,17.53,0,0,0,201,70.12a10,10,0,0,0,.07,9.28c1,1.86,3.31,3.47,5.16,2.42s1.68-3.56,1.12-5.51a24.81,24.81,0,0,0-5.23-9.58" style="fill:#ebebeb"></path><path d="M213.1,67.36a53.37,53.37,0,0,0-6.34-.44,50.38,50.38,0,0,0-6.28.9,16.81,16.81,0,0,1,12.62-.46Z" style="fill:#e0e0e0"></path><path d="M207.83,59.72a25,25,0,0,0-3.76,3.52c-1.75,2.25-2.61,4.46-2.78,4.38a10.94,10.94,0,0,1,2.34-4.73A8.44,8.44,0,0,1,207.83,59.72Z" style="fill:#e0e0e0"></path><path d="M193.76,61.45a9.25,9.25,0,0,1,4.59,2.12c2.3,1.75,3.17,4,3,4.05A22.1,22.1,0,0,0,198,64C195.86,62.33,193.7,61.62,193.76,61.45Z" style="fill:#e0e0e0"></path><path d="M198.9,67.77A2,2,0,0,1,202,65.84a5.33,5.33,0,0,0-.72,1.66,7.89,7.89,0,0,0-2.35.27" style="fill:#fafafa"></path><path d="M188,74.54a6.57,6.57,0,0,1,1.53-1.68,20.3,20.3,0,0,1,9.79-4.78,7,7,0,0,1,2.27-.17c0,.18-3.45.52-7.25,2.39S188.14,74.68,188,74.54Z" style="fill:#e0e0e0"></path><path d="M77.54,274.81A26.12,26.12,0,0,0,77,290.88c4.08-3.16,8.77-8.54,10.34-13.46a26,26,0,0,0,.12-15.27A26.15,26.15,0,0,0,77.54,274.81Z" style="fill:#ebebeb"></path><path d="M79.43,283.19a4.74,4.74,0,0,1,.14-.87c.1-.56.28-1.36.53-2.35a62.52,62.52,0,0,1,2.42-7.54,64.17,64.17,0,0,1,3.35-7.19c.49-.89.9-1.6,1.2-2.08a4.89,4.89,0,0,1,.49-.73,4.61,4.61,0,0,1-.39.79c-.27.5-.65,1.22-1.12,2.12-.92,1.8-2.13,4.32-3.25,7.19a77.67,77.67,0,0,0-2.5,7.5c-.27,1-.48,1.76-.62,2.31A5.07,5.07,0,0,1,79.43,283.19Z" style="fill:#e0e0e0"></path><path d="M98.56,268.26a22.85,22.85,0,0,0,3.25,13.67c2.71-3.61,5.42-9.23,5.61-13.74A22.71,22.71,0,0,0,104,255.3,22.9,22.9,0,0,0,98.56,268.26Z" style="fill:#ebebeb"></path><path d="M102.09,274.88a7,7,0,0,1-.08-.76c0-.5-.08-1.22-.1-2.1a55.49,55.49,0,0,1,1.46-13.75c.21-.86.39-1.55.53-2a5.27,5.27,0,0,1,.25-.73,4.67,4.67,0,0,1-.15.76c-.11.48-.27,1.18-.45,2-.37,1.73-.79,4.14-1.08,6.82a68.11,68.11,0,0,0-.37,6.89c0,.88,0,1.6,0,2.09A3.53,3.53,0,0,1,102.09,274.88Z" style="fill:#e0e0e0"></path><path d="M85.16,257.59a22.82,22.82,0,0,1-11.36-8.27c4.37-1.11,10.6-1.44,14.84.12a22.72,22.72,0,0,1,10.58,8.12A22.89,22.89,0,0,1,85.16,257.59Z" style="fill:#ebebeb"></path><path d="M80.41,251.78a4.52,4.52,0,0,0,.68.37c.44.23,1.09.54,1.9.9a54.56,54.56,0,0,0,6.5,2.38A53.2,53.2,0,0,0,96.24,257c.87.15,1.58.24,2.08.29a3.6,3.6,0,0,0,.76.06,4.15,4.15,0,0,0-.75-.16c-.49-.08-1.19-.2-2.06-.37a66.11,66.11,0,0,1-6.71-1.62c-2.58-.77-4.87-1.64-6.5-2.31l-1.93-.82A3.39,3.39,0,0,0,80.41,251.78Z" style="fill:#e0e0e0"></path><path d="M65.6,262A22.3,22.3,0,0,1,57,251.37c4.41.06,10.38,1.32,14,3.87a22.09,22.09,0,0,1,7.92,10.34A22.22,22.22,0,0,1,65.6,262Z" style="fill:#ebebeb"></path><path d="M62.59,255.36a3.55,3.55,0,0,0,.54.52c.36.33.89.78,1.56,1.33a55.29,55.29,0,0,0,5.53,3.9,53.88,53.88,0,0,0,6,3.18c.79.36,1.43.63,1.88.8a5.4,5.4,0,0,0,.71.25,3.36,3.36,0,0,0-.67-.34l-1.85-.87c-1.55-.75-3.67-1.85-5.92-3.23s-4.18-2.78-5.55-3.83l-1.61-1.26A5.54,5.54,0,0,0,62.59,255.36Z" style="fill:#e0e0e0"></path><path d="M137.18,232.26l-.17.13-.49.41-1.86,1.61-1.33,1.17-1.63,1.34c-1.18,1-2.49,2.07-4,3.21L125.31,242c-.83.62-1.73,1.24-2.64,1.89-1.8,1.33-3.82,2.62-5.91,4-4.26,2.69-9.05,5.48-14.25,8.08a151.09,151.09,0,0,1-15.08,6.39c-2.39.79-4.65,1.6-6.81,2.19-1.08.31-2.11.63-3.12.9l-2.9.71c-1.84.49-3.54.79-5,1.1l-2.07.42-1.75.27-2.43.4-.63.11a.53.53,0,0,0-.21.05l.22,0,.63-.07,2.44-.33,1.76-.25,2.07-.38c1.49-.29,3.2-.58,5-1.05l2.91-.7c1-.26,2.05-.58,3.13-.88,2.17-.57,4.43-1.37,6.83-2.16a146.33,146.33,0,0,0,15.14-6.39,154.86,154.86,0,0,0,14.26-8.12c2.1-1.4,4.11-2.71,5.91-4,.91-.66,1.8-1.28,2.63-1.91s1.61-1.26,2.37-1.84c1.52-1.15,2.82-2.29,4-3.26l1.61-1.36,1.31-1.2,1.82-1.66.46-.44Z" style="fill:#e0e0e0"></path><path d="M97.77,365.27a13.67,13.67,0,0,0-12.22-7c-1,0-2.15.32-2.48,1.25s.49,2,1.31,2.62a16,16,0,0,0,12.41,3.12,18.42,18.42,0,0,0-10.07,3.61c-1.11.83-2.22,2.11-1.8,3.42s2,1.72,3.29,1.71a10.83,10.83,0,0,0,10.14-7.9,10.2,10.2,0,0,0,2.31,11.39c1.17,1.07,3.1,1.82,4.26.73a3.37,3.37,0,0,0,.73-2.71,13,13,0,0,0-5.25-9.5,11.37,11.37,0,0,0,12.32,2.11c1.29-.59,2.58-1.63,2.66-3,.09-1.79-1.76-3-3.46-3.58a14.94,14.94,0,0,0-12.76,1.88,8.46,8.46,0,0,0,3.24-7.19c-.13-1.8-1.33-3.86-3.12-3.7s-2.57,2.15-2.83,3.86a21,21,0,0,0,.65,9.26" style="fill:#ebebeb"></path><path d="M88.86,361.24a43.38,43.38,0,0,0,4.74,2.59,45.42,45.42,0,0,0,5.18,1.54,11.92,11.92,0,0,1-5.36-1.1A11.76,11.76,0,0,1,88.86,361.24Z" style="fill:#e0e0e0"></path><path d="M90.22,369a21.39,21.39,0,0,0,4.16-1.39c2.15-1.12,3.6-2.52,3.7-2.4a9.34,9.34,0,0,1-3.48,2.83A7.29,7.29,0,0,1,90.22,369Z" style="fill:#e0e0e0"></path><path d="M101.71,372.68a8,8,0,0,1-2.8-3.27,6.55,6.55,0,0,1-.89-4.2,19.13,19.13,0,0,0,1.32,4A39,39,0,0,0,101.71,372.68Z" style="fill:#e0e0e0"></path><path d="M100,366a1.67,1.67,0,0,1-3,.4,4.86,4.86,0,0,0,1.14-1A6.91,6.91,0,0,0,100,366" style="fill:#fafafa"></path><path d="M110.8,364.59a5.82,5.82,0,0,1-1.78.76,17,17,0,0,1-4.62.74,16.75,16.75,0,0,1-4.65-.52,5.75,5.75,0,0,1-1.81-.68,33.43,33.43,0,0,0,6.45.73A33.91,33.91,0,0,0,110.8,364.59Z" style="fill:#e0e0e0"></path><path d="M51,272.5A16.09,16.09,0,0,0,50.59,256c-.64-1-1.63-2-2.76-1.74s-1.69,1.7-1.84,2.92a18.92,18.92,0,0,0,4.42,14.38,21.63,21.63,0,0,0-9.77-7.93c-1.5-.61-3.46-.94-4.53.27s-.53,3,.29,4.36a12.72,12.72,0,0,0,14.11,5.38,12,12,0,0,0-10,9.26c-.37,1.83.05,4.23,1.85,4.72a3.92,3.92,0,0,0,3.17-.91,15.28,15.28,0,0,0,6.36-11.07,13.38,13.38,0,0,0,5.39,13.68c1.38.93,3.2,1.6,4.67.81,1.86-1,2-3.61,1.49-5.66a17.5,17.5,0,0,0-9.67-11.67A10,10,0,0,0,63,271.62c1.73-1.22,3.07-3.69,1.82-5.4S61,265,59.16,265.73a24.92,24.92,0,0,0-8.92,6.3" style="fill:#ebebeb"></path><path d="M49.62,261.09c.18,0-.25,2.88.29,6.34a52.26,52.26,0,0,0,1.61,6.14,16.9,16.9,0,0,1-1.9-12.48Z" style="fill:#e0e0e0"></path><path d="M42.63,267.19a25.47,25.47,0,0,0,3.93,3.34c2.43,1.48,4.73,2.08,4.67,2.26a11,11,0,0,1-5-1.78A8.55,8.55,0,0,1,42.63,267.19Z" style="fill:#e0e0e0"></path><path d="M46,281a9.32,9.32,0,0,1,1.59-4.8,7.78,7.78,0,0,1,3.68-3.46,22.65,22.65,0,0,0-3.2,3.75C46.59,278.79,46.13,281,46,281Z" style="fill:#e0e0e0"></path><path d="M51.65,275.14a2,2,0,0,1-2.27-2.82,5.57,5.57,0,0,0,1.74.53,7.74,7.74,0,0,0,.53,2.29" style="fill:#fafafa"></path><path d="M59.62,285.18a6.58,6.58,0,0,1-1.85-1.33,20,20,0,0,1-3.56-4.18,20.32,20.32,0,0,1-2.3-5,6.36,6.36,0,0,1-.42-2.23,38.3,38.3,0,0,0,3.2,6.92C56.94,282.94,59.74,285,59.62,285.18Z" style="fill:#e0e0e0"></path><path d="M422.09,267.52a23.47,23.47,0,0,0,2.65-14.16c-4,2.26-8.92,6.39-11,10.54a22.49,22.49,0,0,0-2.22,13.24A23,23,0,0,0,422.09,267.52Z" style="fill:#ebebeb"></path><path d="M421.54,259.85a4.22,4.22,0,0,1-.24.75c-.17.48-.43,1.17-.78,2a56.79,56.79,0,0,1-3.16,6.35,57.63,57.63,0,0,1-3.93,5.92c-.55.72-1,1.29-1.34,1.68a4.21,4.21,0,0,1-.54.58,5.4,5.4,0,0,1,.46-.65c.3-.4.74-1,1.27-1.72,1.06-1.47,2.47-3.55,3.85-5.94s2.48-4.65,3.22-6.3c.37-.82.66-1.5.86-2A4.41,4.41,0,0,1,421.54,259.85Z" style="fill:#e0e0e0"></path><path d="M443.36,267.5A23.44,23.44,0,0,0,446,253.35c-4,2.25-8.92,6.39-11,10.53a23.22,23.22,0,0,0-2.16,13.5A23.35,23.35,0,0,0,443.36,267.5Z" style="fill:#ebebeb"></path><path d="M442.81,259.83a4.14,4.14,0,0,1-.24.76c-.17.48-.44,1.16-.79,2a56.52,56.52,0,0,1-3.15,6.36,57.34,57.34,0,0,1-3.93,5.91c-.55.72-1,1.3-1.35,1.68a2.88,2.88,0,0,1-.53.58,5.39,5.39,0,0,1,.45-.64c.31-.41.75-1,1.28-1.73,1.06-1.47,2.46-3.54,3.85-5.94a70.45,70.45,0,0,0,3.21-6.29c.37-.83.67-1.5.86-2A4.34,4.34,0,0,1,442.81,259.83Z" style="fill:#e0e0e0"></path><path d="M452.6,283.68a23.44,23.44,0,0,1,5.29,13.4c-4.39-1.45-10-4.58-12.77-8.27A23.19,23.19,0,0,1,440.44,276,23.44,23.44,0,0,1,452.6,283.68Z" style="fill:#ebebeb"></path><path d="M453.52,291.31a5.47,5.47,0,0,0-.38-.69c-.26-.44-.65-1.06-1.15-1.82a56.72,56.72,0,0,0-4.31-5.64,57.52,57.52,0,0,0-5-5.06c-.68-.6-1.24-1.08-1.64-1.39a3.49,3.49,0,0,0-.63-.47,6.09,6.09,0,0,0,.57.55c.37.33.91.83,1.57,1.45a69.49,69.49,0,0,1,4.91,5.09c1.81,2.09,3.31,4.1,4.36,5.58.52.74.93,1.34,1.21,1.77A3.89,3.89,0,0,0,453.52,291.31Z" style="fill:#e0e0e0"></path><path d="M431.78,285.23a23.43,23.43,0,0,1,5.29,13.39c-4.4-1.44-10-4.58-12.77-8.26a23.19,23.19,0,0,1-4.68-12.84A23.32,23.32,0,0,1,431.78,285.23Z" style="fill:#ebebeb"></path><path d="M432.7,292.86a4.74,4.74,0,0,0-.38-.69c-.26-.44-.65-1.06-1.15-1.82a56.87,56.87,0,0,0-9.29-10.7c-.68-.61-1.24-1.08-1.64-1.4a6.81,6.81,0,0,0-.63-.47,4.21,4.21,0,0,0,.56.55c.38.34.92.84,1.58,1.46a67.56,67.56,0,0,1,4.91,5.09C428.47,287,430,289,431,290.45c.53.74.94,1.35,1.22,1.77A4.4,4.4,0,0,0,432.7,292.86Z" style="fill:#e0e0e0"></path><path d="M397.44,273.52a4.26,4.26,0,0,0,.56.21l1.62.55,1.17.4,1.42.4c1,.27,2.17.63,3.48.9l2,.45c.71.16,1.45.27,2.22.41,1.54.3,3.21.49,4.95.72a80.4,80.4,0,0,0,22.83-.75c1.73-.33,3.38-.63,4.89-1,.76-.19,1.5-.35,2.2-.55l2-.59c1.28-.35,2.41-.78,3.41-1.12.5-.18,1-.33,1.39-.5l1.14-.46,1.58-.66a4.36,4.36,0,0,0,.55-.25,3.24,3.24,0,0,0-.57.19l-1.61.59-1.15.44-1.4.46c-1,.32-2.13.73-3.42,1.07l-2,.56c-.7.2-1.44.35-2.19.53-1.52.39-3.16.67-4.88,1a90.78,90.78,0,0,1-11.35,1.16,92,92,0,0,1-11.39-.42c-1.74-.21-3.4-.39-4.94-.68-.76-.13-1.51-.24-2.22-.38l-2-.44c-1.3-.25-2.45-.59-3.48-.84-.51-.14-1-.25-1.42-.38l-1.18-.36-1.64-.48A4.28,4.28,0,0,0,397.44,273.52Z" style="fill:#e0e0e0"></path><path d="M462.84,273.19a23.45,23.45,0,0,0,11-9.31c-4.56-.8-10.95-.67-15.16,1.25a23.18,23.18,0,0,0-10.19,9.11A23.39,23.39,0,0,0,462.84,273.19Z" style="fill:#ebebeb"></path><path d="M467.26,266.89a5.12,5.12,0,0,1-.67.44c-.43.26-1.07.63-1.87,1.05a57,57,0,0,1-6.46,2.94,57.8,57.8,0,0,1-6.78,2.11c-.88.21-1.6.36-2.1.45a4.86,4.86,0,0,1-.78.12,3.48,3.48,0,0,1,.75-.22l2.08-.53a70.11,70.11,0,0,0,6.74-2.18c2.58-1,4.85-2,6.47-2.85.81-.41,1.46-.74,1.9-1A5.12,5.12,0,0,1,467.26,266.89Z" style="fill:#e0e0e0"></path><path d="M409.62,320.06A26.16,26.16,0,0,0,425.43,323c-2.52-4.5-7.14-9.94-11.78-12.23a25.87,25.87,0,0,0-15.07-2.39A26.22,26.22,0,0,0,409.62,320.06Z" style="fill:#ebebeb"></path><path d="M418.18,319.43a5.68,5.68,0,0,1-.84-.27c-.53-.18-1.3-.48-2.24-.87a63.1,63.1,0,0,1-13.7-7.9c-.81-.61-1.45-1.13-1.88-1.5a4.54,4.54,0,0,1-.65-.59,5.41,5.41,0,0,1,.72.5c.45.35,1.11.83,1.93,1.42,1.64,1.19,4,2.75,6.63,4.3s5.19,2.75,7,3.58l2.19,1A4.87,4.87,0,0,1,418.18,319.43Z" style="fill:#e0e0e0"></path><path d="M406.27,298.29a22.85,22.85,0,0,0,14-1.18c-3.16-3.22-8.32-6.73-12.75-7.58A22.67,22.67,0,0,0,394.26,291,22.86,22.86,0,0,0,406.27,298.29Z" style="fill:#ebebeb"></path><path d="M413.34,295.78a3.73,3.73,0,0,1-.77,0c-.49,0-1.21-.1-2.08-.22a55.25,55.25,0,0,1-13.38-3.48c-.82-.33-1.48-.62-1.93-.83a4.55,4.55,0,0,1-.69-.35,4.15,4.15,0,0,1,.73.26l1.95.75a68.63,68.63,0,0,0,6.58,2.08,66,66,0,0,0,6.76,1.39c.87.14,1.58.24,2.07.3A6.51,6.51,0,0,1,413.34,295.78Z" style="fill:#e0e0e0"></path><path d="M393.72,310a22.87,22.87,0,0,1-9.86,10c-.45-4.49.15-10.7,2.32-14.65a22.71,22.71,0,0,1,9.61-9.26A22.85,22.85,0,0,1,393.72,310Z" style="fill:#ebebeb"></path><path d="M387.27,313.78a3.57,3.57,0,0,0,.47-.61c.29-.4.69-1,1.17-1.74a56.5,56.5,0,0,0,3.33-6.08,54.84,54.84,0,0,0,2.54-6.44c.27-.84.48-1.53.6-2a3.75,3.75,0,0,0,.17-.75,4,4,0,0,0-.27.72c-.15.47-.38,1.15-.67,2a66.61,66.61,0,0,1-5.86,12.48c-.45.76-.83,1.37-1.09,1.79A6.33,6.33,0,0,0,387.27,313.78Z" style="fill:#e0e0e0"></path><path d="M395.22,330a22.28,22.28,0,0,1-11.84,7c.71-4.35,2.85-10.06,5.9-13.24a22.15,22.15,0,0,1,11.41-6.3A22.32,22.32,0,0,1,395.22,330Z" style="fill:#ebebeb"></path><path d="M388.16,332a5.07,5.07,0,0,0,.6-.46c.37-.31.9-.77,1.54-1.35A54.71,54.71,0,0,0,399,319.82c.47-.73.83-1.33,1.07-1.75a4.65,4.65,0,0,0,.35-.67,3.48,3.48,0,0,0-.43.62l-1.14,1.7c-1,1.43-2.38,3.35-4.08,5.37s-3.37,3.72-4.61,4.92c-.62.6-1.13,1.08-1.49,1.41A4.12,4.12,0,0,0,388.16,332Z" style="fill:#e0e0e0"></path><path d="M376.41,254.74a1.1,1.1,0,0,0,.11.2l.33.54,1.32,2.07,1,1.5,1.08,1.81c.77,1.3,1.68,2.77,2.58,4.45l1.44,2.62c.5.91,1,1.89,1.48,2.88,1.05,2,2,4.17,3.09,6.45a160.55,160.55,0,0,1,5.87,15.3,149.86,149.86,0,0,1,4.08,15.86c.43,2.48.89,4.83,1.15,7.06.15,1.11.31,2.18.42,3.21s.19,2,.28,3c.21,1.89.26,3.62.34,5.13,0,.76.07,1.46.1,2.11s0,1.24,0,1.77q0,1.57,0,2.46c0,.26,0,.47,0,.64a.85.85,0,0,0,0,.21s0-.07,0-.21,0-.38,0-.64c0-.59,0-1.41,0-2.46,0-.54,0-1.13,0-1.78s0-1.35-.07-2.11c-.07-1.51-.1-3.24-.29-5.14-.08-.95-.17-1.95-.25-3s-.27-2.11-.41-3.22c-.24-2.23-.7-4.59-1.12-7.08A147.29,147.29,0,0,0,395,292.45a157.15,157.15,0,0,0-5.91-15.32c-1.08-2.28-2.07-4.47-3.13-6.45-.52-1-1-2-1.5-2.88L383,265.19c-.92-1.68-1.85-3.14-2.63-4.43l-1.11-1.8-1-1.48-1.37-2-.36-.52A1.28,1.28,0,0,0,376.41,254.74Z" style="fill:#e0e0e0"></path><path d="M403.39,346A16.08,16.08,0,0,0,387,343.9c-1.05.48-2.18,1.31-2.12,2.47s1.42,1.92,2.61,2.25a18.9,18.9,0,0,0,14.88-2.23,21.58,21.58,0,0,0-9.29,8.48c-.83,1.39-1.45,3.29-.41,4.53s2.91,1,4.35.36a12.73,12.73,0,0,0,7.42-13.16,12,12,0,0,0,7.66,11.3c1.76.64,4.19.57,4.95-1.13a4,4,0,0,0-.43-3.27,15.28,15.28,0,0,0-10-7.93,13.4,13.4,0,0,0,14.33-3.3c1.13-1.22,2.06-2.93,1.5-4.5-.71-2-3.28-2.5-5.38-2.32a17.52,17.52,0,0,0-13,7.83,10,10,0,0,0,.25-9.28c-1-1.89-3.18-3.58-5.06-2.6s-1.81,3.5-1.32,5.47a24.73,24.73,0,0,0,4.9,9.76" style="fill:#ebebeb"></path><path d="M391.9,345.62a52.77,52.77,0,0,0,6.31.66,52.58,52.58,0,0,0,6.31-.68,16.8,16.8,0,0,1-12.62,0Z" style="fill:#e0e0e0"></path><path d="M396.89,353.44c-.09-.16,2.06-1.18,3.89-3.39s2.75-4.37,2.92-4.28a10.84,10.84,0,0,1-2.49,4.64A8.51,8.51,0,0,1,396.89,353.44Z" style="fill:#e0e0e0"></path><path d="M411,352.2a9.21,9.21,0,0,1-4.51-2.28,7.85,7.85,0,0,1-2.88-4.15,23,23,0,0,0,3.24,3.72A43.14,43.14,0,0,0,411,352.2Z" style="fill:#e0e0e0"></path><path d="M406.1,345.71a2,2,0,0,1-3.13,1.82,5.59,5.59,0,0,0,.77-1.64,8,8,0,0,0,2.36-.18" style="fill:#fafafa"></path><path d="M417.21,339.32a6.78,6.78,0,0,1-1.59,1.63,20.15,20.15,0,0,1-9.95,4.43,7,7,0,0,1-2.27.09c0-.19,3.46-.4,7.32-2.14S417.09,339.17,417.21,339.32Z" style="fill:#e0e0e0"></path><path d="M450.8,323.54A13.69,13.69,0,0,0,438.27,330c-.5.85-.9,2-.3,2.76s1.92.67,2.91.32a16.05,16.05,0,0,0,9.38-8.7,18.41,18.41,0,0,0-2.46,10.41c.09,1.38.56,3,1.89,3.38s2.51-.72,3.23-1.84a10.83,10.83,0,0,0-1.11-12.8,10.21,10.21,0,0,0,10.81,4.26c1.54-.4,3.22-1.61,2.93-3.18a3.34,3.34,0,0,0-1.87-2.08,13,13,0,0,0-10.83-.77,11.4,11.4,0,0,0,8.48-9.19c.2-1.4,0-3.05-1.11-3.88-1.45-1.06-3.5-.19-4.89.95A14.93,14.93,0,0,0,450,321.36a8.46,8.46,0,0,0-4.27-6.64c-1.58-.87-4-1-4.81.61s.42,3.32,1.7,4.47a21.07,21.07,0,0,0,8.13,4.5" style="fill:#ebebeb"></path><path d="M442.57,328.83a44.46,44.46,0,0,0,4.75-2.57,48.08,48.08,0,0,0,4.11-3.5,14.4,14.4,0,0,1-8.86,6.07Z" style="fill:#e0e0e0"></path><path d="M449.83,331.92a21.35,21.35,0,0,0,1.1-4.24c.24-2.41-.16-4.39,0-4.42a9.28,9.28,0,0,1,.48,4.47A7.27,7.27,0,0,1,449.83,331.92Z" style="fill:#e0e0e0"></path><path d="M459.15,324.28a7.87,7.87,0,0,1-4.26.56,6.64,6.64,0,0,1-4-1.53,19.93,19.93,0,0,0,4.06,1.05A40.07,40.07,0,0,0,459.15,324.28Z" style="fill:#e0e0e0"></path><path d="M452.58,322.07a1.67,1.67,0,0,1-1.32,2.78,4.93,4.93,0,0,0-.24-1.52,6.68,6.68,0,0,0,1.56-1.26" style="fill:#fafafa"></path><path d="M457.32,312.25a5.88,5.88,0,0,1-.33,1.91,17.44,17.44,0,0,1-1.89,4.28,17.79,17.79,0,0,1-3,3.61,5.54,5.54,0,0,1-1.56,1.15,32.47,32.47,0,0,0,4.12-5A32.89,32.89,0,0,0,457.32,312.25Z" style="fill:#e0e0e0"></path><polygon points="445.2 134.14 443.45 131.41 446.41 132.78 447.42 129.55 448.16 132.66 451.43 131.45 449.48 134.14 452.36 135.89 449.05 135.89 449.4 139.24 447.3 136.71 445.16 139.24 445.63 135.97 442.36 135.81 445.2 134.14" style="fill:#e0e0e0"></polygon><polygon points="450.17 64.74 447.87 61.17 451.75 62.96 453.07 58.72 454.04 62.8 458.33 61.22 455.78 64.74 459.55 67.04 455.22 67.04 455.68 71.43 452.92 68.11 450.12 71.43 450.73 67.14 446.44 66.94 450.17 64.74" style="fill:#e0e0e0"></polygon><polygon points="44.1 156.8 41.8 153.23 45.68 155.01 47.01 150.78 47.98 154.86 52.26 153.28 49.71 156.8 53.48 159.09 49.15 159.09 49.61 163.48 46.85 160.16 44.05 163.48 44.66 159.2 40.37 158.99 44.1 156.8" style="fill:#e0e0e0"></polygon><polygon points="116.42 49.63 114.12 46.06 118 47.84 119.33 43.61 120.3 47.69 124.58 46.11 122.03 49.63 125.81 51.92 121.47 51.92 121.93 56.31 119.17 53 116.37 56.31 116.98 52.03 112.69 51.82 116.42 49.63" style="fill:#e0e0e0"></polygon><polygon points="337.36 94.5 336.03 92.43 338.27 93.46 339.04 91.01 339.61 93.38 342.09 92.46 340.61 94.5 342.8 95.83 340.29 95.83 340.55 98.37 338.95 96.45 337.33 98.37 337.68 95.89 335.2 95.77 337.36 94.5" style="fill:#e0e0e0"></polygon><polygon points="256.96 43.42 255.63 41.35 257.88 42.38 258.65 39.93 259.21 42.29 261.7 41.38 260.22 43.42 262.41 44.75 259.89 44.75 260.16 47.29 258.56 45.37 256.94 47.29 257.29 44.81 254.81 44.69 256.96 43.42" style="fill:#e0e0e0"></polygon><polygon points="384.74 28.5 383.41 26.43 385.66 27.47 386.43 25.01 386.99 27.38 389.47 26.46 388 28.5 390.18 29.84 387.67 29.84 387.94 32.38 386.34 30.46 384.71 32.38 385.07 29.89 382.58 29.78 384.74 28.5" style="fill:#e0e0e0"></polygon></g><g id="freepik--Floor--inject-59"><path d="M450.15,463.4c0,.15-92.84.26-207.34.26s-207.35-.11-207.35-.26,92.82-.26,207.35-.26S450.15,463.26,450.15,463.4Z" style="fill:#263238"></path></g><g id="freepik--Plants--inject-59"><path d="M386,205.94a9,9,0,0,1,1.46,0,39.6,39.6,0,0,1,4,.43,51.2,51.2,0,0,1,5.79,1.19,58.93,58.93,0,0,1,6.87,2.3,60.13,60.13,0,0,1,6.52,3.16,52.64,52.64,0,0,1,5,3.2c1.36,1,2.43,1.84,3.13,2.47a7.6,7.6,0,0,1,1.06,1,7.89,7.89,0,0,1-1.19-.85c-.74-.57-1.83-1.37-3.21-2.32s-3.07-2-5-3.08a65.51,65.51,0,0,0-6.48-3.1,68.64,68.64,0,0,0-6.8-2.32c-2.13-.57-4.08-1-5.73-1.29s-3-.49-3.92-.59A7.07,7.07,0,0,1,386,205.94Z" style="fill:#263238"></path><path d="M421.28,220.26a13.29,13.29,0,0,1-.13-13.7c.49-.82,1.28-1.67,2.23-1.51s1.44,1.35,1.6,2.35a15.63,15.63,0,0,1-3.24,12,18,18,0,0,1,7.85-6.84c1.22-.54,2.84-.88,3.76.1s.52,2.48-.12,3.61a10.52,10.52,0,0,1-11.51,4.85,9.92,9.92,0,0,1,8.57,7.36c.36,1.51.07,3.5-1.4,4a3.26,3.26,0,0,1-2.64-.67,12.61,12.61,0,0,1-5.58-9,11.07,11.07,0,0,1-4.06,11.46c-1.11.81-2.6,1.42-3.84.81-1.56-.77-1.75-2.93-1.4-4.63a14.53,14.53,0,0,1,7.66-9.94,8.24,8.24,0,0,1-7.65-.66c-1.46-1-2.64-3-1.66-4.41s3-1.16,4.62-.57a20.53,20.53,0,0,1,7.56,4.95" style="fill:#407BFF"></path><path d="M422.09,210.78a42,42,0,0,1,0,5.25,42.73,42.73,0,0,1-1.15,5.13,11.5,11.5,0,0,0,1.61-5.07A11.36,11.36,0,0,0,422.09,210.78Z" style="fill:#263238"></path><path d="M428.05,215.62a20.9,20.9,0,0,1-3.15,2.88c-2,1.29-3.85,1.85-3.8,2a9,9,0,0,0,4.06-1.61A7,7,0,0,0,428.05,215.62Z" style="fill:#263238"></path><path d="M425.7,227.11a7.6,7.6,0,0,0-1.45-3.92,6.51,6.51,0,0,0-3.13-2.76,19.71,19.71,0,0,1,2.75,3A37.3,37.3,0,0,1,425.7,227.11Z" style="fill:#263238"></path><path d="M420.83,222.46a1.63,1.63,0,0,0,1.79-2.4,4.69,4.69,0,0,1-1.42.49,6.67,6.67,0,0,1-.37,1.91" style="fill:#fafafa"></path><path d="M414.53,231a5.7,5.7,0,0,0,1.49-1.15,16.83,16.83,0,0,0,2.82-3.56,16.63,16.63,0,0,0,1.76-4.2,5.22,5.22,0,0,0,.28-1.86,31.48,31.48,0,0,1-2.44,5.82A32.92,32.92,0,0,1,414.53,231Z" style="fill:#263238"></path><path d="M407.09,174.1a27.59,27.59,0,0,0,7.67-17.16c.45-6.39-2.46-14.32-6.23-19.48-4.63,4.08-9.16,10.89-8.58,17.71a39.08,39.08,0,0,0,7.14,18.93" style="fill:#455a64"></path><path d="M408.4,145.6a6.71,6.71,0,0,1,.29,1.31c.16.84.34,2.08.5,3.62a64.92,64.92,0,0,1-2.05,23.92c-.42,1.49-.81,2.68-1.11,3.49a7.42,7.42,0,0,1-.51,1.24,5.91,5.91,0,0,1,.32-1.31c.24-.82.57-2,.94-3.51a77.09,77.09,0,0,0,2-11.82,76.09,76.09,0,0,0,.05-12c-.11-1.53-.23-2.77-.33-3.63A6.31,6.31,0,0,1,408.4,145.6Z" style="fill:#263238"></path><path d="M442.34,165.56a4.14,4.14,0,0,1-.71.22l-2.05.53c-.9.22-2,.5-3.24.87s-2.7.73-4.26,1.25-3.29,1-5.11,1.7-3.75,1.38-5.77,2.17c-4,1.65-8.38,3.62-12.83,5.94s-8.52,4.84-12.15,7.23c-1.79,1.23-3.51,2.38-5.05,3.55s-3,2.23-4.28,3.25-2.43,2-3.44,2.81-1.86,1.57-2.54,2.18l-1.6,1.4a5.16,5.16,0,0,1-.58.46s.16-.2.51-.54l1.53-1.47c.66-.63,1.49-1.4,2.49-2.25s2.1-1.86,3.4-2.88,2.68-2.17,4.25-3.31,3.25-2.35,5-3.59a141.76,141.76,0,0,1,12.17-7.3c4.46-2.33,8.84-4.3,12.89-5.93,2-.77,4-1.53,5.81-2.13s3.56-1.17,5.14-1.64,3-.85,4.29-1.18,2.37-.6,3.27-.79l2.08-.43A3.22,3.22,0,0,1,442.34,165.56Z" style="fill:#263238"></path><path d="M406.5,182.6a30.45,30.45,0,0,0,17,11.82c6.82,1.79,16,.27,22.36-2.76-3.47-5.84-9.91-12.15-17.41-12.91a42.89,42.89,0,0,0-22,3.85" style="fill:#455a64"></path><path d="M424,183.4c0,.09-1.53-.24-4-.57a56.3,56.3,0,0,0-9.69-.46,57.13,57.13,0,0,0-9.62,1.27c-2.43.53-3.9,1-3.93.91a4.27,4.27,0,0,1,1-.42c.66-.24,1.63-.54,2.84-.85a47.2,47.2,0,0,1,9.68-1.43,47.77,47.77,0,0,1,9.77.61c1.23.22,2.23.43,2.9.61A4.65,4.65,0,0,1,424,183.4Z" style="fill:#263238"></path><path d="M442.75,164.11A15.66,15.66,0,0,1,432.05,152c-.2-1.11-.15-2.48.81-3.06s2.33.08,3.24.85A18.35,18.35,0,0,1,442.51,163a21.18,21.18,0,0,1,1.69-12.13c.67-1.43,1.84-3,3.41-2.82s2.39,1.8,2.69,3.29a12.39,12.39,0,0,1-6.47,13.21,11.66,11.66,0,0,1,13.3-.08c1.48,1.06,2.77,3.06,1.82,4.61a3.88,3.88,0,0,1-2.87,1.45,14.87,14.87,0,0,1-11.88-3.66,13,13,0,0,1,5.25,13.32c-.36,1.59-1.22,3.27-2.78,3.69-2,.53-3.82-1.25-4.83-3A17.1,17.1,0,0,1,441,166.1a9.71,9.71,0,0,1-7.31,5.32c-2,.28-4.63-.58-4.88-2.63s1.82-3.38,3.67-4.08A24.19,24.19,0,0,1,443,163.27" style="fill:#407BFF"></path><path d="M436.15,155.06a50.15,50.15,0,0,1,4,4.71,52.76,52.76,0,0,1,2.94,5.44,16.44,16.44,0,0,0-7-10.15Z" style="fill:#263238"></path><path d="M445.18,154.76a24.81,24.81,0,0,1-.57,5c-.75,2.67-2,4.62-1.83,4.71a10.65,10.65,0,0,0,2.36-4.57A8.2,8.2,0,0,0,445.18,154.76Z" style="fill:#263238"></path><path d="M452,166.78a9,9,0,0,0-4.32-2.37,7.62,7.62,0,0,0-4.92,0,23.42,23.42,0,0,1,4.77.55C450.07,165.65,451.88,166.93,452,166.78Z" style="fill:#263238"></path><path d="M444.05,166.42a1.92,1.92,0,0,0-.26-3.52,5.47,5.47,0,0,1-.89,1.53,7.41,7.41,0,0,1,1.15,2" style="fill:#fafafa"></path><path d="M445.05,178.86a6.8,6.8,0,0,0,.43-2.17,19.54,19.54,0,0,0-.25-5.35,19.18,19.18,0,0,0-1.68-5.08,6.41,6.41,0,0,0-1.18-1.88,37.81,37.81,0,0,1,2.32,7.06A38,38,0,0,1,445.05,178.86Z" style="fill:#263238"></path><path d="M79.05,212.66a27.63,27.63,0,0,1-10.57-15.55c-1.56-6.2-.09-14.52,2.72-20.27,5.27,3.21,10.93,9.12,11.55,15.93a39.07,39.07,0,0,1-3.7,19.89" style="fill:#455a64"></path><path d="M72.76,184.83a7.81,7.81,0,0,1,.14,1.33c0,.86.15,2.1.31,3.63a74.07,74.07,0,0,0,6.19,23.07c.63,1.4,1.16,2.53,1.55,3.3a7.85,7.85,0,0,1,.54,1.22,6,6,0,0,1-.72-1.13c-.45-.74-1-1.84-1.71-3.23a65,65,0,0,1-6.22-23.2c-.11-1.54-.15-2.79-.14-3.65A5.91,5.91,0,0,1,72.76,184.83Z" style="fill:#263238"></path><path d="M42.85,210.44a3.83,3.83,0,0,1,.74,0l2.12.07c.92,0,2,.08,3.36.19s2.79.2,4.43.41,3.43.4,5.34.71,4,.68,6.1,1.09a140.74,140.74,0,0,1,13.73,3.57c4.8,1.55,9.27,3.29,13.27,5,2,.91,3.87,1.76,5.59,2.65s3.33,1.72,4.78,2.52,2.72,1.57,3.85,2.23,2.08,1.27,2.84,1.79l1.77,1.17a3.48,3.48,0,0,1,.6.44,5,5,0,0,1-.66-.35l-1.82-1.09c-.78-.49-1.74-1.07-2.88-1.71s-2.42-1.41-3.88-2.16-3-1.62-4.79-2.45-3.61-1.7-5.6-2.6c-4-1.72-8.45-3.44-13.23-5s-9.42-2.69-13.67-3.6c-2.13-.42-4.15-.85-6.06-1.13s-3.69-.57-5.33-.77-3.11-.35-4.41-.49-2.42-.22-3.34-.28l-2.11-.17A3.58,3.58,0,0,1,42.85,210.44Z" style="fill:#263238"></path><path d="M81.13,220.92a30.47,30.47,0,0,1-14.68,14.63c-6.39,3-15.7,3.07-22.5,1.21,2.4-6.36,7.63-13.7,14.88-15.77a43,43,0,0,1,22.3-.07" style="fill:#455a64"></path><path d="M64,224.79a4,4,0,0,1,1-.5c.63-.3,1.57-.69,2.75-1.12a47.78,47.78,0,0,1,9.51-2.31,47.28,47.28,0,0,1,9.78-.3c1.25.1,2.26.22,3,.34a5,5,0,0,1,1.06.23c0,.09-1.54-.1-4-.2a55.55,55.55,0,0,0-9.69.45,56.49,56.49,0,0,0-9.46,2.14C65.48,224.28,64.05,224.87,64,224.79Z" style="fill:#263238"></path><path d="M42.19,209.09a15.68,15.68,0,0,0,8.42-13.76c0-1.13-.29-2.47-1.34-2.88s-2.28.49-3,1.41a18.38,18.38,0,0,0-4,14.1,21.14,21.14,0,0,0-3.8-11.65c-.9-1.29-2.33-2.61-3.85-2.18s-2,2.19-2.07,3.71a12.4,12.4,0,0,0,8.7,11.87A11.67,11.67,0,0,0,28.1,212c-1.27,1.3-2.19,3.49-1,4.85a3.82,3.82,0,0,0,3.07.93,14.88,14.88,0,0,0,11.06-5.69,13,13,0,0,0-2.83,14c.63,1.49,1.77,3,3.38,3.14,2.05.17,3.54-1.9,4.22-3.84a17,17,0,0,0-1.73-14.66,9.73,9.73,0,0,0,8.13,3.95c2.06-.08,4.46-1.39,4.34-3.45s-2.38-3-4.32-3.37a24.15,24.15,0,0,0-10.63.43" style="fill:#407BFF"></path><path d="M47.09,199A55,55,0,0,0,44,204.36,52.68,52.68,0,0,0,42,210.23a13.22,13.22,0,0,1,1.44-6.09A13.55,13.55,0,0,1,47.09,199Z" style="fill:#263238"></path><path d="M38.15,200.31a24.3,24.3,0,0,0,1.45,4.81c1.2,2.5,2.76,4.2,2.62,4.32a10.62,10.62,0,0,1-3.12-4.08A8.36,8.36,0,0,1,38.15,200.31Z" style="fill:#263238"></path><path d="M33.57,213.34a9.13,9.13,0,0,1,3.84-3.09,7.61,7.61,0,0,1,4.84-.88,22,22,0,0,0-4.6,1.37A44.77,44.77,0,0,0,33.57,213.34Z" style="fill:#263238"></path><path d="M41.31,211.59a1.91,1.91,0,0,1-.35-3.51,5.42,5.42,0,0,0,1.13,1.35,7.69,7.69,0,0,0-.78,2.16" style="fill:#fafafa"></path><path d="M42.52,224a6.29,6.29,0,0,1-.81-2.06,19.51,19.51,0,0,1,.07-10.61,6.56,6.56,0,0,1,.83-2.05,38.61,38.61,0,0,0-1,7.36A37.47,37.47,0,0,0,42.52,224Z" style="fill:#263238"></path><path d="M283.86,108a9.46,9.46,0,0,1-.75-1.35c-.44-.89-1.11-2.16-2-3.71a94.4,94.4,0,0,0-7.58-11.56,92.56,92.56,0,0,0-9.26-10.27c-1.28-1.22-2.33-2.19-3.08-2.85a8.92,8.92,0,0,1-1.12-1.07,8.79,8.79,0,0,1,1.25.92c.79.6,1.89,1.54,3.21,2.73A81.15,81.15,0,0,1,274,91.07a79.44,79.44,0,0,1,7.49,11.71c.83,1.57,1.45,2.87,1.84,3.79A9,9,0,0,1,283.86,108Z" style="fill:#263238"></path><path d="M285.13,112.91a30.45,30.45,0,0,0,20.58-2.36c6.3-3.16,12.19-10.37,15-16.85-6.46-2.09-15.46-2.56-21.6,1.82a43.11,43.11,0,0,0-13.94,17.39" style="fill:#455a64"></path><path d="M266.72,106.23c-5.4-4.54-14.35-7.08-21.4-7.07.64,6.77,3.77,15.22,10.23,19.12s14.35,5.39,21.89,5.52C276.24,116.85,272.12,110.76,266.72,106.23Z" style="fill:#455a64"></path><path d="M252.49,104.55a7.17,7.17,0,0,1,1.27.54c.81.38,2,1,3.36,1.71a73.31,73.31,0,0,1,10.44,6.74,54.35,54.35,0,0,1,8.86,8.72c1,1.24,1.76,2.28,2.25,3a7.1,7.1,0,0,1,.73,1.17,6.42,6.42,0,0,1-.89-1c-.54-.71-1.35-1.7-2.37-2.91a62.87,62.87,0,0,0-8.9-8.54,86.86,86.86,0,0,0-10.3-6.83l-3.27-1.85A6.51,6.51,0,0,1,252.49,104.55Z" style="fill:#263238"></path><path d="M302.25,72a15.66,15.66,0,0,1-16-2c-.87-.71-1.74-1.76-1.41-2.84s1.8-1.48,3-1.5a18.44,18.44,0,0,1,13.52,5.65,21.06,21.06,0,0,1-6.75-10.22c-.45-1.52-.59-3.45.69-4.37s3-.22,4.2.69a12.39,12.39,0,0,1,3.86,14.2,11.66,11.66,0,0,1,9.94-8.85c1.81-.18,4.09.46,4.4,2.25a3.83,3.83,0,0,1-1.19,3,14.87,14.87,0,0,1-11.33,5.11,13,13,0,0,1,12.74,6.53c.78,1.42,1.25,3.26.35,4.61-1.14,1.7-3.7,1.58-5.63.91a17.11,17.11,0,0,1-10.4-10.49,9.69,9.69,0,0,1-2,8.82c-1.35,1.56-3.86,2.62-5.4,1.25s-.87-3.74.06-5.48a24,24,0,0,1,6.95-8" style="fill:#407BFF"></path><path d="M291.32,69.57c0,.18,2.82,0,6.12.89a50.19,50.19,0,0,1,5.8,2.14,16.44,16.44,0,0,0-11.92-3Z" style="fill:#263238"></path><path d="M297.9,63.38a24.56,24.56,0,0,1,2.87,4.13c1.2,2.49,1.56,4.78,1.74,4.74a10.69,10.69,0,0,0-1.25-5A8.28,8.28,0,0,0,297.9,63.38Z" style="fill:#263238"></path><path d="M310.94,67.91a9.13,9.13,0,0,0-4.8,1.08,7.72,7.72,0,0,0-3.71,3.23,22.88,22.88,0,0,1,3.95-2.73C308.77,68.33,311,68.09,310.94,67.91Z" style="fill:#263238"></path><path d="M304.75,72.88a1.92,1.92,0,0,0-2.52-2.47,5.38,5.38,0,0,1,.35,1.73,7.72,7.72,0,0,1,2.17.74" style="fill:#fafafa"></path><path d="M313.72,81.56a6.52,6.52,0,0,0-1.11-1.92,19.62,19.62,0,0,0-8.34-6.55,6.47,6.47,0,0,0-2.12-.63c-.07.17,3.18,1.2,6.41,3.76A38.14,38.14,0,0,1,313.72,81.56Z" style="fill:#263238"></path><path d="M302.9,73.37a3.83,3.83,0,0,1-.39.63l-1.18,1.76c-.53.75-1.17,1.68-1.86,2.79s-1.54,2.33-2.37,3.75-1.79,3-2.71,4.65-1.9,3.51-2.9,5.44c-1.94,3.9-3.9,8.25-5.7,12.94s-3.2,9.26-4.34,13.45c-.54,2.11-1.07,4.11-1.46,6s-.77,3.66-1.06,5.28-.52,3.08-.73,4.37-.35,2.41-.46,3.32-.21,1.58-.28,2.11a5.57,5.57,0,0,1-.13.73,3.79,3.79,0,0,1,0-.74c0-.54.11-1.24.19-2.12s.19-2,.37-3.34.35-2.78.66-4.4.58-3.4,1-5.3.89-3.91,1.41-6a141.73,141.73,0,0,1,4.32-13.52c1.81-4.7,3.8-9.07,5.76-13,1-1.93,2-3.78,2.95-5.45s1.9-3.23,2.77-4.62,1.72-2.64,2.44-3.73,1.39-2,1.94-2.74l1.27-1.7A3.05,3.05,0,0,1,302.9,73.37Z" style="fill:#263238"></path><path d="M301.94,99.94c0,.07-1.34.85-3.49,2.24a67.68,67.68,0,0,0-8,6,52.91,52.91,0,0,0-6.83,7.27c-1.56,2-2.38,3.38-2.46,3.34a4.54,4.54,0,0,1,.5-1,25.84,25.84,0,0,1,1.66-2.56,45.58,45.58,0,0,1,6.78-7.44,55.75,55.75,0,0,1,8.12-5.93c1.11-.66,2-1.16,2.67-1.48A4.84,4.84,0,0,1,301.94,99.94Z" style="fill:#263238"></path><path d="M257.61,75.88a11.32,11.32,0,0,1-8.82,7.61c-.81.12-1.8.08-2.21-.62s.08-1.68.65-2.33a13.26,13.26,0,0,1,9.58-4.5,15.26,15.26,0,0,1-8.75-1.34c-1-.5-2.13-1.36-2-2.5s1.33-1.7,2.4-1.9a8.93,8.93,0,0,1,9.48,4.81A8.43,8.43,0,0,1,258,65.5c.78-1.06,2.23-2,3.34-1.27a2.8,2.8,0,0,1,1,2.09,10.72,10.72,0,0,1-2.76,8.54,9.41,9.41,0,0,1,9.67-3.66,3.32,3.32,0,0,1,2.64,2c.36,1.43-.95,2.74-2.24,3.45a12.35,12.35,0,0,1-10.66.49,7,7,0,0,1,3.77,5.33c.18,1.47-.47,3.34-1.95,3.5s-2.43-1.35-2.91-2.69A17.51,17.51,0,0,1,257,75.7" style="fill:#407BFF"></path><path d="M251,80.55a37.48,37.48,0,0,1,3.44-2.85,36.11,36.11,0,0,1,4-2.06,9.62,9.62,0,0,0-4.18,1.74A9.82,9.82,0,0,0,251,80.55Z" style="fill:#263238"></path><path d="M250.88,74a17.28,17.28,0,0,1,3.6.46c1.92.57,3.32,1.49,3.38,1.37a7.67,7.67,0,0,0-3.27-1.75A6,6,0,0,0,250.88,74Z" style="fill:#263238"></path><path d="M259.63,69.24a6.6,6.6,0,0,0-1.75,3.1,5.57,5.57,0,0,0-.07,3.55,16.12,16.12,0,0,1,.45-3.44C258.8,70.61,259.74,69.31,259.63,69.24Z" style="fill:#263238"></path><path d="M259.29,75a1.38,1.38,0,0,0-2.54.16,4,4,0,0,1,1.09.65,5.63,5.63,0,0,1,1.45-.81" style="fill:#fafafa"></path><path d="M268.29,74.37a4.76,4.76,0,0,0-1.57-.34,14.31,14.31,0,0,0-7.55,1.29,4.61,4.61,0,0,0-1.37.84,26.64,26.64,0,0,1,5.12-1.61A27.52,27.52,0,0,1,268.29,74.37Z" style="fill:#263238"></path></g><g id="freepik--Book--inject-59"><polygon points="378.35 127.06 89.95 155.44 81.59 157.31 102.2 345.09 255.4 330.66 404.41 314.17 378.35 127.06" style="fill:#407BFF"></polygon><polygon points="106.89 335.8 109.88 340.26 396.66 310.42 396.66 304.27 283.21 300.94 127.05 311.77 106.89 335.8" style="fill:#e0e0e0"></polygon><path d="M88,155.54s36.48-40.25,144.12-17.85c0,0,67-42.28,140.67-12.49l23.88,179.07s-95.26-4.35-126.28,18.2l-37.5,3.45s-87.1-21.28-126,9.88Z" style="fill:#fafafa"></path><path d="M88,155.54s.13,1.1.37,3.23.57,5.31,1,9.46c.88,8.3,2.18,20.5,3.84,36.15,3.3,31.29,8.06,76.34,13.88,131.4l-.33-.14A66.58,66.58,0,0,1,119.35,328a90.24,90.24,0,0,1,14.35-5.05,144.45,144.45,0,0,1,31.43-4.2,248,248,0,0,1,33.36,1.34,294.66,294.66,0,0,1,34.45,5.62h-.08l37.5-3.46-.13,0a57.63,57.63,0,0,1,13.59-7,128,128,0,0,1,14.9-4.44,250.91,250.91,0,0,1,31.4-5c10.7-1.06,21.58-1.69,32.59-2s22.13-.29,33.34.11l.62,0-.27.3c-8.45-63.44-16.52-123.95-23.86-179.07l.15.19a155.3,155.3,0,0,0-19.22-6.24c-1.6-.47-3.24-.74-4.85-1.11s-3.23-.72-4.85-1l-4.85-.81-4.84-.59a157.7,157.7,0,0,0-37.67.5A180.43,180.43,0,0,0,262,124.37a163.13,163.13,0,0,0-29.82,13.48l-.07,0-.07,0c-22.68-4.69-43.62-6.91-62-6.79s-34.22,2.52-46.66,6.12a102.11,102.11,0,0,0-27.22,11.94,59.29,59.29,0,0,0-6.24,4.61A24.56,24.56,0,0,0,88,155.54a22,22,0,0,1,1.91-1.84,57.44,57.44,0,0,1,6.21-4.65A101.34,101.34,0,0,1,123.34,137c12.44-3.64,28.27-6.12,46.7-6.22s39.4,2.05,62.1,6.72l-.13,0A162.94,162.94,0,0,1,261.9,124a180.16,180.16,0,0,1,34.46-8.19,157.45,157.45,0,0,1,37.77-.53l4.86.59,4.86.81c1.63.24,3.24.61,4.86,1s3.27.64,4.87,1.11A156.35,156.35,0,0,1,372.87,125l.13,0,0,.14c7.35,55.12,15.43,115.63,23.9,179.07l0,.31-.31,0-.62,0c-11.19-.4-22.31-.39-33.31-.11s-21.86.93-32.55,2a249.65,249.65,0,0,0-31.34,5A126.23,126.23,0,0,0,284,315.77a57.11,57.11,0,0,0-13.47,6.9l-.06,0h-.07l-37.5,3.44h-.08a292.9,292.9,0,0,0-34.38-5.63,245.55,245.55,0,0,0-33.3-1.35,144.06,144.06,0,0,0-31.33,4.15,91,91,0,0,0-14.28,5A66.29,66.29,0,0,0,107,336l-.29.23,0-.37C101,280.72,96.26,235.64,93,204.33c-1.62-15.64-2.88-27.84-3.74-36.14-.42-4.14-.74-7.3-1-9.44S88,155.54,88,155.54Z" style="fill:#263238"></path><path d="M254.91,324.69c-.15,0-5.43-41.75-11.81-93.27s-11.42-93.33-11.28-93.35,5.42,41.74,11.8,93.28S255.05,324.67,254.91,324.69Z" style="fill:#263238"></path><path d="M358.51,146.42l-.29,0-.86-.17-3.3-.71-2.37-.53c-.87-.18-1.83-.33-2.85-.51-2-.34-4.36-.82-7-1.1l-4.07-.52c-1.42-.17-2.9-.25-4.43-.39-3.06-.31-6.34-.36-9.79-.49a155.81,155.81,0,0,0-44.43,5.69c-3.31,1-6.47,1.87-9.35,2.94-1.45.51-2.87,1-4.19,1.49l-3.81,1.52c-2.45.92-4.57,2-6.46,2.82-.94.44-1.83.82-2.63,1.21l-2.17,1.11-3,1.52-.79.38a1.53,1.53,0,0,1-.28.12,1,1,0,0,1,.25-.16l.77-.43,3-1.61,2.15-1.15c.79-.41,1.68-.8,2.61-1.25,1.89-.87,4-2,6.45-2.9l3.8-1.56c1.33-.54,2.75-1,4.19-1.52,2.89-1.09,6.06-2,9.37-3a151.61,151.61,0,0,1,44.57-5.7c3.46.13,6.75.2,9.81.53,1.54.15,3,.24,4.44.42l4.08.55c2.6.31,4.92.82,7,1.18,1,.2,2,.36,2.85.55l2.37.58,3.27.81.85.22Z" style="fill:#263238"></path><path d="M360.79,167.82a1,1,0,0,1-.31,0l-.87-.17-3.36-.72-2.42-.53c-.89-.17-1.87-.32-2.91-.5-2.09-.35-4.45-.83-7.1-1.11l-4.14-.52c-1.45-.18-3-.25-4.52-.39-3.11-.31-6.46-.37-10-.49a162,162,0,0,0-45.3,5.63c-3.37,1-6.61,1.87-9.55,2.94-1.48.51-2.92,1-4.28,1.48l-3.89,1.53c-2.5.92-4.67,2-6.61,2.82-1,.44-1.87.82-2.69,1.21l-2.21,1.11-3.08,1.53-.8.38-.29.12a1.43,1.43,0,0,1,.26-.17l.78-.43,3-1.61,2.19-1.15c.82-.41,1.72-.8,2.68-1.25,1.93-.88,4.1-2,6.59-2.9l3.89-1.56c1.36-.53,2.8-1,4.28-1.52,2.95-1.09,6.18-2,9.57-3a157.93,157.93,0,0,1,45.43-5.65c3.53.13,6.88.21,10,.54,1.56.15,3.08.23,4.52.42l4.15.56c2.66.3,5,.81,7.11,1.18,1,.2,2,.36,2.9.55l2.41.58,3.34.81.87.22Z" style="fill:#263238"></path><path d="M366.64,189.19a1,1,0,0,1-.31,0l-.87-.17-3.36-.72-2.42-.53c-.89-.17-1.86-.32-2.91-.51-2.08-.34-4.45-.82-7.1-1.1l-4.14-.52c-1.45-.18-3-.25-4.52-.39-3.11-.31-6.46-.37-10-.5a162.48,162.48,0,0,0-45.3,5.64c-3.37,1-6.6,1.87-9.55,2.94-1.48.51-2.92,1-4.28,1.48L268,196.3c-2.5.92-4.67,2-6.61,2.82-1,.43-1.87.82-2.69,1.21l-2.21,1.11L253.42,203l-.8.39a1.21,1.21,0,0,1-.29.11l.26-.16.78-.43,3-1.61,2.2-1.15c.81-.41,1.71-.81,2.67-1.25,1.93-.88,4.1-2,6.59-2.9l3.89-1.56c1.36-.54,2.8-1,4.28-1.52,2.95-1.09,6.18-2,9.57-3A158.4,158.4,0,0,1,331,184.23c3.53.14,6.89.22,10,.55,1.56.15,3.08.23,4.52.42l4.15.55c2.66.31,5,.82,7.11,1.19,1,.2,2,.36,2.9.55l2.42.57,3.33.82.87.22Z" style="fill:#263238"></path><path d="M368.32,210.56a1,1,0,0,1-.3,0l-.88-.17-3.36-.72-2.42-.53c-.89-.18-1.86-.32-2.9-.51-2.09-.34-4.45-.82-7.1-1.1l-4.15-.52c-1.44-.18-3-.25-4.51-.39-3.12-.31-6.47-.37-10-.5a162.35,162.35,0,0,0-45.3,5.64c-3.38,1-6.61,1.86-9.56,2.94-1.47.51-2.92,1-4.28,1.48l-3.89,1.53c-2.5.92-4.67,2-6.6,2.82-1,.43-1.88.82-2.69,1.21l-2.22,1.11-3.08,1.52-.8.39a1.21,1.21,0,0,1-.29.11,1.94,1.94,0,0,1,.26-.16l.78-.43,3-1.61,2.2-1.16c.81-.4,1.71-.8,2.67-1.25,1.93-.87,4.1-1.95,6.6-2.89l3.88-1.57c1.36-.53,2.81-1,4.28-1.51,2.95-1.1,6.19-2,9.57-3a158.4,158.4,0,0,1,45.43-5.66c3.53.14,6.89.22,10,.55,1.56.15,3.08.23,4.52.42l4.16.55c2.65.31,5,.82,7.1,1.19,1,.19,2,.36,2.9.55l2.42.57,3.33.81.87.23Z" style="fill:#263238"></path><path d="M372.49,231.93l-.3,0-.88-.18L368,231l-2.42-.53c-.89-.18-1.86-.33-2.9-.51-2.09-.34-4.45-.83-7.1-1.1l-4.15-.53c-1.44-.17-3-.25-4.51-.38-3.12-.32-6.47-.38-10-.5a162.35,162.35,0,0,0-45.3,5.64c-3.38,1-6.61,1.86-9.56,2.93-1.47.52-2.92,1-4.28,1.49L273.86,239c-2.5.92-4.67,2-6.6,2.82-1,.43-1.88.82-2.69,1.21l-2.22,1.11-3.08,1.52-.8.39a1.21,1.21,0,0,1-.29.11l.26-.16.78-.43,3-1.61,2.2-1.16c.81-.4,1.71-.8,2.67-1.25,1.93-.87,4.1-2,6.6-2.9l3.88-1.56c1.36-.53,2.81-1,4.28-1.51,2.95-1.1,6.19-2,9.57-3A158.4,158.4,0,0,1,336.89,227c3.53.14,6.89.22,10,.55,1.56.14,3.08.23,4.52.42l4.16.55c2.65.3,5,.82,7.1,1.18,1,.2,2,.36,2.9.56l2.42.57,3.33.81.87.23A1.32,1.32,0,0,1,372.49,231.93Z" style="fill:#263238"></path><path d="M375,253.3l-.3,0-.88-.18-3.35-.71-2.42-.53c-.89-.18-1.87-.33-2.91-.51-2.09-.34-4.45-.83-7.1-1.11l-4.15-.52c-1.44-.17-3-.25-4.51-.38-3.12-.32-6.46-.38-10-.5a161.37,161.37,0,0,0-45.3,5.64c-3.38,1-6.61,1.86-9.55,2.93-1.48.52-2.92,1-4.28,1.49l-3.89,1.52c-2.5.93-4.67,2-6.61,2.83-1,.43-1.87.82-2.69,1.2l-2.21,1.12-3.08,1.52-.81.38a1.1,1.1,0,0,1-.28.12,1.34,1.34,0,0,1,.26-.16l.78-.43,3-1.62c.67-.34,1.4-.73,2.2-1.15s1.72-.8,2.68-1.25c1.93-.87,4.09-1.95,6.59-2.9l3.89-1.56c1.36-.53,2.8-1,4.28-1.52,2.95-1.09,6.18-2,9.57-3a158.4,158.4,0,0,1,45.43-5.66c3.53.14,6.88.21,10,.55,1.56.14,3.07.23,4.52.41l4.15.56c2.65.3,5,.81,7.1,1.18,1,.2,2,.36,2.91.55l2.41.58,3.34.81.86.22A1.08,1.08,0,0,1,375,253.3Z" style="fill:#263238"></path><path d="M378.61,274.67l-.3-.05-.88-.17-3.35-.71-2.42-.53c-.89-.18-1.87-.33-2.91-.51-2.09-.34-4.45-.83-7.1-1.11l-4.15-.52c-1.44-.17-2.95-.25-4.51-.39-3.12-.31-6.46-.37-10-.49a161.37,161.37,0,0,0-45.3,5.64c-3.38,1-6.61,1.86-9.55,2.93-1.48.52-2.92,1-4.28,1.49L280,281.77c-2.5.93-4.67,2-6.61,2.82-1,.44-1.87.82-2.69,1.21l-2.22,1.11-3.07,1.53-.81.38a1.1,1.1,0,0,1-.28.12.92.92,0,0,1,.26-.16l.78-.44,3-1.61,2.2-1.15c.82-.4,1.72-.8,2.68-1.25,1.93-.88,4.09-1.95,6.59-2.9l3.89-1.56c1.35-.53,2.8-1,4.28-1.52,2.94-1.09,6.18-2,9.56-3a173.54,173.54,0,0,1,22.52-4.47A171.17,171.17,0,0,1,343,269.71c3.53.13,6.88.21,10,.54,1.56.15,3.07.24,4.52.42l4.15.56c2.65.3,5,.81,7.1,1.18,1,.2,2,.36,2.91.55l2.41.58,3.34.81.86.22A1.08,1.08,0,0,1,378.61,274.67Z" style="fill:#263238"></path><path d="M106.73,178.29l.25-.16.77-.43,3-1.62,2.14-1.15c.79-.41,1.68-.81,2.61-1.26,1.89-.88,4-2,6.44-2.91l3.8-1.57c1.33-.54,2.74-1,4.19-1.53,2.88-1.1,6.05-2,9.36-3a152.91,152.91,0,0,1,44.55-5.81c3.46.13,6.75.19,9.82.52,1.53.14,3,.22,4.44.4l4.07.55c2.61.29,4.93.8,7,1.16,1,.2,2,.36,2.85.54l2.37.57,3.28.8.84.23.29.09-.3,0-.86-.17-3.29-.71-2.38-.52c-.87-.18-1.83-.32-2.85-.5-2.05-.34-4.37-.82-7-1.09l-4.07-.51c-1.41-.17-2.89-.24-4.42-.37-3.06-.31-6.35-.35-9.8-.47a169.73,169.73,0,0,0-22.42,1.29,172.46,172.46,0,0,0-22,4.5c-3.31,1-6.47,1.89-9.35,3-1.44.52-2.86,1-4.18,1.49L122,171.1c-2.44.93-4.56,2-6.45,2.83-.94.44-1.83.83-2.63,1.22l-2.16,1.11-3,1.53-.79.39A1.09,1.09,0,0,1,106.73,178.29Z" style="fill:#263238"></path><path d="M110,199.58a1.43,1.43,0,0,1,.26-.17L111,199l3-1.64,2.19-1.17c.81-.41,1.71-.81,2.67-1.27,1.92-.89,4.08-2,6.57-3l3.87-1.59c1.35-.55,2.8-1,4.27-1.55,2.94-1.12,6.16-2.05,9.54-3.07a158.25,158.25,0,0,1,45.38-6.08c3.53.11,6.88.15,10,.46,1.56.14,3.08.21,4.53.38l4.15.52c2.66.29,5,.78,7.12,1.13,1,.19,2,.35,2.9.53l2.42.56L223,184l.86.21.29.1-.3,0-.88-.17-3.36-.69-2.43-.52c-.89-.16-1.86-.31-2.9-.48-2.09-.33-4.46-.79-7.11-1.05L203,180.9c-1.45-.16-3-.22-4.52-.35-3.12-.29-6.47-.31-10-.41a177.33,177.33,0,0,0-22.84,1.43,176.38,176.38,0,0,0-22.41,4.63c-3.37,1-6.59,1.92-9.53,3-1.47.53-2.91,1-4.26,1.53l-3.88,1.55c-2.49,1-4.65,2-6.59,2.87-1,.45-1.86.84-2.68,1.23s-1.54.79-2.21,1.13l-3.06,1.55-.8.39Z" style="fill:#263238"></path><path d="M109.74,221.73l.26-.16.78-.44,3-1.63,2.19-1.17c.81-.41,1.71-.82,2.67-1.27,1.92-.89,4.08-2,6.57-2.95l3.87-1.6c1.35-.54,2.8-1,4.27-1.55,2.94-1.11,6.16-2,9.54-3.07a158.71,158.71,0,0,1,45.38-6.07c3.53.11,6.88.15,10,.46,1.57.13,3.08.21,4.53.38l4.15.52c2.66.28,5,.77,7.12,1.13,1,.19,2,.34,2.9.52l2.42.56,3.35.79.86.22a1.1,1.1,0,0,1,.29.09l-.3,0-.88-.17-3.36-.69-2.43-.51c-.89-.17-1.86-.31-2.9-.49-2.09-.32-4.46-.79-7.11-1.05l-4.15-.49c-1.45-.15-3-.22-4.52-.34-3.12-.29-6.47-.32-10-.41a177.24,177.24,0,0,0-22.84,1.42A178.14,178.14,0,0,0,143,208.35c-3.37,1-6.59,1.92-9.53,3-1.47.53-2.91,1-4.26,1.52l-3.88,1.56c-2.49.94-4.65,2-6.59,2.87-1,.44-1.86.83-2.68,1.23l-2.21,1.13-3.06,1.54-.8.39A1.07,1.07,0,0,1,109.74,221.73Z" style="fill:#263238"></path><path d="M113.55,242.82l.25-.16.78-.44,3-1.63,2.2-1.17c.81-.41,1.71-.81,2.66-1.27,1.93-.89,4.08-2,6.57-3l3.88-1.59c1.35-.55,2.79-1,4.26-1.56,2.94-1.11,6.17-2,9.54-3.07a173,173,0,0,1,22.47-4.68,172.87,172.87,0,0,1,22.91-1.39c3.53.11,6.89.15,10,.46,1.57.13,3.08.21,4.53.38l4.16.52c2.65.29,5,.78,7.11,1.13,1,.19,2,.35,2.91.53l2.42.56,3.34.78.86.22a2.59,2.59,0,0,1,.3.09,1,1,0,0,1-.31,0l-.88-.16-3.36-.7-2.42-.51c-.89-.16-1.87-.31-2.91-.48-2.09-.33-4.46-.79-7.11-1.05l-4.15-.49c-1.44-.16-3-.23-4.52-.35-3.12-.29-6.46-.31-10-.41a162.19,162.19,0,0,0-45.25,6.06c-3.37,1-6.59,1.92-9.52,3-1.48.53-2.92,1-4.27,1.52l-3.88,1.56c-2.49.94-4.65,2-6.58,2.87-1,.45-1.87.84-2.68,1.23l-2.21,1.13-3.07,1.55-.8.39A1.27,1.27,0,0,1,113.55,242.82Z" style="fill:#263238"></path><path d="M114.94,264.55l.26-.16L116,264l3-1.63,2.19-1.17c.81-.41,1.71-.82,2.67-1.27,1.92-.89,4.08-2,6.57-2.95l3.87-1.6c1.35-.54,2.8-1,4.27-1.55,2.94-1.11,6.16-2,9.54-3.07A173,173,0,0,1,170.58,246a171.09,171.09,0,0,1,22.91-1.39c3.53.11,6.88.15,10,.46,1.56.13,3.08.21,4.53.38l4.15.52c2.66.28,5,.77,7.12,1.13,1,.19,2,.34,2.9.53l2.42.55L228,249l.87.22a1.1,1.1,0,0,1,.29.09,1,1,0,0,1-.3,0l-.88-.17-3.36-.69-2.43-.51c-.89-.17-1.86-.31-2.91-.49-2.09-.32-4.45-.79-7.1-1l-4.15-.48c-1.45-.16-3-.23-4.52-.35-3.12-.29-6.47-.32-10-.41a177.49,177.49,0,0,0-22.85,1.42,178.34,178.34,0,0,0-22.4,4.63c-3.37,1-6.59,1.92-9.53,3-1.47.53-2.91,1-4.26,1.52l-3.88,1.56c-2.49.94-4.65,2-6.59,2.87-1,.44-1.86.83-2.68,1.23l-2.21,1.13L116,264l-.81.39A1,1,0,0,1,114.94,264.55Z" style="fill:#263238"></path><path d="M117.92,285.86a1.34,1.34,0,0,1,.26-.16l.78-.44,3-1.63,2.19-1.17c.81-.41,1.71-.82,2.67-1.27,1.92-.89,4.08-2,6.56-2.95l3.88-1.59c1.35-.55,2.79-1,4.27-1.56,2.93-1.11,6.16-2,9.54-3.07a173.19,173.19,0,0,1,22.46-4.68A173,173,0,0,1,196.47,266c3.53.11,6.88.15,10,.46,1.56.13,3.08.21,4.52.38l4.16.52c2.66.28,5,.77,7.11,1.13,1,.19,2,.35,2.91.53l2.42.55,3.34.79.87.22.29.09a1,1,0,0,1-.3,0l-.88-.16-3.36-.7-2.43-.51c-.89-.17-1.86-.31-2.91-.48-2.09-.33-4.45-.8-7.11-1.05l-4.15-.49c-1.44-.16-3-.23-4.51-.35-3.12-.29-6.47-.31-10-.41a177.24,177.24,0,0,0-22.84,1.42,177.6,177.6,0,0,0-22.4,4.63c-3.37,1-6.59,1.93-9.53,3-1.47.53-2.92,1-4.27,1.52l-3.87,1.56c-2.5.94-4.66,2-6.59,2.87-1,.44-1.87.83-2.68,1.23l-2.21,1.13L119,285.35l-.81.39A1.1,1.1,0,0,1,117.92,285.86Z" style="fill:#263238"></path><path d="M119.88,307.44s.08-.06.25-.16l.78-.44,3-1.63,2.19-1.17c.81-.41,1.71-.82,2.66-1.27,1.93-.89,4.08-2,6.57-2.95l3.88-1.59c1.35-.55,2.79-1,4.26-1.56,2.94-1.11,6.17-2,9.54-3.07a173.36,173.36,0,0,1,22.47-4.68,173,173,0,0,1,22.91-1.39c3.53.11,6.89.15,10,.46,1.56.13,3.07.21,4.52.38l4.16.52c2.65.28,5,.77,7.11,1.13,1,.19,2,.34,2.91.53l2.42.55,3.34.79.87.22.29.09a1,1,0,0,1-.31,0l-.87-.17-3.37-.69-2.42-.51c-.89-.17-1.87-.31-2.91-.49-2.09-.32-4.46-.79-7.11-1l-4.15-.49c-1.44-.16-3-.23-4.52-.35-3.12-.29-6.46-.31-10-.41a177.24,177.24,0,0,0-22.84,1.42,178.14,178.14,0,0,0-22.41,4.63c-3.37,1-6.59,1.93-9.52,3-1.47.53-2.92,1-4.27,1.52l-3.88,1.56c-2.49.94-4.65,2-6.58,2.87-1,.44-1.87.83-2.68,1.23L124,305.39,121,306.93l-.8.39A1.1,1.1,0,0,1,119.88,307.44Z" style="fill:#263238"></path><path d="M369,309.52c2.28,10.05,5.67,17.67,11,26.51a42.75,42.75,0,0,1-17.65-11.26c-1.48,3.36-1.46,10.54-.88,14.89-8.47-6.58-15.62-17.53-18.54-27.85Z" style="fill:#455a64"></path><path d="M390.45,308a.65.65,0,0,1-.23.05l-.69.06-2.65.22-9.76.76c-8.23.65-19.6,1.62-32.14,2.85s-23.88,2.51-32.08,3.52l-9.7,1.23-2.64.34-.69.07h-.24a.79.79,0,0,1,.23-.06l.68-.13,2.63-.43c2.28-.36,5.59-.85,9.68-1.39,8.19-1.11,19.53-2.44,32.08-3.68s23.92-2.14,32.17-2.69c4.12-.29,7.46-.48,9.76-.6l2.66-.12.69,0Z" style="fill:#263238"></path></g><g id="freepik--Character--inject-59"><rect x="77.16" y="420.48" width="323.08" height="42.65" style="fill:#407BFF"></rect><rect x="77.16" y="425.74" width="323.08" height="30.27" style="fill:#fafafa"></rect><rect x="59.86" y="391.03" width="347.97" height="29.79" style="fill:#455a64"></rect><rect x="381.72" y="391.03" width="5.92" height="29.79" style="fill:#fff"></rect><rect x="369.24" y="391.03" width="5.92" height="29.79" style="fill:#fff"></rect><rect x="92.1" y="391.03" width="5.92" height="29.79" style="fill:#fff"></rect><rect x="79.62" y="391.03" width="5.92" height="29.79" style="fill:#fff"></rect><path d="M337.17,414.09s.39,0,1.14-.15a5.63,5.63,0,0,0,4.15-3.77,7,7,0,0,0,.2-3,5.55,5.55,0,0,0-5-4.7l-48.17.06-158.92.08a5.39,5.39,0,0,0-4.61,2.6,5.28,5.28,0,0,0-.77,2.61,6,6,0,0,0,.43,2.71,5.38,5.38,0,0,0,4.14,3.19,26,26,0,0,0,2.81.07h25.16l42.2,0,71.45,0,48.16.09,13.1,0,3.41,0,1.16,0-1.16,0-3.41,0-13.1.05-48.16.08-71.45.06H132.53c-1,0-1.88,0-2.89-.07a5.93,5.93,0,0,1-4.54-3.5,6.6,6.6,0,0,1-.47-2.93,5.84,5.84,0,0,1,.84-2.87,5.92,5.92,0,0,1,5.06-2.85l158.92.08,48.18.1a5.71,5.71,0,0,1,5.18,4.88,7,7,0,0,1-.23,3,5.74,5.74,0,0,1-1.3,2.16,5.6,5.6,0,0,1-3,1.62,5.11,5.11,0,0,1-.86.1Z" style="fill:#fff"></path><path d="M397.43,426.58c0,.15-71.2.26-159,.26s-159-.11-159-.26,71.18-.26,159-.26S397.43,426.44,397.43,426.58Z" style="fill:#263238"></path><path d="M397.43,435.62c0,.14-71.2.26-159,.26s-159-.12-159-.26,71.18-.26,159-.26S397.43,435.47,397.43,435.62Z" style="fill:#263238"></path><path d="M397.43,444.65c0,.15-71.2.26-159,.26s-159-.11-159-.26,71.18-.26,159-.26S397.43,444.51,397.43,444.65Z" style="fill:#263238"></path><path d="M397.43,453.69c0,.14-71.2.26-159,.26s-159-.12-159-.26,71.18-.26,159-.26S397.43,453.55,397.43,453.69Z" style="fill:#263238"></path><polygon points="250.02 404.96 266.67 399.43 257.36 372.87 239.53 380.13 250.02 404.96" style="fill:#ffbf9d"></polygon><path d="M241.78,380.16,216,391.5l-10,.39c-3.8.15-3,3.2-2.82,7L205,445.26s4.74,2,6.06-1.47,14.61-30,14.61-30l24.4-8.9Z" style="fill:#e0e0e0"></path><path d="M241.78,380.16s.06.14.15.41.25.72.44,1.25c.39,1.13.95,2.77,1.68,4.87l6.19,18.17,0,.16-.15.05L225.76,414l.11-.1c-2.67,5.4-5.54,11.18-8.54,17.23-1.49,3-3,6.15-4.51,9.33-.38.8-.75,1.6-1.11,2.41-.18.41-.32.79-.53,1.22a2.39,2.39,0,0,1-.36.62l-.22.29-.27.24a3.87,3.87,0,0,1-2.69.81,8.35,8.35,0,0,1-2.73-.59l-.13-.05v-.16c0-.15,0-.31,0-.48-.49-12.6-.95-24.62-1.37-35.57q-.16-4.11-.3-8c-.06-1.3-.09-2.58-.18-3.83a12.3,12.3,0,0,1,.12-3.78,2.41,2.41,0,0,1,1.18-1.5,4.73,4.73,0,0,1,1.82-.42l3.46-.12,6.54-.24H216l18.94-8.23L240,380.9l1.33-.56.44-.18-.46.23c-.32.14-.77.34-1.34.61l-5.13,2.3-18.76,8.35H216l-6.53.27-3.47.14a4.1,4.1,0,0,0-1.64.37,2,2,0,0,0-1,1.28,11.84,11.84,0,0,0-.09,3.63c.1,1.26.13,2.55.19,3.84q.15,3.9.32,8c.43,11,.91,23,1.41,35.58,0,.16,0,.32,0,.47l-.14-.2a8.09,8.09,0,0,0,2.56.55,3.4,3.4,0,0,0,2.36-.7,5.67,5.67,0,0,0,1.26-2.21c.36-.81.73-1.61,1.11-2.41,1.51-3.19,3-6.29,4.52-9.33,3-6.05,5.9-11.83,8.58-17.22l0-.08.08,0L250,404.76l-.1.21-6-18.13c-.7-2.13-1.24-3.79-1.61-4.93-.18-.56-.32-1-.41-1.29S241.78,380.16,241.78,380.16Z" style="fill:#263238"></path><path d="M243.2,377.34l-6.24,3.2a2.09,2.09,0,0,0-1,2.62l8.83,22.69a2.1,2.1,0,0,0,2.51,1.26l6.57-1.81a2.1,2.1,0,0,0,1.4-2.77l-9.16-24.07A2.1,2.1,0,0,0,243.2,377.34Z" style="fill:#e0e0e0"></path><path d="M245.08,406.74a22.52,22.52,0,0,1-1.78-3.33c-1-2.09-2.35-5-3.65-8.34s-2.3-6.38-2.94-8.62c-.31-1.12-.55-2-.69-2.67a3.28,3.28,0,0,1-.17-1,29.81,29.81,0,0,1,1.25,3.56c.73,2.2,1.79,5.23,3.08,8.53s2.57,6.25,3.49,8.39A26.45,26.45,0,0,1,245.08,406.74Z" style="fill:#263238"></path><path d="M237.55,386a10.55,10.55,0,0,1,10.15-3.3c0,.18-2.5-.13-5.35.82A24.75,24.75,0,0,0,237.55,386Z" style="fill:#263238"></path><path d="M239.74,394.72A23.59,23.59,0,0,1,245,392.1a24.27,24.27,0,0,1,5.6-1.8c.06.16-2.39,1.11-5.38,2.33A42.07,42.07,0,0,1,239.74,394.72Z" style="fill:#263238"></path><path d="M244.2,403.43a18.65,18.65,0,0,0,5.22-1.93c2.65-1.6,3.92-3.89,4.07-3.78a3.6,3.6,0,0,1-.78,1.5,10.54,10.54,0,0,1-6.82,4.2A3.56,3.56,0,0,1,244.2,403.43Z" style="fill:#263238"></path><path d="M203.6,402.24c0-.1.87-.23,2.2-.73a12.49,12.49,0,0,0,7.49-7.59c.49-1.34.6-2.23.7-2.21a5.42,5.42,0,0,1-.31,2.33,11.5,11.5,0,0,1-7.75,7.86A5.61,5.61,0,0,1,203.6,402.24Z" style="fill:#263238"></path><path d="M204.47,431.57a3.75,3.75,0,0,1,1.68-.5,7.51,7.51,0,0,1,4.18.69,10.17,10.17,0,0,1,3.31,2.63,4.48,4.48,0,0,1,1,1.46c-.07,0-.51-.44-1.26-1.18a12.86,12.86,0,0,0-3.26-2.39,8.23,8.23,0,0,0-3.91-.8A9.06,9.06,0,0,1,204.47,431.57Z" style="fill:#263238"></path><path d="M199.51,342.93s-34.63-5.87-42.41-5.07S134,345.09,134,358.91s8.09,24.52,19,27.35,72.16,15.25,96.17,17.31c20.32,1.74,31.85-2.31,29.85-5.69,0,0,20.29-7.87,22.46-9,1.7-.85,25.94-11.8,37.38-20.77,5.21-4.09,20.91-20,8.19-31s-27.29-9.59-41.37-3.58c-2.36,1-16.42,5.58-24.27,10.19l-11.72-15c-.4.24-24.28.52-45.52.26-6.86-.08-18.81-.26-18.81-.26Z" style="fill:#263238"></path><path d="M252.26,381.37c-.36-2.71-.54-3.71.31-5.36a15.72,15.72,0,0,1,3.63-4.18c.93-.83,2-1.73,3.25-1.62,1.57.14,2.52,1.75,3.22,3.16q3.84,7.78,8.32,15.22c1.71,2.85,3.56,5.73,6.26,7.67,1,.71,2.22,1.58,2,2.79-.14.95-1.12,1.51-2,1.9a37,37,0,0,1-5.12,1.8,9.66,9.66,0,0,1-5.21.32,9.77,9.77,0,0,1-4-2.74,38.19,38.19,0,0,1-10.82-19.56" style="fill:#263238"></path><path d="M314.41,337.22s-.22-.05-.65,0a16.66,16.66,0,0,0-1.85.25c-1.6.3-3.9.83-6.74,1.53-1.4.35-3,.74-4.63,1.08-1.59.52-3,1.79-4.5,3-3,2.39-6.35,5-9.81,7.84-6.91,5.62-13,10.89-17.32,14.83-2.17,2-3.88,3.59-5.07,4.71l-1.36,1.29a4.36,4.36,0,0,1-.5.43,4.36,4.36,0,0,1,.43-.5l1.3-1.35c1.15-1.17,2.83-2.83,5-4.83,4.25-4,10.33-9.33,17.25-14.95,3.46-2.81,6.79-5.45,9.84-7.81a16.92,16.92,0,0,1,4.65-3c1.73-.35,3.24-.69,4.68-1,2.84-.66,5.16-1.14,6.78-1.38a11.92,11.92,0,0,1,1.88-.16,1.36,1.36,0,0,1,.5.05Z" style="fill:#455a64"></path><path d="M226.92,373.7a2.94,2.94,0,0,1-.6-.33l-1.66-1-6-3.88-8.94-5.79A94.16,94.16,0,0,0,198.5,356a33.52,33.52,0,0,0-6.35-2.16,10.47,10.47,0,0,1-3-1.27,8.25,8.25,0,0,1-2.12-2.31,9,9,0,0,0-4.35-3.34,16.75,16.75,0,0,0-4.78-1c-3-.2-5.48-.1-7.18-.27-.84-.07-1.5-.16-1.94-.24a4.07,4.07,0,0,1-.66-.16,3.74,3.74,0,0,1,.67.06c.45.05,1.1.12,1.95.16,1.69.11,4.13-.05,7.18.11a16.94,16.94,0,0,1,4.9,1,10.57,10.57,0,0,1,2.48,1.31,9.2,9.2,0,0,1,2.08,2.14,7.86,7.86,0,0,0,2,2.19,9.73,9.73,0,0,0,2.88,1.2,33.88,33.88,0,0,1,6.43,2.18,90.74,90.74,0,0,1,11.21,6.71l8.88,5.88,6,4,1.61,1.11A4.44,4.44,0,0,1,226.92,373.7Z" style="fill:#455a64"></path><polygon points="235.51 405.3 219.46 400.33 227.86 374.7 245.08 381.32 235.51 405.3" style="fill:#ffbf9d"></polygon><path d="M242.92,381.39l24.9,10.35,8,.14a4.55,4.55,0,0,1,4.45,4.62L279.43,443s-5.55.71-6.88-2.6S259,413.31,259,413.31l-23.54-8.05Z" style="fill:#e0e0e0"></path><path d="M242.92,381.39s0,.15-.12.44l-.37,1.24c-.33,1.11-.82,2.7-1.44,4.76l-5.38,17.48-.1-.21,23.56,8,.08,0,0,.08c2.6,5.09,5.37,10.53,8.27,16.23,1.43,2.86,2.9,5.78,4.35,8.79.36.74.7,1.54,1.05,2.28a3.46,3.46,0,0,0,1.66,1.61,9.48,9.48,0,0,0,4.88.66l-.21.24v-.28c.23-11.95.45-23.34.65-33.72.05-2.59.1-5.13.15-7.59,0-1.23.05-2.44.07-3.64,0-.59,0-1.21,0-1.76a4.35,4.35,0,0,0-2.86-3.7A11,11,0,0,0,274,392l-6.19-.13h0l0,0-18.13-7.63-5-2.11-1.3-.56-.45-.2.43.16,1.28.51,5,2,18.3,7.51-.06,0,6.2.1,1.63,0a5.16,5.16,0,0,1,1.69.28,4.73,4.73,0,0,1,2.62,2.28,4.65,4.65,0,0,1,.51,1.75c0,.63,0,1.19,0,1.8,0,1.19,0,2.41-.06,3.64q-.07,3.69-.13,7.59c-.19,10.38-.4,21.77-.61,33.72,0,.09,0,.19,0,.27v.22l-.2,0a10,10,0,0,1-5.15-.71,4,4,0,0,1-1.88-1.84c-.36-.78-.69-1.52-1.05-2.28-1.44-3-2.9-5.92-4.34-8.78l-8.23-16.24.12.1-23.53-8.09-.15-.06.05-.15,5.58-17.53,1.51-4.69c.17-.52.3-.92.39-1.21S242.92,381.39,242.92,381.39Z" style="fill:#263238"></path><path d="M241.31,377.5l7,3.42a2.11,2.11,0,0,1,1.06,2.62L241,406.61a2.13,2.13,0,0,1-2.51,1.33l-6.67-1.7a2.1,2.1,0,0,1-1.47-2.75l9-25.17A1.44,1.44,0,0,1,241.31,377.5Z" style="fill:#e0e0e0"></path><path d="M241.31,377.5a2,2,0,0,0-.77-.09,1.38,1.38,0,0,0-.81.39,2.76,2.76,0,0,0-.55,1.14c-.66,1.91-1.6,4.6-2.75,7.91l-4.13,11.72L231.1,402c-.2.57-.4,1.15-.61,1.73a1.92,1.92,0,0,0,.28,1.61,1.85,1.85,0,0,0,.63.55,3.47,3.47,0,0,0,.86.28l1.9.48,3.87,1a3.38,3.38,0,0,0,.93.18,1.81,1.81,0,0,0,.86-.2,1.84,1.84,0,0,0,.67-.57,3.36,3.36,0,0,0,.38-.83c.45-1.24.9-2.45,1.34-3.65.88-2.38,1.72-4.68,2.53-6.88,1.62-4.37,3.08-8.32,4.32-11.65a3.16,3.16,0,0,0,.3-1.18,2,2,0,0,0-.32-1.08c-.4-.64-1.18-.84-1.79-1.18L244,378.93l-2-1a5.11,5.11,0,0,1-.69-.39,4.43,4.43,0,0,1,.74.3l2.06,1,3.26,1.54,1,.47a2.27,2.27,0,0,1,.94.78,2.3,2.3,0,0,1,.39,1.24,3.4,3.4,0,0,1-.31,1.31c-1.2,3.34-2.63,7.29-4.22,11.68-.8,2.2-1.63,4.51-2.5,6.9-.44,1.19-.88,2.41-1.33,3.64a3.55,3.55,0,0,1-.45.95,2.27,2.27,0,0,1-.83.71,2.42,2.42,0,0,1-1.08.26,2.51,2.51,0,0,1-.55-.07l-.5-.13-3.87-1-1.89-.48a3.93,3.93,0,0,1-1-.32,2.53,2.53,0,0,1-.79-.7,2.31,2.31,0,0,1-.34-2c.21-.62.42-1.18.62-1.76.42-1.15.82-2.28,1.22-3.38l4.23-11.68,2.89-7.86a2.71,2.71,0,0,1,.62-1.18,1.53,1.53,0,0,1,.9-.39,1.48,1.48,0,0,1,.6.09C241.26,377.45,241.31,377.49,241.31,377.5Z" style="fill:#263238"></path><path d="M247.85,386.42a10.68,10.68,0,0,0-10.31-3.13c0,.18,2.52-.18,5.41.72A24.62,24.62,0,0,1,247.85,386.42Z" style="fill:#263238"></path><path d="M245.15,395.13a36.62,36.62,0,0,0-10.38-4.08,39.84,39.84,0,0,0,5.15,2.15A40.49,40.49,0,0,0,245.15,395.13Z" style="fill:#263238"></path><path d="M241.5,404.17c0-.18-2.62-.24-5.3-1.85s-4-3.84-4.19-3.73a3.63,3.63,0,0,0,.81,1.5,10.79,10.79,0,0,0,3.09,2.73,10.58,10.58,0,0,0,3.88,1.36A3.77,3.77,0,0,0,241.5,404.17Z" style="fill:#263238"></path><path d="M279.93,401.78c0-.09-.84-.2-2.12-.65a11.92,11.92,0,0,1-7.33-7.13c-.49-1.27-.62-2.12-.71-2.1a5.15,5.15,0,0,0,.34,2.23,11,11,0,0,0,7.58,7.37A5.23,5.23,0,0,0,279.93,401.78Z" style="fill:#263238"></path><path d="M279.67,429.9a3.48,3.48,0,0,0-1.62-.45,7.19,7.19,0,0,0-4,.74,9.83,9.83,0,0,0-3.12,2.59c-.65.81-.95,1.37-.89,1.41s.48-.43,1.18-1.15a12.23,12.23,0,0,1,3.07-2.36,8,8,0,0,1,3.73-.84A9.69,9.69,0,0,0,279.67,429.9Z" style="fill:#263238"></path><path d="M225.83,369.63c-.12.05-.75-1.45-2.05-3.71a40,40,0,0,0-14.11-14.37c-2.24-1.35-3.72-2-3.67-2.12a3.58,3.58,0,0,1,1.09.34,23.34,23.34,0,0,1,2.83,1.34,35,35,0,0,1,8.24,6.22,35.41,35.41,0,0,1,6.06,8.34,22.67,22.67,0,0,1,1.28,2.86A3.62,3.62,0,0,1,225.83,369.63Z" style="fill:#455a64"></path><path d="M271.73,353.37a26,26,0,0,1-2.65,2.54c-1.65,1.54-3.87,3.73-6.15,6.32s-4.15,5.07-5.47,6.91a23.91,23.91,0,0,1-2.18,2.95,15,15,0,0,1,1.76-3.23,58.8,58.8,0,0,1,11.71-13.33A14.45,14.45,0,0,1,271.73,353.37Z" style="fill:#455a64"></path><polygon points="289.58 307.71 291.29 275.87 267.08 280.78 271.87 323.87 286.29 344.91 301.53 338.81 289.58 307.71" style="fill:#ffbf9d"></polygon><path d="M287,306a32.48,32.48,0,0,0-5,.69,34.11,34.11,0,0,0-4.65,1.94,9.41,9.41,0,0,1,4.51-2.44A9.28,9.28,0,0,1,287,306Z" style="fill:#ff9a6c"></path><path d="M318.62,321.7l-16.21-5.55a1.74,1.74,0,0,0-1.55.2l-33,22a1.76,1.76,0,0,0,.49,3.16l17.06,5a1.77,1.77,0,0,0,1.47-.22L319,324.84A1.77,1.77,0,0,0,318.62,321.7Z" style="fill:#455a64"></path><path d="M301.43,327.54s.68-.12,2.73,1.63,3,3,3.42,4.88a8.32,8.32,0,0,1-.91,5,30.33,30.33,0,0,1-2.58,2.94s.05,2.88-2,3.92l-2.11,1a3.55,3.55,0,0,1-3.47,2l-2.41.36s-2.07,1.29-3,.42-9.88-7.35-10.81-9.47-.33-2.41-.33-2.41-3.14-.95-1.5-3.11,4.35-.27,6.78,1.1,9.68,4.35,9.68,4.35-5.62-9.07-5.25-10.3,2.71-2.83,4.75-.43,6,8.84,6.67,8.43l2.18-2.49s-3.55-5.18-3.57-6.67S301.43,327.54,301.43,327.54Z" style="fill:#ffbf9d"></path><path d="M291.9,346a8.18,8.18,0,0,1-2-.85,45.87,45.87,0,0,1-4.49-2.66,44.38,44.38,0,0,1-4.16-3.14,8.73,8.73,0,0,1-1.55-1.52c.11-.12,2.64,2,6,4.23S292,345.89,291.9,346Z" style="fill:#407BFF"></path><polygon points="198.61 240.2 226.2 230.61 255.8 229.26 282.37 238.71 273.34 277.16 273.45 275.89 272.45 307.98 273.86 324.37 270.6 329.68 203.56 328.73 202.94 285.25 198.61 240.2" style="fill:#407BFF"></polygon><path d="M175.74,287.33s9.89-29.95,13.6-36.8a29.94,29.94,0,0,1,9.27-10.33l4.33,45.42.38,9.26Z" style="fill:#407BFF"></path><path d="M282.37,238.71s9.91,4,12.51,15c1.6,6.77,7.38,35.76,7.38,35.76H270.09l1.78-29.09Z" style="fill:#407BFF"></path><path d="M280,246.73a16.89,16.89,0,0,1-1.09,2.78c-.73,1.69-1.77,4-3,6.55-2.39,5.08-4.52,9.14-4.79,9,0,0,.5-1,1.27-2.68.85-1.82,1.89-4.05,3.05-6.51s2.29-4.84,3.11-6.48A17,17,0,0,1,280,246.73Z" style="fill:#263238"></path><path d="M201.33,257.15a7.46,7.46,0,0,1,.21,1.49c.1,1,.23,2.35.36,4.07.28,3.45.58,8.21.8,13.48s.33,10,.35,13.5c0,1.73,0,3.13,0,4.09a9.37,9.37,0,0,1-.08,1.5,7.51,7.51,0,0,1-.12-1.5c0-1.06-.09-2.43-.15-4.08-.13-3.55-.31-8.27-.5-13.49s-.47-9.93-.64-13.47c-.08-1.66-.15-3-.2-4.09A9,9,0,0,1,201.33,257.15Z" style="fill:#263238"></path><path d="M270.6,261.94a7.56,7.56,0,0,1,.35,1.37c.2.89.46,2.19.75,3.79a97,97,0,0,1,1.56,12.67,121.56,121.56,0,0,1-.09,12.76c-.09,1.63-.18,3-.26,3.86a6.89,6.89,0,0,1-.18,1.41,8.25,8.25,0,0,1,0-1.42c0-1,.05-2.31.1-3.86.08-3.26.18-7.76-.07-12.72a124.16,124.16,0,0,0-1.4-12.64c-.24-1.53-.43-2.81-.59-3.81A7,7,0,0,1,270.6,261.94Z" style="fill:#263238"></path><path d="M200.42,168.81a8.16,8.16,0,0,0-6.15,2.54c-2.7,2.85-1.2,7.65-1.2,7.65s-6,2.05-7,6.4c-1.91,3.24-1.21,12.35,2.34,13.65a11.45,11.45,0,0,0,3.88,8.4,9.29,9.29,0,0,0,6.25,8.73,17,17,0,0,0,2.62,4.66c3.35,3.94,9,1.75,9,1.75s4.7,5.45,6.85,5.57c15,.81,29.58-5.12,28.05-6.23,7,5.86,20.46.85,19.53-1.72,0,0,6.14.16,9.24-2.3,6.41-5.1,4.7-11.46,4.7-11.46a5.38,5.38,0,0,0,6.89-.88c1.74-1.81.87-5.18.87-5.18a4,4,0,0,0,.06-4.37c2.31-1.8,2.66-4.13.62-7.1,4.12-3.95-2.07-9.6-2.07-9.6a3.44,3.44,0,0,0,.8-5c2.53-2.16-.38-7.11-3.56-8.13-1.71-9-12-8.7-12-8.7a6.6,6.6,0,0,0-8.44-3.33c-1.9-2.62-10.13-4.16-15.33,0-9.76-12.07-21.58-10.55-30.27-4.4-6.87,4.86-7.07,10.6-8.12,13.76A8.12,8.12,0,0,0,200.42,168.81Z" style="fill:#263238"></path><circle cx="213.97" cy="197.58" r="12.03" transform="translate(-59.63 97.76) rotate(-22.68)" style="fill:#455a64"></circle><path d="M221.24,197.58c-.06,0,0-.65-.33-1.75a7.22,7.22,0,0,0-2.65-3.88,7,7,0,1,0-6.69,12.24,7.14,7.14,0,0,0,9.34-4.86c.3-1.1.27-1.75.33-1.75a1.43,1.43,0,0,1,0,.47,5.43,5.43,0,0,1-.16,1.33,7.25,7.25,0,0,1-2.63,4.13,7.41,7.41,0,0,1-3.13,1.43,7.56,7.56,0,0,1-3.94-.3,7.36,7.36,0,0,1-3.5-2.61,7.47,7.47,0,0,1,0-8.9,7.44,7.44,0,0,1,10.57-1.47,7.26,7.26,0,0,1,2.63,4.12,5.5,5.5,0,0,1,.16,1.34A1.38,1.38,0,0,1,221.24,197.58Z" style="fill:#263238"></path><path d="M232.72,160.94l1.6-1.53,17.34,7a4.84,4.84,0,0,1,4.57,4.69l-.15,56.48a15.85,15.85,0,0,1-3.06,10.2L250.59,241c-5.56,7.33-17,6.72-21.37-1.35a6,6,0,0,1-.61-1.46,10.64,10.64,0,0,1-.26-1.27c-.52-4.54-.55-8.48-.55-8.48-.31-5-.41-7-.41-7s-10.62-1.22-13.49-14.85c-1.43-6.78-1.16-16.11-.75-25.28C213.7,168.6,222.51,160.93,232.72,160.94Z" style="fill:#ffbf9d"></path><path d="M236.27,190.6a1.78,1.78,0,0,0,1.79,1.7,1.7,1.7,0,0,0,1.74-1.68,1.77,1.77,0,0,0-1.79-1.7A1.7,1.7,0,0,0,236.27,190.6Z" style="fill:#263238"></path><path d="M218.35,190.6a1.78,1.78,0,0,0,1.79,1.7,1.7,1.7,0,0,0,1.74-1.68,1.78,1.78,0,0,0-1.79-1.7A1.7,1.7,0,0,0,218.35,190.6Z" style="fill:#263238"></path><path d="M215,184.94c.23.21,1.51-.84,3.41-.93s3.33.79,3.53.55-.15-.52-.78-.93a4.88,4.88,0,0,0-2.84-.72,4.64,4.64,0,0,0-2.7,1C215,184.41,214.85,184.84,215,184.94Z" style="fill:#263238"></path><path d="M234.2,185.13c.25.2,1.42-1,3.3-1.27s3.4.44,3.56.18-.19-.49-.86-.84a4.85,4.85,0,0,0-2.9-.42,4.65,4.65,0,0,0-2.58,1.29C234.21,184.6,234.08,185.05,234.2,185.13Z" style="fill:#263238"></path><path d="M227.58,198.93a13.33,13.33,0,0,0-3.11-.4c-.49,0-.95-.1-1.05-.42a2.51,2.51,0,0,1,.25-1.45c.4-1.2.81-2.45,1.25-3.76,1.72-5.35,3-9.74,2.73-9.81s-1.79,4.22-3.51,9.57c-.42,1.31-.81,2.57-1.19,3.77a2.82,2.82,0,0,0-.16,1.92,1.2,1.2,0,0,0,.84.66,3.59,3.59,0,0,0,.82.08A12.51,12.51,0,0,0,227.58,198.93Z" style="fill:#263238"></path><path d="M227.39,221.44a35.06,35.06,0,0,0,18.16-5.83s-4.15,9.74-18,9.14Z" style="fill:#ff9a6c"></path><path d="M228.61,203.46a3.41,3.41,0,0,1,3-1.42,3.14,3.14,0,0,1,2.21,1.05,2,2,0,0,1,.26,2.25,2.26,2.26,0,0,1-2.45.75,7.09,7.09,0,0,1-2.5-1.32,2.22,2.22,0,0,1-.57-.53.64.64,0,0,1,0-.71" style="fill:#ff9a6c"></path><path d="M233.22,200c-.31,0-.21,2.05-1.9,3.6s-3.89,1.43-3.89,1.72c0,.13.51.38,1.44.36a5.19,5.19,0,0,0,3.25-1.32,4.48,4.48,0,0,0,1.46-3C233.62,200.45,233.36,200,233.22,200Z" style="fill:#263238"></path><path d="M232.38,177.74c.27.48,2.1-.05,4.35-.12s4.11.26,4.33-.25c.1-.24-.28-.67-1.08-1.05a7.58,7.58,0,0,0-6.61.28C232.61,177.05,232.27,177.51,232.38,177.74Z" style="fill:#263238"></path><path d="M215.23,176.79c.36.41,1.64-.1,3.21-.2s2.92.14,3.2-.32c.12-.23-.11-.65-.71-1a4.49,4.49,0,0,0-2.65-.57,4.43,4.43,0,0,0-2.51,1C215.23,176.13,215.07,176.59,215.23,176.79Z" style="fill:#263238"></path><path d="M253.49,194.3c-.05-1,1-3.5,2-3.7,2.67-.56,7.55-.59,7.94,6.26.53,9.37-9,8-9,7.7S253.66,197.83,253.49,194.3Z" style="fill:#ffbf9d"></path><path d="M257.1,200.85s.16.11.45.22a1.68,1.68,0,0,0,1.22,0c1-.42,1.71-2,1.66-3.72a5.29,5.29,0,0,0-.59-2.31,1.88,1.88,0,0,0-1.3-1.19.83.83,0,0,0-.93.5c-.11.27,0,.46-.09.48s-.21-.15-.16-.54a1.05,1.05,0,0,1,.34-.61,1.22,1.22,0,0,1,.88-.29,2.29,2.29,0,0,1,1.79,1.36,5.5,5.5,0,0,1,.71,2.58c.05,1.89-.81,3.71-2.15,4.18a1.75,1.75,0,0,1-1.5-.17C257.12,201.08,257.06,200.87,257.1,200.85Z" style="fill:#ff9a6c"></path><path d="M217.77,197.62q-.41,0-.81,0a7.21,7.21,0,0,1-5.37-2.73c-2.65-3.46-1.7-8.86-1.65-9.09l0-.24.22-.11c.12-.06,2.83-1.38,8.07-.65s7,3.18,7,3.28l.08.13v.15c0,.21-.09,5-3,7.61A6.65,6.65,0,0,1,217.77,197.62Zm-6.89-11.4c-.15,1.09-.56,5.33,1.51,8a6.21,6.21,0,0,0,4.65,2.34,5.93,5.93,0,0,0,4.68-1.39c2.3-2.09,2.63-5.87,2.68-6.71-.39-.45-2.09-2.16-6.26-2.73A15,15,0,0,0,210.88,186.22Z" style="fill:#455a64"></path><path d="M237.43,198.06a6.78,6.78,0,0,1-4.71-1.71c-3-2.73-3.13-7.69-3.13-7.9v-.15l.08-.13c.07-.11,1.79-2.64,7.29-3.4s8.23.62,8.34.68l.24.12,0,.27c0,.24.65,6.06-2.23,9.6a7.07,7.07,0,0,1-5,2.58C238,198.05,237.72,198.06,237.43,198.06Zm-6.83-9.45c0,.86.38,4.83,2.79,7a6.73,6.73,0,0,0,9.18-.8c2.28-2.79,2.12-7.38,2-8.57a15.71,15.71,0,0,0-7.52-.48C232.75,186.37,231,188.14,230.6,188.61Z" style="fill:#455a64"></path><path d="M230,188.71a4.56,4.56,0,0,0-2.47-1.17,2.12,2.12,0,0,0-2.08,1l-.9-.43a3.1,3.1,0,0,1,3.07-1.58,5.52,5.52,0,0,1,3,1.4Z" style="fill:#455a64"></path><path d="M257.54,164.14c-1.62-2.59-4.57-4-7.37-5.22-6.06-2.71-12.53-5.48-19.12-4.58-5.47.74-10.26,3.93-14.83,7l.32,5.6a7.55,7.55,0,0,0,9.9,3.5,4.72,4.72,0,0,0,8.43-1.17,9.77,9.77,0,0,0,10.12,4,7.86,7.86,0,0,0-1.51,5.94c.45,2.05,2.37,3.85,4.46,3.64-.31,2.21-.61,4.51.1,6.63s2.74,4,5,3.68a4.84,4.84,0,0,0,3.41-2.55,12.35,12.35,0,0,0,1.25-4.21c.7-4.29,1-8.62,1.25-12.95C259.1,170.32,259.25,166.86,257.54,164.14Z" style="fill:#263238"></path><path d="M276.16,192.79a21.88,21.88,0,0,0,.17-3.28,13.33,13.33,0,0,0-3.14-7.92l-.09-.1,0-.13a7.65,7.65,0,0,0-.43-6.8A7.46,7.46,0,0,0,266,171a8.21,8.21,0,0,0-1.66.26l-.38.11L264,171a6.12,6.12,0,0,0-8.61-6.31l-.37.16.06-.4a5,5,0,0,0-1.59-4.45,4.77,4.77,0,0,0-3.52-1.18,5.25,5.25,0,0,0-2.35.72c-.49.3-.72.52-.74.49s0-.07.15-.17a3.45,3.45,0,0,1,.52-.43,5.08,5.08,0,0,1,2.4-.86,5,5,0,0,1,3.77,1.17,5.36,5.36,0,0,1,1.79,4.78l-.3-.23a6.58,6.58,0,0,1,9.3,6.78l-.33-.29a8.25,8.25,0,0,1,1.79-.28,8,8,0,0,1,7.2,3.86,8.08,8.08,0,0,1,.4,7.23l0-.23a13.27,13.27,0,0,1,3.07,8.19,12.32,12.32,0,0,1-.2,2.45A5.38,5.38,0,0,1,276.16,192.79Z" style="fill:#455a64"></path><rect x="250.58" y="181.73" width="1" height="12.82" transform="translate(-13.15 357.31) rotate(-69.47)" style="fill:#455a64"></rect><polygon points="256.66 189.36 255.06 176.88 256.05 176.75 257.52 188.23 259.81 187.91 257.98 174.72 258.97 174.59 260.94 188.76 256.66 189.36" style="fill:#e0e0e0"></polygon><path d="M255,177.94s-2.28-18.75-8.47-23.77L244,151.43a11.52,11.52,0,0,1,7.06,1.25c3.69,1.94,6.15,10.25,8,22Z" style="fill:#455a64"></path><circle cx="260.38" cy="195.39" r="12.03" style="fill:#455a64"></circle><path d="M267.65,195.39c-.06,0,0-.65-.32-1.75a7.29,7.29,0,0,0-2.66-3.89,7,7,0,1,0-3,12.57,7.15,7.15,0,0,0,3-1.3,7.31,7.31,0,0,0,2.66-3.88c.29-1.11.26-1.76.32-1.75a1.38,1.38,0,0,1,0,.46,5.5,5.5,0,0,1-.16,1.34,7.21,7.21,0,0,1-2.63,4.12,7.29,7.29,0,0,1-3.13,1.43,7.46,7.46,0,0,1-3.94-.3,7.34,7.34,0,0,1-3.5-2.6,7.47,7.47,0,0,1,0-8.9,7.36,7.36,0,0,1,3.5-2.61,7.56,7.56,0,0,1,3.94-.3,7.36,7.36,0,0,1,5.76,5.56,5.43,5.43,0,0,1,.16,1.33A1.43,1.43,0,0,1,267.65,195.39Z" style="fill:#263238"></path><path d="M179.72,288.42s-4,20.49-4,29.76,7.72,15.77,15.45,13,17.4-15.28,22.26-25.35l-8-8.35-7.11,4.18,2.23-7.57Z" style="fill:#ffbf9d"></path><path d="M205.41,297.47a5.34,5.34,0,0,1-1,.68l-2.75,1.69c-2.34,1.4-5.56,3.34-9.27,5.25-.94.47-1.85.91-2.79,1.27s-1.84.6-2.7.86a17,17,0,0,0-4.34,1.83,7.59,7.59,0,0,0-2.28,2.17c-.41.62-.55,1-.59,1s0-.11.06-.31a4.42,4.42,0,0,1,.36-.81,7.37,7.37,0,0,1,2.24-2.37,16.5,16.5,0,0,1,4.4-2c.86-.28,1.77-.54,2.67-.88a30,30,0,0,0,2.73-1.26c3.69-1.89,6.94-3.78,9.33-5.1,1.18-.66,2.15-1.19,2.83-1.55A5.52,5.52,0,0,1,205.41,297.47Z" style="fill:#ff9a6c"></path><path d="M231.2,279s1.84-2.69,3.68-2.77,2.13,2.91.36,5.32a30.81,30.81,0,0,1-4,4.4Z" style="fill:#ffbf9d"></path><path d="M213.45,305.82l4.78-5.16s6.17-3.83,6.91-9,2-13.4,2-13.4l-16.77-1.71-2.67,13.57-.4,5.82-1.92,1.54Z" style="fill:#ffbf9d"></path><polygon points="212.12 264.62 213.4 295.89 230.66 296.23 234.67 265.74 212.12 264.62" style="fill:#455a64"></polygon><path d="M211,293.81s7.78-.24,8.27-4.93c0,0,3.3.24,3.3-1.85,0-1.86-2.09-2.52-2.09-2.52s2-.92,1.61-2.55c-.59-2.38-9.38-4.17-9.38-4.17l-.2-2.74s4-.22,3.83-2.34c-.14-1.88-2.46-1.85-3.36-2-.48-.06-5.47-.67-6,2.62a2,2,0,0,0,.11,1l1,3s-3,1.41-1.49,5.29l.54.94s-2.37,3.94-1.51,7.52a11.23,11.23,0,0,1-.21,6.29" style="fill:#ffbf9d"></path><path d="M205.41,297.47s.09-.33.22-1a12.64,12.64,0,0,0,.21-2.8,13.1,13.1,0,0,0-.25-2,8.73,8.73,0,0,1-.31-2.43,12.9,12.9,0,0,1,1.67-5.7v.2c-.17-.28-.35-.61-.54-.93v0h0a5.3,5.3,0,0,1-.36-3,3.86,3.86,0,0,1,1.95-2.6l-.12.28-.64-1.83-.32-.93a3.17,3.17,0,0,1-.24-1.06,3,3,0,0,1,.87-2,4.29,4.29,0,0,1,2-1,12.16,12.16,0,0,1,4.46,0,3.26,3.26,0,0,1,2.18,1,2.08,2.08,0,0,1,.41,1.22,1.71,1.71,0,0,1-.48,1.22,3.76,3.76,0,0,1-1.73,1,8.55,8.55,0,0,1-1.87.34l.25-.28c.06.92.13,1.84.2,2.74l-.21-.23a35.67,35.67,0,0,1,6.95,2.16,8.79,8.79,0,0,1,1.52.87,2.59,2.59,0,0,1,1.1,1.42,2,2,0,0,1-.44,1.7,4,4,0,0,1-1.32,1l0-.42a3.69,3.69,0,0,1,1.78,1.31,2.33,2.33,0,0,1,.32,2.1,2.21,2.21,0,0,1-1.58,1.2,5.93,5.93,0,0,1-1.81.16l.19-.16a4.62,4.62,0,0,1-.94,2.19,5.89,5.89,0,0,1-1.63,1.32,10.78,10.78,0,0,1-3.11,1.11,13.83,13.83,0,0,1-2.05.29,2.64,2.64,0,0,1-.72,0l.71-.1a19.19,19.19,0,0,0,2-.38,11.2,11.2,0,0,0,3-1.16,5.7,5.7,0,0,0,1.52-1.28,4.1,4.1,0,0,0,.83-2l0-.16h.16a5.78,5.78,0,0,0,1.69-.17,1.79,1.79,0,0,0,1.3-1,1.91,1.91,0,0,0-.28-1.7,3.29,3.29,0,0,0-1.57-1.13l-.5-.18.47-.24c.83-.41,1.71-1.25,1.48-2.22a2.23,2.23,0,0,0-.92-1.13,9.56,9.56,0,0,0-1.44-.81,35.57,35.57,0,0,0-6.85-2.1l-.19,0,0-.19c-.06-.9-.13-1.82-.2-2.74l0-.26.26,0a8.8,8.8,0,0,0,1.75-.31,3.27,3.27,0,0,0,1.49-.81,1.36,1.36,0,0,0,0-1.76,2.75,2.75,0,0,0-1.84-.8,11.56,11.56,0,0,0-4.27,0,3.66,3.66,0,0,0-1.74.89,2.55,2.55,0,0,0-.73,1.66,8.07,8.07,0,0,0,.52,1.85q.33.93.63,1.83l.07.19-.19.1a3.38,3.38,0,0,0-1.71,2.27,4.9,4.9,0,0,0,.31,2.74v0c.18.33.37.65.53.94l.06.1-.06.11a12.51,12.51,0,0,0-1.7,5.5,8.62,8.62,0,0,0,.26,2.37,12.08,12.08,0,0,1,.21,2.05,11.1,11.1,0,0,1-.33,2.84,6.36,6.36,0,0,1-.22.71C205.46,297.4,205.42,297.48,205.41,297.47Z" style="fill:#ff9a6c"></path><polygon points="234.62 263.32 233.96 260.28 213.07 260.28 212.33 263.2 210.18 263.41 210.23 265.9 236.25 266.16 236.43 263.32 234.62 263.32" style="fill:#263238"></polygon><path d="M219.22,288.88a5.6,5.6,0,0,1-1.81.14l-4.34-.09a16.67,16.67,0,0,0-2.36,0,4.2,4.2,0,0,0-1.75.56c-.87.59-1.09,1.32-1.18,1.26a2.18,2.18,0,0,1,1-1.56,4.07,4.07,0,0,1,1.9-.73,13.84,13.84,0,0,1,2.43-.07c1.7,0,3.24.15,4.35.24A7.83,7.83,0,0,1,219.22,288.88Z" style="fill:#ff9a6c"></path><path d="M207.13,283.66c-.06,0,.41-.77,1.69-1.23a4.36,4.36,0,0,1,2.31.07c.78.16,1.74.25,2.69.44,1.92.35,3.62.76,4.86,1.05a8.3,8.3,0,0,1,2,.56,8.2,8.2,0,0,1-2.06-.2c-1.26-.19-3-.56-4.89-.9-.95-.19-1.84-.29-2.7-.49a4.38,4.38,0,0,0-2.1-.17A7.42,7.42,0,0,0,207.13,283.66Z" style="fill:#ff9a6c"></path><path d="M213.45,278.05a18.33,18.33,0,0,1-2.68-.28,10.62,10.62,0,0,1-2.69-.34,5.62,5.62,0,0,1,2.74-.18A4.63,4.63,0,0,1,213.45,278.05Z" style="fill:#ff9a6c"></path><path d="M213.15,274.78c.06.13-.86.62-2.1.84a3.68,3.68,0,0,1-2.27-.07,7.91,7.91,0,0,1,2.18-.44A7.8,7.8,0,0,1,213.15,274.78Z" style="fill:#ff9a6c"></path><path d="M215.07,301.13a9.55,9.55,0,0,0-1.11-3.94,9.43,9.43,0,0,0-3.06-2.72c0-.06.51,0,1.23.35a5.85,5.85,0,0,1,3.16,5.05C215.29,300.67,215.13,301.14,215.07,301.13Z" style="fill:#ff9a6c"></path><path d="M235.19,263.21c0,.14-5.2.26-11.61.26s-11.62-.12-11.62-.26,5.2-.26,11.62-.26S235.19,263.06,235.19,263.21Z" style="fill:#455a64"></path><path d="M407.83,398.35h18.53A4.65,4.65,0,0,1,431,403v.36a4.65,4.65,0,0,1-4.65,4.65H407.83a0,0,0,0,1,0,0v-9.65A0,0,0,0,1,407.83,398.35Z" style="fill:#263238"></path><path d="M431,403.67l0-1c4-.23,6.44-1.58,7-3.92a6.46,6.46,0,0,0-2.53-6.16c-4.49-2.44-17.62-3-22.57-3.19-25-1-39.28-1.4-63.07-1-11,.15-21.82-3.43-29-9.65-3.16-2.73-5-6.56-6.88-10.26-2-4-3.87-7.83-7.24-10.4-5.86-4.48-14.12-3.57-21.44-2.08l-.82.17c-7.38,1.51-15,3.08-21.73-.15-5.46-2.63-5.46-6.79-5.45-12.54v-.69c0-3.71-.12-7.27-.25-10.72-.09-2.7-.18-5.24-.22-7.83-.24-19,.64-39.38,1.49-59.07s1.73-40,1.49-59l1,0c.24,19-.64,39.38-1.49,59.07s-1.73,40-1.49,59c0,2.58.13,5.12.22,7.81.13,3.46.25,7,.25,10.76v.69c0,5.59,0,9.28,4.89,11.64,6.4,3.08,13.87,1.55,21.09.07L285,355c7.52-1.53,16.06-2.46,22.24,2.26,3.55,2.72,5.57,6.8,7.53,10.76,1.78,3.61,3.63,7.34,6.63,9.94,7,6.07,17.64,9.58,28.34,9.41,23.82-.39,38.12,0,63.13,1,5,.21,18.31.76,23,3.32a7.45,7.45,0,0,1,3,7.25C438.48,401,436.75,403.36,431,403.67Z" style="fill:#455a64"></path></g><g id="freepik--speech-bubble--inject-59"><path d="M315.29,304.39l8.85-3a28.44,28.44,0,1,0-7.87-6.44h0Z" style="fill:#fff"></path><path d="M315.29,304.39s0-.19,0-.59.09-1,.16-1.79c.15-1.64.37-4,.65-7.1a.12.12,0,0,1,.12-.11l.06,0h0l-.15.17a28.36,28.36,0,0,1-6.26-12.6,28.88,28.88,0,0,1,2.58-19,28.45,28.45,0,0,1,31-14.85,28,28,0,0,1,12.31,5.8c.45.38.91.74,1.35,1.13l1.23,1.24.62.61.55.67,1.1,1.34a29,29,0,0,1,5.71,18.75,28.47,28.47,0,0,1-3.32,11.85,28.83,28.83,0,0,1-7.26,8.79,28.51,28.51,0,0,1-18.14,6.35,28.21,28.21,0,0,1-13.59-3.6h.09l-6.65,2.2-1.68.55-.56.17.59-.22,1.7-.61,6.53-2.3a.1.1,0,0,1,.09,0,28.19,28.19,0,0,0,36.07-41.64l-1.08-1.31-.54-.66-.6-.6-1.22-1.22c-.42-.38-.88-.73-1.32-1.1A27.4,27.4,0,0,0,343.43,249,28.1,28.1,0,0,0,309.9,273.3a27.72,27.72,0,0,0,.36,9,28.39,28.39,0,0,0,6.09,12.52.11.11,0,0,1,0,.16.11.11,0,0,1-.14,0h0l.17-.08-.78,7-.21,1.83C315.32,304.17,315.29,304.39,315.29,304.39Z" style="fill:#263238"></path><path d="M328.41,272.31v9.45a.86.86,0,0,0,.46.76l5.33,2.79a.86.86,0,0,0,1.26-.76V268.46a.86.86,0,0,0-1.36-.7l-5.33,3.86A.84.84,0,0,0,328.41,272.31Z" style="fill:#263238"></path><path d="M340.49,286.15a1,1,0,0,1-.51-1.86,9,9,0,0,0,1.28-14.58,1,1,0,1,1,1.31-1.51A11,11,0,0,1,341,286,.94.94,0,0,1,340.49,286.15Z" style="fill:#263238"></path><path d="M337.51,283.23a1,1,0,0,1-.52-1.85,5.13,5.13,0,0,0,.73-8.28,1,1,0,1,1,1.31-1.51,7.13,7.13,0,0,1-1,11.5A1,1,0,0,1,337.51,283.23Z" style="fill:#263238"></path><path d="M343.75,288.85a1,1,0,0,1-.86-.49,1,1,0,0,1,.34-1.37A12.37,12.37,0,0,0,345,267a1,1,0,0,1,1.31-1.51,14.38,14.38,0,0,1-2,23.21A1.06,1.06,0,0,1,343.75,288.85Z" style="fill:#263238"></path><rect x="322.62" y="271.87" width="4.63" height="10.36" rx="1.05" style="fill:#263238"></rect></g><g id="freepik--hot-air-balloon--inject-59"><path d="M35.29,306.41A33.3,33.3,0,0,0,31.7,310a21,21,0,0,0,.42,27.84,36.88,36.88,0,0,0,7.66,6.54c9.16,5.76,16,12,18.73,15.52l10.84-2.67s-1-7.9.37-12.94S76.9,323.81,76,314.17c-.58-6.21-6.92-14.31-19.54-15A30.22,30.22,0,0,0,35.29,306.41Z" style="fill:#407BFF"></path><polygon points="62.68 371.42 72.49 369.03 73.12 378.36 66.92 380.33 62.68 371.42" style="fill:#455a64"></polygon><path d="M63.2,371.35a60,60,0,0,1-2.48-5.69c-1.3-3.17-2.29-5.77-2.21-5.8s1.19,2.52,2.49,5.69S63.28,371.32,63.2,371.35Z" style="fill:#263238"></path><path d="M71.83,369.14c-.08,0-.72-2.76-1.42-6.21s-1.2-6.25-1.12-6.27.72,2.76,1.42,6.21S71.91,369.12,71.83,369.14Z" style="fill:#263238"></path><g style="opacity:0.4"><path d="M37.68,304.63c-.28.28-.08,7.8.91,12.13,3.33,14.54,11.59,24.17,20,36.49,1.2,1.76,3.48,5.84,3.42,5.75a38.48,38.48,0,0,0,5.17-1.27s-.22-5.34-.61-7.79c-1.52-9.79-1.48-18.53-3.9-28.15s-4.3-18.36-13.47-22.11C49.19,299.68,40.79,301.49,37.68,304.63Z"></path></g><path d="M76.92,315.12l-.29-.13c-.18-.08-.44-.23-.8-.38a14.93,14.93,0,0,0-8.37-1.08A14.23,14.23,0,0,0,61.33,316l0,0h-.06a33.76,33.76,0,0,0-6-.72,19.66,19.66,0,0,0-6.52.86,14,14,0,0,0-5.57,3.38,10.62,10.62,0,0,0-2.91,5.14l0,.11H40.1a10.86,10.86,0,0,0-9.57,5.93,10.89,10.89,0,0,0-1.06,3.18c-.07.38-.11.68-.13.88s0,.31,0,.31a1.23,1.23,0,0,1,0-.31,8,8,0,0,1,.08-.9,10.6,10.6,0,0,1,1-3.23,10.85,10.85,0,0,1,3.35-4,11.21,11.21,0,0,1,6.35-2.12l-.13.11a10.88,10.88,0,0,1,3-5.3,14.23,14.23,0,0,1,5.68-3.46,20.1,20.1,0,0,1,6.62-.87,35.23,35.23,0,0,1,6.05.75l-.11,0a14.35,14.35,0,0,1,6.26-2.44,15,15,0,0,1,5.22.14,13.86,13.86,0,0,1,3.21,1.08c.36.16.62.33.79.42A1.34,1.34,0,0,1,76.92,315.12Z" style="fill:#263238"></path><path d="M72.05,337A6.09,6.09,0,0,0,70,336a5.78,5.78,0,0,0-2.62-.08,5.29,5.29,0,0,0-2.93,1.61l-.08.09-.1-.08a8.7,8.7,0,0,0-3.74-1.74,8.52,8.52,0,0,0-4.61.35,8.71,8.71,0,0,0-5.1,5.11l0,.09h-.11a6.12,6.12,0,0,0-3.77.91,6.84,6.84,0,0,0-2.21,2.12,7,7,0,0,0-1,2.53s0-.07,0-.19,0-.3.08-.53a6,6,0,0,1,.77-1.89,6.85,6.85,0,0,1,2.23-2.23,6.44,6.44,0,0,1,3.92-1l-.14.09a8.9,8.9,0,0,1,5.25-5.3,8.71,8.71,0,0,1,4.77-.34,8.84,8.84,0,0,1,3.85,1.82h-.18a5.48,5.48,0,0,1,3.08-1.64,6,6,0,0,1,2.7.14,5.36,5.36,0,0,1,1.56.76c.16.12.27.23.35.29S72.05,337,72.05,337Z" style="fill:#263238"></path><path d="M72.77,371.9s-.16,0-.39.06a1.57,1.57,0,0,0-.75.72,2.92,2.92,0,0,1-.49.63,1.2,1.2,0,0,1-.91.3c-.68-.05-1.29-.45-2-.52a1,1,0,0,0-.83.29,5.38,5.38,0,0,0-.57.76,2.16,2.16,0,0,1-.65.66,1.64,1.64,0,0,1-.79.21,1.71,1.71,0,0,1-1.1-.34c-.22-.17-.28-.31-.27-.32s.12.1.34.23a1.84,1.84,0,0,0,1,.22,1.63,1.63,0,0,0,.67-.21,1.89,1.89,0,0,0,.55-.6,5.06,5.06,0,0,1,.59-.82,1.33,1.33,0,0,1,1.07-.38c.78.09,1.36.5,1.94.54a1,1,0,0,0,.73-.21,3.1,3.1,0,0,0,.47-.56,1.58,1.58,0,0,1,.9-.71C72.63,371.79,72.78,371.89,72.77,371.9Z" style="fill:#263238"></path><path d="M72.57,370.16a40,40,0,0,1-4.65,1.32,40,40,0,0,1-4.73,1,39.31,39.31,0,0,1,4.65-1.32A40,40,0,0,1,72.57,370.16Z" style="fill:#263238"></path><path d="M72.76,373s-.05.12-.15.34a3.65,3.65,0,0,1-.17.41,1.25,1.25,0,0,1-.4.47,2.48,2.48,0,0,1-1.46.56,2,2,0,0,1-.93-.19,3,3,0,0,0-.85-.31,2.06,2.06,0,0,0-1.51.74,3.7,3.7,0,0,1-1.24.92,1.4,1.4,0,0,1-1.06,0c-.24-.11-.31-.24-.3-.25s.12.08.34.14a1.39,1.39,0,0,0,.94-.08,3.75,3.75,0,0,0,1.13-.92,2.22,2.22,0,0,1,1.72-.84,3,3,0,0,1,1,.34,1.82,1.82,0,0,0,.8.18,2.44,2.44,0,0,0,1.35-.45,1.85,1.85,0,0,0,.59-.76C72.64,373.09,72.74,373,72.76,373Z" style="fill:#263238"></path></g><g id="freepik--Spacecraft--inject-59"><path d="M371.42,100.29l-2.07,4.14s24,12,47.28,11.2l.24-4.91Z" style="fill:#455a64"></path><path d="M375,104.36a.75.75,0,0,1-1,.37.75.75,0,0,1-.37-1,.75.75,0,0,1,1.37.63Z" style="fill:#fff"></path><path d="M385.25,108.31a.75.75,0,1,1-.37-1A.75.75,0,0,1,385.25,108.31Z" style="fill:#fff"></path><path d="M379.78,106.31a.76.76,0,1,1-.42-1A.77.77,0,0,1,379.78,106.31Z" style="fill:#fff"></path><path d="M390.91,110.07a.77.77,0,0,1-1,.37.75.75,0,0,1-.37-1,.75.75,0,0,1,1-.37A.76.76,0,0,1,390.91,110.07Z" style="fill:#fff"></path><path d="M404.35,113.05a.75.75,0,1,1-.37-1A.75.75,0,0,1,404.35,113.05Z" style="fill:#fff"></path><path d="M410.89,113.94a.75.75,0,0,1-1,.37.75.75,0,1,1,1-.37Z" style="fill:#fff"></path><path d="M397.38,111.77a.75.75,0,1,1-.37-1A.75.75,0,0,1,397.38,111.77Z" style="fill:#fff"></path><path d="M336.11,73.47c-.87,1.39,13.31,23.7,60.29,35.31C436.77,118.75,462,107,462,107Z" style="fill:#455a64"></path><g style="opacity:0.2"><path d="M336.11,73.47c-.87,1.39,13.31,23.7,60.29,35.31C436.77,118.75,462,107,462,107Z"></path></g><path d="M335.83,72.44c-1.26,4.64,25.92,16.09,60.72,25.58s64,13.43,65.29,8.8-25.92-16.08-60.71-25.58S337.09,67.81,335.83,72.44Z" style="fill:#455a64"></path><path d="M371.12,78.29s7.3-28.65,36.28-23.17,21.88,35.76,21.88,35.76S406.82,98.76,371.12,78.29Z" style="fill:#ebebeb"></path><path d="M371.12,78.29l.28.13.81.41,3,1.57,2.18,1.14c.81.41,1.73.8,2.69,1.25l3.12,1.44c1.1.52,2.32.93,3.58,1.45s2.56,1.08,4,1.51l4.42,1.45,4.83,1.29c1.68.39,3.43.72,5.22,1.09a77.21,77.21,0,0,0,11.5,1.06,44,44,0,0,0,12.41-1.48l-.2.21A38.32,38.32,0,0,0,428.63,74a24,24,0,0,0-8.15-12.9,26.42,26.42,0,0,0-6.37-3.71,36.59,36.59,0,0,0-6.81-2,34.06,34.06,0,0,0-13.07-.1,26.6,26.6,0,0,0-10.41,4.56,30.93,30.93,0,0,0-6.67,6.67,38.66,38.66,0,0,0-3.72,6.11,40.35,40.35,0,0,0-1.79,4.17l-.39,1.11a2.25,2.25,0,0,1-.13.38s0-.14.07-.39.18-.65.34-1.14a35.9,35.9,0,0,1,1.68-4.23,38.41,38.41,0,0,1,3.66-6.22,30.85,30.85,0,0,1,6.7-6.81,26.15,26.15,0,0,1,4.8-2.83,25.49,25.49,0,0,1,5.75-1.87,34.5,34.5,0,0,1,13.28,0,37.06,37.06,0,0,1,6.93,2,26.61,26.61,0,0,1,6.52,3.78,24.49,24.49,0,0,1,8.37,13.22A38.87,38.87,0,0,1,429.58,91l0,.17-.16,0a44.25,44.25,0,0,1-12.6,1.48,76.69,76.69,0,0,1-11.59-1.12c-1.8-.38-3.56-.72-5.24-1.12l-4.86-1.33-4.42-1.49c-1.43-.45-2.73-1.07-4-1.55s-2.48-1-3.57-1.5L380,83.07c-1-.47-1.87-.87-2.68-1.3l-2.2-1.22-3-1.67-.75-.43C371.19,78.35,371.11,78.3,371.12,78.29Z" style="fill:#263238"></path><path d="M393.57,58c.05.16-1.16.6-3,1.48-.46.22-1,.47-1.49.76s-1.07.61-1.65.95a34.55,34.55,0,0,0-3.55,2.55,34.09,34.09,0,0,0-3.16,3c-.44.5-.88,1-1.24,1.45s-.72.9-1,1.31c-1.21,1.65-1.86,2.75-2,2.68s.29-1.3,1.36-3.11c.28-.45.58-.94.95-1.44s.77-1,1.21-1.57a27.8,27.8,0,0,1,3.22-3.19,26.76,26.76,0,0,1,3.73-2.56c.62-.33,1.2-.65,1.76-.9s1.1-.48,1.59-.66C392.24,58,393.54,57.87,393.57,58Z" style="fill:#fff"></path><path d="M457.31,104.85a1.55,1.55,0,0,1-.24.16,6.07,6.07,0,0,1-.75.33,11,11,0,0,1-2.94.49,68.09,68.09,0,0,1-9.84-.15,67,67,0,0,1-9.72-1.57c-1.23-.29-2.21-.56-2.89-.76l-.77-.24-.27-.1.28.06.79.2c.68.17,1.66.42,2.89.69a74.84,74.84,0,0,0,9.7,1.5,75.56,75.56,0,0,0,9.82.21,11,11,0,0,0,2.93-.42C457,105,457.3,104.83,457.31,104.85Z" style="fill:#fff"></path><path d="M385.47,105.81a2.14,2.14,0,0,1-.31-.36,8.92,8.92,0,0,1-.71-1.07,11.87,11.87,0,0,1-.84-1.71,14.3,14.3,0,0,1-.67-2.23,15.62,15.62,0,0,1-.27-2.32,13.74,13.74,0,0,1,.09-1.91A9.84,9.84,0,0,1,383,95a1.52,1.52,0,0,1,.14-.45s-.12.66-.22,1.73a14,14,0,0,0,0,1.88,14.9,14.9,0,0,0,.28,2.28,17.06,17.06,0,0,0,.64,2.21,16.81,16.81,0,0,0,.78,1.71C385.1,105.25,385.5,105.78,385.47,105.81Z" style="fill:#263238"></path><path d="M385.64,98.78s-.12,0-.21.18a.32.32,0,0,0,0,.25.26.26,0,0,0,.22.14.25.25,0,0,0,.24-.12.31.31,0,0,0,0-.25c-.07-.15-.19-.17-.19-.2s.17-.08.32.11a.46.46,0,0,1,.08.41.43.43,0,0,1-.44.27.41.41,0,0,1-.4-.31.44.44,0,0,1,.11-.4C385.48,98.69,385.66,98.75,385.64,98.78Z" style="fill:#263238"></path><path d="M386.4,102.6s-.12,0-.21.18a.3.3,0,0,0,0,.24.26.26,0,0,0,.46,0,.31.31,0,0,0,0-.25c-.07-.15-.19-.17-.19-.2s.17-.08.32.11a.46.46,0,0,1,.08.41.43.43,0,0,1-.44.27.41.41,0,0,1-.4-.31.44.44,0,0,1,.11-.4C386.24,102.51,386.42,102.57,386.4,102.6Z" style="fill:#263238"></path><path d="M336.06,72.22a1.75,1.75,0,0,1,.37,0l1,0c.9,0,2.2.11,3.81.24,3.22.25,7.66.74,12.52,1.59S363,76,366.12,76.83c1.56.42,2.81.79,3.68,1.06l1,.32a2,2,0,0,1,.34.12,1.88,1.88,0,0,1-.36-.08l-1-.28c-.87-.24-2.13-.59-3.69-1-3.12-.81-7.46-1.83-12.32-2.68s-9.28-1.36-12.49-1.65c-1.61-.14-2.91-.25-3.81-.31l-1-.08A2.19,2.19,0,0,1,336.06,72.22Z" style="fill:#263238"></path><path d="M425.28,104.68a3.21,3.21,0,0,1-.41-.48l-1.08-1.36c-.91-1.15-2.19-2.72-3.66-4.4s-2.86-3.17-3.87-4.23L415.06,93a3.45,3.45,0,0,1-.42-.47,2.54,2.54,0,0,1,.48.41c.31.28.73.69,1.25,1.21,1.05,1,2.45,2.5,3.92,4.19s2.74,3.28,3.62,4.45l1,1.4A2.92,2.92,0,0,1,425.28,104.68Z" style="fill:#263238"></path><path d="M415.69,95.71s-.14.09-.2.3a.44.44,0,0,0,0,.35.38.38,0,0,0,.35.15.36.36,0,0,0,.31-.22.4.4,0,0,0,0-.34c-.1-.2-.26-.23-.26-.26s.21-.06.39.17a.6.6,0,0,1,.1.49.58.58,0,0,1-1,.1.53.53,0,0,1,0-.49C415.48,95.69,415.7,95.68,415.69,95.71Z" style="fill:#263238"></path><path d="M364,77.18s-.13.1-.2.31a.46.46,0,0,0,0,.34.4.4,0,0,0,.67-.07.44.44,0,0,0,0-.34c-.1-.2-.26-.22-.25-.26s.2-.06.38.17a.56.56,0,1,1-.94.6.58.58,0,0,1,0-.5C363.74,77.16,364,77.16,364,77.18Z" style="fill:#263238"></path><path d="M353.92,75.27s-.14.09-.2.3a.41.41,0,0,0,0,.34.38.38,0,0,0,.66-.06.4.4,0,0,0,0-.34c-.1-.2-.26-.23-.26-.26s.21-.06.39.17a.6.6,0,0,1,.1.49.55.55,0,0,1-.49.38.53.53,0,0,1-.55-.77C353.71,75.25,353.93,75.24,353.92,75.27Z" style="fill:#263238"></path><path d="M342.38,73.4s-.14.09-.2.3a.41.41,0,0,0,0,.34.36.36,0,0,0,.35.16.38.38,0,0,0,.31-.22.4.4,0,0,0,0-.34c-.1-.2-.27-.23-.26-.26s.21-.06.39.17a.6.6,0,0,1,.1.49.58.58,0,0,1-.49.38.56.56,0,0,1-.55-.28.53.53,0,0,1,0-.49C342.17,73.38,342.39,73.37,342.38,73.4Z" style="fill:#263238"></path><path d="M419.13,100.11s-.14.09-.2.3a.45.45,0,0,0,0,.34.37.37,0,0,0,.36.16.38.38,0,0,0,.31-.22.52.52,0,0,0,0-.35c-.11-.19-.27-.22-.26-.25s.2-.06.39.17a.56.56,0,0,1,.09.49.55.55,0,0,1-.48.38.59.59,0,0,1-.56-.28.56.56,0,0,1,0-.49C418.91,100.09,419.13,100.08,419.13,100.11Z" style="fill:#263238"></path></g><g id="freepik--Moon--inject-59"><path d="M43.76,108.23A48.62,48.62,0,1,0,92.65,59.9,48.61,48.61,0,0,0,43.76,108.23Z" style="fill:#407BFF"></path><path d="M83.61,125.36a10.58,10.58,0,1,0,10.65-10.52A10.59,10.59,0,0,0,83.61,125.36Z" style="fill:#407BFF"></path><g style="opacity:0.30000000000000004"><path d="M83.61,125.36a10.58,10.58,0,1,0,10.65-10.52A10.59,10.59,0,0,0,83.61,125.36Z"></path></g><path d="M82.46,125.46a10.25,10.25,0,0,0,10.13,10.61c5.83,0,10.23-5.06,10.26-10.89A9.89,9.89,0,0,0,92.72,115,10.23,10.23,0,0,0,82.46,125.46Z" style="fill:#407BFF"></path><g style="opacity:0.30000000000000004"><path d="M77,62.34A48.66,48.66,0,0,0,54.87,93.88,6,6,0,0,1,57,98.16c0,2-2.24,2.9-3,3.14,0,.71-.08,1.42-.08,2.14A48.88,48.88,0,0,0,55,114.12c.16.09,4.48,2.6,5,5.35a9.28,9.28,0,0,1-1.13,5.78c.38.78.78,1.56,1.21,2.32a48.91,48.91,0,0,0,14,15.6,7.45,7.45,0,0,1,5.88-.73c3,1.09,2.51,5.29,2.51,5.29l-.33.15a48.64,48.64,0,0,0,35.51,2A48.61,48.61,0,1,1,77,62.34Z"></path></g><g style="opacity:0.30000000000000004"><path d="M56.22,104a1.17,1.17,0,0,0,2.34,0,1.17,1.17,0,1,0-2.34,0Z"></path></g><path d="M112.94,128.42a16.43,16.43,0,0,1,2.24-6.36c.71-1.28,1.76-2.67,3.22-2.65l1.25.06a4.72,4.72,0,0,1,5.23.64,5.78,5.78,0,0,1,1.68,4.74,11.08,11.08,0,0,1-1.76,4.84,20.91,20.91,0,0,1-3.7,4.52,5.42,5.42,0,0,1-2.79,1.6,4.11,4.11,0,0,1-3.28-1.18A7.53,7.53,0,0,1,112.94,128.42Z" style="fill:#407BFF"></path><g style="opacity:0.30000000000000004"><path d="M112.76,128.42a16.43,16.43,0,0,1,2.24-6.36c.71-1.28,1.76-2.67,3.22-2.65l1.25.06a4.72,4.72,0,0,1,5.23.64,5.77,5.77,0,0,1,1.68,4.74,11.08,11.08,0,0,1-1.76,4.84,21.16,21.16,0,0,1-3.69,4.52,5.45,5.45,0,0,1-2.8,1.6,4.15,4.15,0,0,1-3.28-1.18A7.57,7.57,0,0,1,112.76,128.42Z"></path></g><path d="M111.78,128.41a16.24,16.24,0,0,1,2.25-6.35,5.42,5.42,0,0,1,3.21-2.65l1.86-.53c1.89-.15,3.23,0,4.62,1.23a5.79,5.79,0,0,1,1.69,4.73,11.26,11.26,0,0,1-1.77,4.85,21.35,21.35,0,0,1-3.69,4.52,4.73,4.73,0,0,1-2.64,1.39c-1.19.17-2.08-.54-3-1.36A7.18,7.18,0,0,1,111.78,128.41Z" style="fill:#407BFF"></path><path d="M100.28,147.18a14.64,14.64,0,0,1-5.24,0c-1.1-.17-2.35-.53-2.6-1.47l-.19-.81a2.71,2.71,0,0,1-.47-3.46,5.08,5.08,0,0,1,3.28-2.11,10,10,0,0,1,4,.07,16.54,16.54,0,0,1,4.11,1.36,3.54,3.54,0,0,1,1.73,1.43,2.51,2.51,0,0,1-.29,2.35A6.72,6.72,0,0,1,100.28,147.18Z" style="fill:#407BFF"></path><g style="opacity:0.30000000000000004"><path d="M100.49,147.18a14.41,14.41,0,0,1-5.24,0c-1.11-.17-2.36-.53-2.61-1.47l-.18-.81A2.7,2.7,0,0,1,92,141.4a5.14,5.14,0,0,1,3.29-2.11,10,10,0,0,1,4,.07,16.48,16.48,0,0,1,4.12,1.36,3.59,3.59,0,0,1,1.73,1.43,2.48,2.48,0,0,1-.3,2.35A6.68,6.68,0,0,1,100.49,147.18Z"></path></g><path d="M99.3,147.54a14.47,14.47,0,0,1-5.25,0,3.84,3.84,0,0,1-2.6-1.47L90.71,145a3.16,3.16,0,0,1,.08-3.21,5.12,5.12,0,0,1,3.29-2.1,9.79,9.79,0,0,1,4,.06,16.1,16.1,0,0,1,4.12,1.37,3,3,0,0,1,1.54,1.37c.35.72,0,1.44-.49,2.18A6.15,6.15,0,0,1,99.3,147.54Z" style="fill:#407BFF"></path><path d="M66.86,81.48A16.44,16.44,0,0,1,71.92,77c1.24-.77,2.82-1.49,4.09-.76l1.07.67A4.7,4.7,0,0,1,81.34,80a5.79,5.79,0,0,1-.83,5,11.17,11.17,0,0,1-3.9,3.38,21.69,21.69,0,0,1-5.42,2.16,5.44,5.44,0,0,1-3.22,0,4.12,4.12,0,0,1-2.29-2.63A7.55,7.55,0,0,1,66.86,81.48Z" style="fill:#407BFF"></path><g style="opacity:0.30000000000000004"><path d="M66.86,81.48A16.44,16.44,0,0,1,71.92,77c1.24-.77,2.82-1.49,4.09-.76l1.07.67A4.7,4.7,0,0,1,81.34,80a5.79,5.79,0,0,1-.83,5,11.17,11.17,0,0,1-3.9,3.38,21.69,21.69,0,0,1-5.42,2.16,5.44,5.44,0,0,1-3.22,0,4.12,4.12,0,0,1-2.29-2.63A7.55,7.55,0,0,1,66.86,81.48Z"></path></g><path d="M65.12,82.2a16.4,16.4,0,0,1,5-4.46,5.44,5.44,0,0,1,4.1-.75l1.88.44c1.73.78,2.84,1.55,3.44,3.32a5.77,5.77,0,0,1-.83,5,11,11,0,0,1-3.89,3.38,21.24,21.24,0,0,1-5.43,2.16,4.67,4.67,0,0,1-3-.07c-1.12-.43-1.55-1.48-1.93-2.62A7.2,7.2,0,0,1,65.12,82.2Z" style="fill:#407BFF"></path><path d="M116.7,111.21a2.45,2.45,0,0,1,.76-1.41,3.26,3.26,0,0,1,2.16-.51,2.36,2.36,0,0,1,1.67,1,3.35,3.35,0,0,1,.83,2.45,2.72,2.72,0,0,1-1.38,2.14,2.78,2.78,0,0,1-3.15-.54A3.53,3.53,0,0,1,116.7,111.21Z" style="fill:#407BFF"></path><g style="opacity:0.30000000000000004"><path d="M116.54,111.21a2.45,2.45,0,0,1,.76-1.41,3.26,3.26,0,0,1,2.16-.51,2.35,2.35,0,0,1,1.67,1,3.34,3.34,0,0,1,.83,2.45,2.72,2.72,0,0,1-1.38,2.14,2.78,2.78,0,0,1-3.15-.54A3.56,3.56,0,0,1,116.54,111.21Z"></path></g><path d="M116.21,111.29a2.22,2.22,0,0,1,.7-1.29,3,3,0,0,1,2-.48,2.19,2.19,0,0,1,1.54,1,3,3,0,0,1,.76,2.25,2.5,2.5,0,0,1-1.27,2,2.56,2.56,0,0,1-2.9-.5A3.28,3.28,0,0,1,116.21,111.29Z" style="fill:#407BFF"></path><g style="opacity:0.2"><path d="M116.21,111.29a2.22,2.22,0,0,1,.7-1.29,3,3,0,0,1,2-.48,2.19,2.19,0,0,1,1.54,1,3,3,0,0,1,.76,2.25,2.5,2.5,0,0,1-1.27,2,2.56,2.56,0,0,1-2.9-.5A3.28,3.28,0,0,1,116.21,111.29Z"></path></g><path d="M117.78,81.72a2,2,0,0,1,.61-1.14,2.65,2.65,0,0,1,1.73-.41,1.94,1.94,0,0,1,1.35.83,2.69,2.69,0,0,1,.66,2A2.18,2.18,0,0,1,121,84.7a2.22,2.22,0,0,1-2.53-.44A2.84,2.84,0,0,1,117.78,81.72Z" style="fill:#407BFF"></path><g style="opacity:0.30000000000000004"><path d="M117.65,81.72a2,2,0,0,1,.61-1.14,2.66,2.66,0,0,1,1.74-.41,1.92,1.92,0,0,1,1.34.83,2.7,2.7,0,0,1,.67,2,2.21,2.21,0,0,1-1.11,1.73,2.25,2.25,0,0,1-2.54-.44A2.85,2.85,0,0,1,117.65,81.72Z"></path></g><path d="M117.39,81.78a1.78,1.78,0,0,1,.56-1,2.36,2.36,0,0,1,1.59-.38,1.75,1.75,0,0,1,1.24.76,2.52,2.52,0,0,1,.61,1.82,2,2,0,0,1-1,1.58,2.07,2.07,0,0,1-2.33-.4A2.6,2.6,0,0,1,117.39,81.78Z" style="fill:#407BFF"></path><g style="opacity:0.2"><path d="M117.39,81.78a1.78,1.78,0,0,1,.56-1,2.36,2.36,0,0,1,1.59-.38,1.75,1.75,0,0,1,1.24.76,2.52,2.52,0,0,1,.61,1.82,2,2,0,0,1-1,1.58,2.07,2.07,0,0,1-2.33-.4A2.6,2.6,0,0,1,117.39,81.78Z"></path></g><path d="M90.41,70.14a2.56,2.56,0,0,1,.79-1.49,3.49,3.49,0,0,1,2.27-.54,2.48,2.48,0,0,1,1.76,1.1,3.54,3.54,0,0,1,.88,2.58,2.89,2.89,0,0,1-1.46,2.26,2.93,2.93,0,0,1-3.32-.58A3.7,3.7,0,0,1,90.41,70.14Z" style="fill:#407BFF"></path><g style="opacity:0.30000000000000004"><path d="M90.24,70.14a2.58,2.58,0,0,1,.8-1.49,3.46,3.46,0,0,1,2.27-.54,2.5,2.5,0,0,1,1.76,1.1,3.49,3.49,0,0,1,.87,2.58,2.87,2.87,0,0,1-1.45,2.26,2.92,2.92,0,0,1-3.32-.58A3.68,3.68,0,0,1,90.24,70.14Z"></path></g><path d="M89.89,70.22a2.34,2.34,0,0,1,.73-1.36,3.15,3.15,0,0,1,2.09-.5,2.26,2.26,0,0,1,1.62,1,3.25,3.25,0,0,1,.8,2.38,2.62,2.62,0,0,1-1.33,2.08,2.71,2.71,0,0,1-3.06-.53A3.43,3.43,0,0,1,89.89,70.22Z" style="fill:#407BFF"></path><g style="opacity:0.2"><path d="M89.89,70.22a2.34,2.34,0,0,1,.73-1.36,3.15,3.15,0,0,1,2.09-.5,2.26,2.26,0,0,1,1.62,1,3.25,3.25,0,0,1,.8,2.38,2.62,2.62,0,0,1-1.33,2.08,2.71,2.71,0,0,1-3.06-.53A3.43,3.43,0,0,1,89.89,70.22Z"></path></g><path d="M100.05,70.73a1.29,1.29,0,0,1,.4-.74,1.67,1.67,0,0,1,1.14-.27,1.21,1.21,0,0,1,.88.54,1.82,1.82,0,0,1,.44,1.29,1.44,1.44,0,0,1-.73,1.13,1.47,1.47,0,0,1-1.66-.28A1.86,1.86,0,0,1,100.05,70.73Z" style="fill:#407BFF"></path><g style="opacity:0.30000000000000004"><path d="M100,70.73a1.29,1.29,0,0,1,.4-.74,1.65,1.65,0,0,1,1.13-.27,1.21,1.21,0,0,1,.88.54,1.77,1.77,0,0,1,.44,1.29,1.4,1.4,0,0,1-.73,1.13,1.47,1.47,0,0,1-1.66-.28A1.88,1.88,0,0,1,100,70.73Z"></path></g><path d="M99.8,70.77a1.16,1.16,0,0,1,.36-.68,1.52,1.52,0,0,1,1-.25,1.14,1.14,0,0,1,.8.5,1.6,1.6,0,0,1,.41,1.19,1.32,1.32,0,0,1-.67,1,1.35,1.35,0,0,1-1.53-.27A1.71,1.71,0,0,1,99.8,70.77Z" style="fill:#407BFF"></path><g style="opacity:0.2"><path d="M99.8,70.77a1.16,1.16,0,0,1,.36-.68,1.52,1.52,0,0,1,1-.25,1.14,1.14,0,0,1,.8.5,1.6,1.6,0,0,1,.41,1.19,1.32,1.32,0,0,1-.67,1,1.35,1.35,0,0,1-1.53-.27A1.71,1.71,0,0,1,99.8,70.77Z"></path></g><g style="opacity:0.2"><path d="M82.46,125.46a10.25,10.25,0,0,0,10.13,10.61c5.83,0,10.23-5.06,10.26-10.89A9.89,9.89,0,0,0,92.72,115,10.23,10.23,0,0,0,82.46,125.46Z"></path></g><g style="opacity:0.2"><path d="M111.78,128.41a16.24,16.24,0,0,1,2.25-6.35,5.42,5.42,0,0,1,3.21-2.65l1.86-.53c1.89-.15,3.23,0,4.62,1.23a5.79,5.79,0,0,1,1.69,4.73,11.26,11.26,0,0,1-1.77,4.85,21.35,21.35,0,0,1-3.69,4.52,4.73,4.73,0,0,1-2.64,1.39c-1.19.17-2.08-.54-3-1.36A7.18,7.18,0,0,1,111.78,128.41Z"></path></g><g style="opacity:0.2"><path d="M99.3,147.54a14.47,14.47,0,0,1-5.25,0,3.84,3.84,0,0,1-2.6-1.47L90.71,145a3.16,3.16,0,0,1,.08-3.21,5.12,5.12,0,0,1,3.29-2.1,9.79,9.79,0,0,1,4,.06,16.1,16.1,0,0,1,4.12,1.37,3,3,0,0,1,1.54,1.37c.35.72,0,1.44-.49,2.18A6.15,6.15,0,0,1,99.3,147.54Z"></path></g><g style="opacity:0.2"><path d="M65.12,82.2a16.4,16.4,0,0,1,5-4.46,5.44,5.44,0,0,1,4.1-.75l1.88.44c1.73.78,2.84,1.55,3.44,3.32a5.77,5.77,0,0,1-.83,5,11,11,0,0,1-3.89,3.38,21.24,21.24,0,0,1-5.43,2.16,4.67,4.67,0,0,1-3-.07c-1.12-.43-1.55-1.48-1.93-2.62A7.2,7.2,0,0,1,65.12,82.2Z"></path></g><path d="M135.57,128.42h0c-.07,0,.43-1.29,1.15-3.61a51.92,51.92,0,0,0,2-10.08,48.54,48.54,0,0,0-8.51-32.39l.5.21h0l-.31.06-.21-.28c-.75-1-1.49-2.11-2.33-3.17a46.94,46.94,0,0,0-7.48-7.32,50.54,50.54,0,0,0-8.32-5.13A52.92,52.92,0,0,0,96.2,62,57.55,57.55,0,0,0,85,61.64c-2.65.22-4.11.41-4.13.32a4.15,4.15,0,0,1,1.05-.25c.69-.1,1.71-.33,3-.46a51.07,51.07,0,0,1,11.32,0,52,52,0,0,1,16.17,4.57A50.34,50.34,0,0,1,121,71a47,47,0,0,1,7.67,7.48c.85,1.08,1.62,2.21,2.38,3.25l-.52-.22h0l.32-.06.19.26a48.19,48.19,0,0,1,8.38,33,46.77,46.77,0,0,1-2.32,10.13c-.42,1.15-.77,2-1.05,2.61a4.93,4.93,0,0,1-.45.89h0S135.57,128.42,135.57,128.42Z" style="fill:#fff"></path><path d="M154.91,118.22a3.59,3.59,0,1,1-.22.13" style="fill:#407BFF"></path></g></svg>