<svg xmlns="http://www.w3.org/2000/svg" viewBox="0 0 500 500"><g id="freepik--background-complete--inject-155"><path d="M97,298.14a41.77,41.77,0,0,1,11.11-27.59C111.45,284.39,97,298.14,97,298.14Z" style="fill:#ebebeb"></path><path d="M113.11,290.33a41.81,41.81,0,0,1,29.74-.82C131.49,298.11,113.11,290.33,113.11,290.33Z" style="fill:#ebebeb"></path><path d="M115,281.36a33,33,0,0,1,4-23.12C123.86,268.39,115,281.36,115,281.36Z" style="fill:#ebebeb"></path><path d="M52.57,249c23.58,6.27,36.23,26.77,36.23,26.77C68.65,275.77,52.57,249,52.57,249Z" style="fill:#ebebeb"></path><path d="M90.23,258.65c-1.22-25.42,23.62-54.18,23.62-54.18-3.76,31.56-23.62,54.18-23.62,54.18" style="fill:#ebebeb"></path><path d="M90.11,186.27a68.12,68.12,0,0,1-8.93,36.4C77.67,206.32,90.11,186.27,90.11,186.27Z" style="fill:#ebebeb"></path><path d="M80.53,237.9c-18.58-2-28.69-20.48-28.69-20.48C74.31,223.72,80.53,237.9,80.53,237.9Z" style="fill:#ebebeb"></path><path d="M40.45,315.6A41.77,41.77,0,0,1,69.67,310C59.86,320.3,40.45,315.6,40.45,315.6Z" style="fill:#ebebeb"></path><path d="M88.6,323.94C85.08,333.65,76.12,338,76.12,338,76.91,329.43,88.6,323.94,88.6,323.94Z" style="fill:#ebebeb"></path><path d="M86.22,321.21c-10.57,6.5-22.23,4-22.23,4C71.15,317.72,86.22,321.21,86.22,321.21Z" style="fill:#ebebeb"></path><path d="M95.71,355.42a1.88,1.88,0,0,1,0-.38c0-.3,0-.67,0-1.11,0-1,0-2.47,0-4.26s0-4.11,0-6.74,0-5.61-.19-8.91c-.16-6.61-.63-14.47-1.3-23.18s-1.82-18.25-3.27-28.23c-2.94-20-6.95-37.79-10.18-50.61-1.62-6.41-3-11.58-4-15.14q-.71-2.6-1.11-4.11l-.27-1.08c0-.24-.08-.37-.06-.37a1.49,1.49,0,0,1,.14.35c.1.28.21.63.35,1L77,216.77c1.1,3.53,2.56,8.69,4.26,15.08a471.38,471.38,0,0,1,10.42,50.64c1.46,10,2.5,19.57,3.21,28.29S95.93,327.38,96,334c.1,3.31.07,6.3.06,8.93s0,4.9-.1,6.75-.11,3.21-.15,4.25c0,.45,0,.81-.06,1.11S95.73,355.42,95.71,355.42Z" style="fill:#e0e0e0"></path><path d="M61.61,301.62c.13-.19,7.64,4.73,16.78,11s16.43,11.49,16.3,11.68-7.64-4.73-16.78-11S61.48,301.81,61.61,301.62Z" style="fill:#e0e0e0"></path><path d="M94.69,304.33a6.61,6.61,0,0,1,1.15-1.26l3.35-3.22c3-2.83,6.88-6.46,11.16-10.48l11.17-10.47,3.39-3.17a6.51,6.51,0,0,1,1.31-1.1,7,7,0,0,1-1.08,1.32c-.73.82-1.84,2-3.21,3.37-2.74,2.8-6.63,6.58-11,10.66s-8.39,7.71-11.34,10.3c-1.47,1.3-2.67,2.33-3.52,3A6.85,6.85,0,0,1,94.69,304.33Z" style="fill:#e0e0e0"></path><path d="M37.76,289.58s19.2-.37,27.32,14.75A34.57,34.57,0,0,1,37.76,289.58Z" style="fill:#ebebeb"></path><path d="M64,281.87S79.62,293,77.13,310A34.6,34.6,0,0,1,64,281.87Z" style="fill:#ebebeb"></path><path d="M146.34,254.39s-6.17,21.49-25.78,25.36A40.26,40.26,0,0,1,146.34,254.39Z" style="fill:#ebebeb"></path><path d="M55.45,174.48s24.5,16,21.79,42C77.24,216.45,56.15,203.11,55.45,174.48Z" style="fill:#ebebeb"></path><path d="M137,316.62a9.91,9.91,0,0,1-1.59,1.28c-1.06.76-2.57,1.91-4.4,3.36a107.32,107.32,0,0,0-24.23,27c-1.25,2-2.23,3.59-2.87,4.73a10.19,10.19,0,0,1-1.1,1.72,9.57,9.57,0,0,1,.81-1.87c.56-1.19,1.46-2.86,2.65-4.89a94,94,0,0,1,24.38-27.15c1.89-1.4,3.46-2.47,4.58-3.16A10.84,10.84,0,0,1,137,316.62Z" style="fill:#e0e0e0"></path><path d="M115.67,332.58a41.78,41.78,0,0,1,5.63-29.21C123.93,321.59,115.67,332.58,115.67,332.58Z" style="fill:#ebebeb"></path><path d="M132.16,323.6a30.38,30.38,0,0,1,21.38-3.32C141.71,326.56,132.16,323.6,132.16,323.6Z" style="fill:#ebebeb"></path><polygon points="59.99 357.42 69.19 417.82 122.59 417.82 134.98 358.29 59.99 357.42" style="fill:#ebebeb"></polygon><path d="M127.51,396.13c0,.17-13.68.31-30.55.31s-30.57-.14-30.57-.31,13.68-.31,30.57-.31S127.51,396,127.51,396.13Z" style="fill:#fafafa"></path><path d="M127.72,393.16c0,.17-13.77.31-30.76.31s-30.77-.14-30.77-.31S80,392.84,97,392.84,127.72,393,127.72,393.16Z" style="fill:#fafafa"></path><path d="M127.62,389.8c0,.18-13.78.32-30.77.32s-30.77-.14-30.77-.32,13.77-.31,30.77-.31S127.62,389.63,127.62,389.8Z" style="fill:#fafafa"></path><path d="M75.32,414.37c-.17,0-.9-3.37-1.64-7.6s-1.19-7.69-1-7.71.91,3.37,1.64,7.6S75.49,414.34,75.32,414.37Z" style="fill:#fafafa"></path><path d="M79,413.73c-.17,0-.38-3.32-.66-7.42s-.52-7.42-.35-7.44.7,3.28,1,7.4S79.12,413.73,79,413.73Z" style="fill:#fafafa"></path><path d="M85.57,413.73c-.16,0-.89-3.36-1.39-7.61s-.57-7.71-.4-7.72.53,3.42,1,7.65S85.75,413.7,85.57,413.73Z" style="fill:#fafafa"></path><path d="M90.22,414.05c-.17,0-.6-3.44-.74-7.73s.07-7.77.24-7.77.25,3.47.39,7.75S90.4,414,90.22,414.05Z" style="fill:#fafafa"></path><path d="M98.45,413.73c-.17,0-.43-3.28-.56-7.33S97.78,399,98,399s.43,3.27.56,7.33S98.62,413.73,98.45,413.73Z" style="fill:#fafafa"></path><path d="M104.46,414.05c-.17,0-.29-3.4-.25-7.59s.2-7.59.37-7.59.29,3.4.25,7.59S104.63,414.05,104.46,414.05Z" style="fill:#fafafa"></path><path d="M110.09,413.24c-.17,0,0-3.57.46-7.93s.91-7.89,1.08-7.87,0,3.57-.46,7.93S110.27,413.26,110.09,413.24Z" style="fill:#fafafa"></path><path d="M117.36,412.45c-.17,0,.09-3.07.9-6.74s1.82-6.56,2-6.51-.58,3-1.37,6.64S117.54,412.48,117.36,412.45Z" style="fill:#fafafa"></path><path d="M53.87,345.45v11.31a4.45,4.45,0,0,0,4.45,4.45h77.33a4.45,4.45,0,0,0,4.45-4.45V345.45Z" style="fill:#ebebeb"></path><polygon points="60.57 361.21 61.21 364.81 132.57 369.89 134.37 361.21 60.57 361.21" style="fill:#e0e0e0"></polygon><path d="M365.63,14.87c.14,0,.26,23.66.26,52.83s-.12,52.84-.26,52.84-.26-23.65-.26-52.84S365.48,14.87,365.63,14.87Z" style="fill:#e0e0e0"></path><path d="M353.41,254.42c-.14,0-.2-7.08-.13-15.8s.25-15.8.4-15.8.2,7.08.13,15.8S353.56,254.42,353.41,254.42Z" style="fill:#e0e0e0"></path><path d="M356.11,254.42c-.15,0-.21-7.08-.13-15.8s.25-15.8.39-15.8.2,7.08.13,15.8S356.25,254.42,356.11,254.42Z" style="fill:#e0e0e0"></path><path d="M358.79,251.26c-.15,0-.2-7.08-.13-15.81s.25-15.8.4-15.79.2,7.07.12,15.8S358.93,251.26,358.79,251.26Z" style="fill:#e0e0e0"></path><path d="M362,254.47c-.15,0-.2-7.08-.13-15.8s.25-15.8.39-15.8.21,7.07.13,15.8S362.09,254.47,362,254.47Z" style="fill:#e0e0e0"></path><path d="M364.74,252.75c-.14,0-.2-7.08-.12-15.8s.25-15.8.39-15.8.2,7.07.13,15.8S364.89,252.75,364.74,252.75Z" style="fill:#e0e0e0"></path><path d="M367.68,251.37c-.14,0-.2-7.08-.12-15.81s.25-15.79.39-15.79.2,7.07.13,15.8S367.83,251.37,367.68,251.37Z" style="fill:#e0e0e0"></path><path d="M370.65,251.26c-.15,0-.21-7.08-.13-15.81s.25-15.8.39-15.79.2,7.07.13,15.8S370.79,251.26,370.65,251.26Z" style="fill:#e0e0e0"></path><path d="M373.2,249c-.14,0-.2-7.07-.12-15.8s.25-15.8.39-15.8.2,7.08.13,15.81S373.35,249,373.2,249Z" style="fill:#e0e0e0"></path><path d="M375.78,251.26c-.14,0-.2-7.08-.13-15.81s.25-15.8.4-15.79.2,7.07.12,15.8S375.92,251.26,375.78,251.26Z" style="fill:#e0e0e0"></path><path d="M348.33,128.73s-36.12,6.58-36.12,43.49,41.16,44.14,41.16,44.14h23.9S420,212.11,420,171c0-35.32-39.57-42.22-39.57-42.22Z" style="fill:#ebebeb"></path><rect x="348.41" y="118.1" width="33.19" height="10.62" style="fill:#ebebeb"></rect><rect x="352.26" y="215.72" width="25.23" height="7.17" style="fill:#ebebeb"></rect><path d="M381,128.16c0,.15-7.26.26-16.22.26s-16.22-.11-16.22-.26,7.26-.26,16.22-.26S381,128,381,128.16Z" style="fill:#e0e0e0"></path><path d="M382.28,215.49a4.67,4.67,0,0,1-1.19.36c-.77.21-1.9.45-3.3.71a66.54,66.54,0,0,1-11.11,1.09,62.4,62.4,0,0,1-11.14-.81c-1.41-.23-2.55-.46-3.32-.66a5,5,0,0,1-1.19-.35,6.2,6.2,0,0,1,1.23.15c.78.14,1.92.31,3.33.5a77,77,0,0,0,11.08.65,82.19,82.19,0,0,0,11.06-.93c1.4-.21,2.54-.4,3.32-.54A6.53,6.53,0,0,1,382.28,215.49Z" style="fill:#e0e0e0"></path><path d="M319.74,180.83a4.56,4.56,0,0,1-.4-1,22.49,22.49,0,0,1-.75-2.69A29.94,29.94,0,0,1,320.3,159a21.15,21.15,0,0,1,1.25-2.5,4.05,4.05,0,0,1,.57-.86c.08,0-.63,1.32-1.48,3.5A33.08,33.08,0,0,0,319,177.12C319.37,179.42,319.83,180.8,319.74,180.83Z" style="fill:#fff"></path><path d="M437.93,14.87c.15,0,.26,12.54.26,28s-.11,28-.26,28-.26-12.54-.26-28S437.79,14.87,437.93,14.87Z" style="fill:#e0e0e0"></path><path d="M430,157.75a97.07,97.07,0,0,1-.18-10.25,99.26,99.26,0,0,1,.35-10.25,102.36,102.36,0,0,1,.17,10.25C430.3,153.16,430.15,157.75,430,157.75Z" style="fill:#e0e0e0"></path><path d="M431.75,157.75a102.36,102.36,0,0,1-.17-10.25,99.26,99.26,0,0,1,.35-10.25,102.36,102.36,0,0,1,.17,10.25A99.26,99.26,0,0,1,431.75,157.75Z" style="fill:#e0e0e0"></path><path d="M433.49,155.7a102.5,102.5,0,0,1-.17-10.26,98.77,98.77,0,0,1,.35-10.24,102.36,102.36,0,0,1,.17,10.25A99.26,99.26,0,0,1,433.49,155.7Z" style="fill:#e0e0e0"></path><path d="M435.54,157.78a102.36,102.36,0,0,1-.17-10.25,99.26,99.26,0,0,1,.35-10.25,102.36,102.36,0,0,1,.17,10.25A99.07,99.07,0,0,1,435.54,157.78Z" style="fill:#e0e0e0"></path><path d="M437.36,156.67a100.69,100.69,0,0,1-.18-10.26c.05-5.66.21-10.25.35-10.25a100.82,100.82,0,0,1,.18,10.26C437.66,152.08,437.5,156.67,437.36,156.67Z" style="fill:#e0e0e0"></path><path d="M439.27,155.77a97.07,97.07,0,0,1-.18-10.25,99.07,99.07,0,0,1,.35-10.25,102.36,102.36,0,0,1,.17,10.25C439.56,151.18,439.41,155.77,439.27,155.77Z" style="fill:#e0e0e0"></path><path d="M441.19,155.7a100.55,100.55,0,0,1-.18-10.26,102.25,102.25,0,0,1,.35-10.24,102.36,102.36,0,0,1,.17,10.25A101.15,101.15,0,0,1,441.19,155.7Z" style="fill:#e0e0e0"></path><path d="M442.85,154.24a100.69,100.69,0,0,1-.18-10.26c.05-5.66.21-10.25.35-10.25s.22,4.6.17,10.26A101.15,101.15,0,0,1,442.85,154.24Z" style="fill:#e0e0e0"></path><path d="M444.52,155.7a99,99,0,0,1-.17-10.26,100.65,100.65,0,0,1,.34-10.24,100.42,100.42,0,0,1,.18,10.25C444.82,151.11,444.66,155.7,444.52,155.7Z" style="fill:#e0e0e0"></path><path d="M426.71,76.2s-23.44,4.27-23.44,28.22S430,133.06,430,133.06h15.51s27.74-2.76,27.74-29.47c0-22.91-25.68-27.39-25.68-27.39Z" style="fill:#ebebeb"></path><rect x="426.76" y="69.3" width="21.54" height="6.89" style="fill:#ebebeb"></rect><rect x="429.26" y="132.64" width="16.37" height="4.65" style="fill:#ebebeb"></rect><path d="M447.91,75.83a104.45,104.45,0,0,1-10.53.26,104.32,104.32,0,0,1-10.52-.26c0-.14,4.71-.26,10.52-.26S447.91,75.69,447.91,75.83Z" style="fill:#e0e0e0"></path><path d="M448.74,132.49a12.48,12.48,0,0,1-2.91.76,42.22,42.22,0,0,1-7.22.74,38.83,38.83,0,0,1-7.23-.56,12.66,12.66,0,0,1-2.92-.71,24.5,24.5,0,0,1,3,.35,52.65,52.65,0,0,0,7.17.4,59.1,59.1,0,0,0,7.17-.58A27.64,27.64,0,0,1,448.74,132.49Z" style="fill:#e0e0e0"></path><path d="M407.91,114.17a3.52,3.52,0,0,1-.4-1,22.19,22.19,0,0,1-.76-2.69,30,30,0,0,1,1.72-18.15,20.69,20.69,0,0,1,1.25-2.51,3.77,3.77,0,0,1,.57-.85c.08,0-.63,1.32-1.48,3.5a34.06,34.06,0,0,0-2.1,8.85,33.61,33.61,0,0,0,.4,9.08C407.54,112.75,408,114.14,407.91,114.17Z" style="fill:#fff"></path></g><g id="freepik--Sign--inject-155"><rect x="45.84" y="39.54" width="206.41" height="105.25" style="fill:#f5f5f5"></rect><path d="M252.24,144.79s0-.64,0-1.88,0-3.08,0-5.48c0-4.81,0-11.89,0-21,0-18.2-.06-44.49-.1-76.9l.19.2L45.85,39.8h0l.26-.26c0,37.13,0,72.74,0,105.25l-.24-.24,148.34.11,42.72.07,11.39,0,3,0h1l-1,0h-2.92l-11.35,0-42.66.07L45.84,145h-.25v-.25c0-32.51,0-68.12,0-105.25v-.26h.27l206.39.07h.2v.19c0,32.46-.08,58.79-.1,77,0,9.08,0,16.15-.05,20.95,0,2.38,0,4.21,0,5.44S252.24,144.79,252.24,144.79Z" style="fill:#263238"></path><path d="M199.47,79.57c-4.63,1.63-9,3.11-13.36,4.75a4.26,4.26,0,0,1-4.93-1.68c-1-1.73-1.73-3.57-2.46-5.1a61.55,61.55,0,0,0,22.71-7.49,45.73,45.73,0,0,1,5.26,2.21c.9.49,1.45,1.65,2.12,2.54a19.11,19.11,0,0,0,1.43,2.08,4.78,4.78,0,0,1,1,5.51,43.28,43.28,0,0,0-1.75,5.34c-1.84,7.34-4.85,14-10.45,19.33-2.18,2.08-4.3,4.22-6.47,6.32a15.38,15.38,0,0,1-8.1,4.06,36.71,36.71,0,0,1-3.78.42,1.59,1.59,0,0,1-1.17-.23c-1.39-1.51-2.75-.6-4.14-.06-2.41.94-4.84,1.83-7.38,2.55,2.08-1.61,4.08-3.32,6.26-4.79a52.24,52.24,0,0,0,12.6-11.63c1.38-1.81,3-3.47,4.17-5.4,3.33-5.37,7-10.62,8.23-17C199.38,80.86,199.39,80.41,199.47,79.57Z" style="fill:#263238"></path><path d="M74.81,122.64a18.2,18.2,0,0,1,2.2-2.27c2.49-1.8,5.29-3.25,7.55-5.29a85.28,85.28,0,0,0,8.92-9.31c2.94-3.6,5.49-7.52,8.13-11.36a22.71,22.71,0,0,0,1.57-3.56c-2.12.76-4,1.28-5.68,2.06q-4.32,2-8.5,4.24a5.89,5.89,0,0,1-7.13-1.41C80.2,93.88,78.56,92,79.2,89.12c.09-.38-.2-.84-.39-1.54a10.22,10.22,0,0,1,1.86.67,6.4,6.4,0,0,0,5.49.63c4.8-1.49,9.56-3.11,14.3-4.77a2.27,2.27,0,0,0,1.28-1.54c.11-1.06.66-1.14,1.44-1.1a9.64,9.64,0,0,1,6.94,2.79c1.61,1.71,3.26,3.39,4.74,5.21,1,1.29,1.41,3.86-.24,5.16-4,3.17-5.63,8-8.29,12-2.51,3.84-5,7.51-9.63,9A20.12,20.12,0,0,1,90.45,117a12.26,12.26,0,0,0-6.51,2.14c-2.42,1.43-4.9,2.76-7.39,4.06-.39.2-1,0-1.47,0Z" style="fill:#263238"></path><path d="M124.56,99.22c1.11-1.23,2.17-2.51,3.34-3.68,7.72-7.78,15.91-15.11,22.43-24,.27-.38.54-.75.8-1.13,1.52-2.31,2.86-4.64.58-7.37,2.19.78,4.65.65,6.09,2.68a30.19,30.19,0,0,1,2.88,4.68c1.23,2.67,0,5.11-1.5,7.19-2.12,3-4.57,5.79-6.93,8.63a8.07,8.07,0,0,1-1.65,1.14c.06.1.14.38.32.5,2.31,1.43,3,3.85,3.58,6.21a8.63,8.63,0,0,1,0,3c-.17,1.61-.63,3.2-.67,4.8-.14,4.81-.09,9.61-.2,14.42-.06,2.58-1.4,4.53-3.17,5-1.39.32-4-1.51-4.28-2.88s-.84-2.74-1.29-4.1c-.37-1.1-.74-2.05,0-3.31a7.62,7.62,0,0,0,.56-3.61c.11-5.38.13-10.76.18-16.14a4.12,4.12,0,0,0-.21-.73c-1.86.59-3.68,1.19-5.52,1.72-.5.15-1.11-.06-1.59.1A21.66,21.66,0,0,0,134.13,94c-2.72,1.63-5.31,3.47-8,5.2a6.51,6.51,0,0,1-1.22.5Z" style="fill:#263238"></path><path d="M77.63,71.78c4.64,1.49,8.45-.55,12.4-1.67,3.74-1.07,7.44-2.33,11.21-3.27a7.62,7.62,0,0,1,3.9.22c2.37.71,4.58,1.84,5.8,4.2a2.57,2.57,0,0,1-.15,3.16c-.85.9-1.88.68-3,.44a8.41,8.41,0,0,0-3.7-.07c-4.31,1.11-8.58,2.38-12.85,3.67a8.31,8.31,0,0,0-2.63,1.39,4.42,4.42,0,0,1-5.43.31c-2.59-1.69-4.53-3.81-4.82-7.07C78.33,72.77,78,72.48,77.63,71.78Z" style="fill:#263238"></path><path d="M208.55,61.72a26,26,0,0,1,4.87.77,19,19,0,0,1,7.67,5c1.45,1.55,1.87,4,.76,5.31a4.15,4.15,0,0,1-5.6.19,4.58,4.58,0,0,1-1.43-1.77c-1.22-3.33-3.48-5.9-5.87-8.4-.19-.2-.35-.45-.53-.68C208.46,62,208.51,61.86,208.55,61.72Z" style="fill:#263238"></path><path d="M215.41,56.51c4.16-1,10.55.81,12.84,4.66a3.44,3.44,0,0,1-.2,4.23,3.18,3.18,0,0,1-4.22.21,4.32,4.32,0,0,1-1.38-1.41A17.68,17.68,0,0,0,215.41,56.51Z" style="fill:#263238"></path><rect x="137.24" y="37.38" width="23.61" height="4.32" style="fill:#263238"></rect><rect x="137.24" y="142.45" width="23.61" height="4.32" style="fill:#263238"></rect></g><g id="freepik--Desk--inject-155"><path d="M469.24,417.67c0,.15-98.17.26-219.23.26s-219.25-.11-219.25-.26,98.15-.26,219.25-.26S469.24,417.53,469.24,417.67Z" style="fill:#263238"></path></g><g id="freepik--Calligraphy--inject-155"><polygon points="143.72 426.79 112 476.39 366.78 476.39 342.05 427.69 143.72 426.79" style="fill:#e0e0e0"></polygon><path d="M143.72,426.79l.95,0h13.81l41.17.12,142.4.54h.15l.07.14L367,476.27l.19.38H336.45L112,476.55h-.29l.15-.24,23.47-36.56c2.71-4.22,4.8-7.46,6.22-9.66l1.61-2.48c.36-.55.55-.82.55-.82l-.53.86-1.58,2.51-6.18,9.73-23.29,36.59-.13-.25,224.44-.1h30.33l-.23.38c-8.54-16.83-16.83-33.15-24.72-48.71l.22.14-142.29-.75-41.21-.26-11-.09-2.85,0Z" style="fill:#263238"></path><path d="M301.1,433.83a21.29,21.29,0,0,1-2.56,1.36c-2.9,1.08-6.15,1.94-8.78,3.17a93.52,93.52,0,0,0-10.36,5.58c-3.42,2.15-6.39,4.5-9.45,6.8a11.65,11.65,0,0,0-1.82,2.14c2.46-.46,4.59-.77,6.59-1.24,3.35-.79,6.66-1.63,9.89-2.54a11.73,11.73,0,0,1,8.28.85c1.94,1.11,3.85,2.26,3.1,4-.1.23.24.51.46.93a17.51,17.51,0,0,1-2.16-.41,13.77,13.77,0,0,0-6.39-.37c-5.57.89-11.1,1.86-16.61,2.86-.65.12-1.42.58-1.49.92-.13.63-.77.68-1.68.66a17.93,17.93,0,0,1-8.07-1.68c-1.87-1-3.78-2-5.5-3.11-1.23-.78-1.65-2.32.27-3.1,4.66-1.9,6.55-4.77,9.64-7.21,2.92-2.3,5.87-4.5,11.19-5.39a42.9,42.9,0,0,1,7.27-.79,24.22,24.22,0,0,0,7.57-1.28c2.81-.86,5.69-1.65,8.59-2.43a7.94,7.94,0,0,1,1.7,0Z" style="fill:#263238"></path><path d="M243.27,447.86c-1.29.74-2.53,1.5-3.88,2.21-9,4.66-18.5,9.05-26.07,14.39-.32.22-.64.44-.93.67-1.77,1.39-3.33,2.78-.67,4.42-2.55-.47-5.42-.39-7.09-1.61a22.67,22.67,0,0,1-3.35-2.8c-1.42-1.6.05-3.06,1.75-4.31,2.46-1.8,5.31-3.47,8.06-5.17A10.76,10.76,0,0,1,213,455a.88.88,0,0,0-.38-.3,6.26,6.26,0,0,1-4.16-3.73,2.71,2.71,0,0,1,0-1.82,22,22,0,0,0,.79-2.88c.15-2.88.1-5.76.23-8.64.06-1.54,1.62-2.71,3.68-3,1.61-.2,4.6.9,5,1.72a18.94,18.94,0,0,0,1.51,2.46c.43.66.85,1.23,0,2A2.69,2.69,0,0,0,219,443c-.12,3.22-.16,6.45-.21,9.67,0,.09.09.17.25.44,2.15-.35,4.27-.72,6.42-1,.57-.08,1.28,0,1.84-.05a42.39,42.39,0,0,0,4.85-1c3.16-1,6.17-2.08,9.25-3.11a11.45,11.45,0,0,1,1.42-.3Z" style="fill:#263238"></path><path d="M297.82,464.3c-5.4-.89-9.83.33-14.41,1-4.35.64-8.65,1.39-13,2a17.27,17.27,0,0,1-4.54-.13c-2.75-.43-5.32-1.11-6.74-2.53-.64-.63-.87-1.31.18-1.89a5.82,5.82,0,0,1,3.48-.26,18.76,18.76,0,0,0,4.3,0c5-.66,10-1.42,14.94-2.2a14.4,14.4,0,0,0,3.06-.83,9.17,9.17,0,0,1,6.31-.19c3,1,5.26,2.28,5.61,4.24C297,463.71,297.36,463.88,297.82,464.3Z" style="fill:#263238"></path></g><g id="freepik--Character--inject-155"><path d="M224.74,166.92c-2-9.5-9.26-17.34-17.94-21.67h0c-6.11-4.57-14.74-4.92-22.16-.65s-11.31,13.4-10.4,21.9,6.11,16.19,13,21.27c7.6,5.62,18.2,8.21,26.63,3.95C222.52,187.34,226.73,176.42,224.74,166.92Z" style="fill:#263238"></path><path d="M270.22,250.28Z" style="fill:#ffbe9d"></path><path d="M301.78,147c.31-22.84-17.18-42.94-40.38-44.64C236.8,100.59,216,119.1,215,143l-1.35,96.52a8.39,8.39,0,0,0,1.71,5.17c6,8,28.57,61.09,37.77,61.94,8.91.83,5.78-49,13.12-53.5a8.22,8.22,0,0,0,3.84-7.23l-.59-21.57a.15.15,0,0,1,.14-.15,28.92,28.92,0,0,0,6-.44c5.64-1.65,19.91-7.9,23.81-29.43C300.78,187.19,301.5,167.05,301.78,147Z" style="fill:#ffbe9d"></path><path d="M271.56,179.93c0-.21,2.36-.56,6.21-1,1-.07,1.9-.24,2.08-.89s-.15-1.72-.6-2.85l-2.74-7.35c-3.8-10.46-6.53-19.06-6.1-19.2s3.85,8.22,7.65,18.68q1.38,3.87,2.62,7.39c.35,1.1,1,2.35.44,3.77a2.42,2.42,0,0,1-1.63,1.36,6.42,6.42,0,0,1-1.65.18C274,180.19,271.57,180.15,271.56,179.93Z" style="fill:#263238"></path><path d="M289.85,163.21a3.49,3.49,0,0,1-3.48,3.43,3.41,3.41,0,0,1-3.6-3.23,3.49,3.49,0,0,1,3.48-3.43A3.4,3.4,0,0,1,289.85,163.21Z" style="fill:#263238"></path><path d="M294.92,151.55c-.33.4-3.17.34-6.72,1.71s-5.83,3.36-6.3,3.27c-.22,0,.05-.62,1-1.52a16.32,16.32,0,0,1,4.94-2.91,14.61,14.61,0,0,1,5.45-1.06C294.58,151.08,295.09,151.37,294.92,151.55Z" style="fill:#263238"></path><path d="M255.38,162.18a3.49,3.49,0,0,1-3.48,3.43,3.39,3.39,0,0,1-3.59-3.23,3.48,3.48,0,0,1,3.47-3.43A3.4,3.4,0,0,1,255.38,162.18Z" style="fill:#263238"></path><path d="M257.48,156.5c-.56,0-2.63-2.23-6.33-4s-7-2.13-7.23-2.56c-.14-.2.52-.41,2-.28a18,18,0,0,1,5.94,1.77,16.32,16.32,0,0,1,4.88,3.47C257.58,155.89,257.74,156.49,257.48,156.5Z" style="fill:#263238"></path><path d="M269.5,224.21s-14.74.83-32.93-10.48c0,0,5.44,19.25,33.12,17.38Z" style="fill:#eb996e"></path><path d="M269.78,188.92a7,7,0,0,0-6.11-2.65,6.24,6.24,0,0,0-4.37,2.17,3.85,3.85,0,0,0-.38,4.46c1,1.45,3.14,1.83,5,1.36a14.24,14.24,0,0,0,4.92-2.74,4.08,4.08,0,0,0,1.11-1.08,1.24,1.24,0,0,0,0-1.39" style="fill:#eb996e"></path><path d="M260.3,182.25c.62,0,.55,4.05,4,7s7.89,2.63,7.92,3.2c.05.25-1,.76-2.86.77a10.52,10.52,0,0,1-6.62-2.44,8.86,8.86,0,0,1-3.12-5.88C259.54,183.22,260,182.22,260.3,182.25Z" style="fill:#263238"></path><path d="M259.45,139.94c-.51,1-4.21-.07-8.71-.2s-8.24.54-8.7-.45c-.2-.47.55-1.32,2.13-2.09a14.52,14.52,0,0,1,6.68-1.26,14.75,14.75,0,0,1,6.59,1.75C259,138.57,259.68,139.49,259.45,139.94Z" style="fill:#263238"></path><path d="M295.74,139.55c-.69.84-3.3-.11-6.46-.23s-5.84.43-6.43-.47c-.26-.44.17-1.28,1.35-2.06a9.52,9.52,0,0,1,10.39.57C295.69,138.26,296,139.14,295.74,139.55Z" style="fill:#263238"></path><path d="M264.57,97.41c-2.14-3.29-5.91-4.67-10.07-5.1-17-1.79-35.34,9.22-44.14,23.85S202,152,209.65,167.25l8.57-5.5c13.14-1.39,31.42-32.77,49-53.88C269.37,105.24,266.43,100.27,264.57,97.41Z" style="fill:#263238"></path><path d="M297.35,107c-7.42-7.7-19.32-17-33.71-10.72-2,4.2,2.62,9.32,6.39,12.26,5.51,4.31,10.49,8.42,13.66,12,7.52,8.44,17.94,22.24,18,34.36,0,9.36-.63,8.92.13,8.77,0,0,4.8-8.27,5.73-13.27C312,125.93,304.77,114.7,297.35,107Z" style="fill:#263238"></path><path d="M219.87,160.19c-.41-.19-16.26-5.64-16.5,10.78s16.29,13.29,16.33,12.82S219.87,160.19,219.87,160.19Z" style="fill:#ffbe9d"></path><path d="M214.77,177.49c-.07-.06-.29.19-.77.41a2.88,2.88,0,0,1-2.14,0c-1.73-.66-3.15-3.44-3.18-6.4a9.41,9.41,0,0,1,.86-4.09,3.31,3.31,0,0,1,2.18-2.16,1.45,1.45,0,0,1,1.68.81c.21.46.1.79.19.82s.36-.27.24-.95a1.83,1.83,0,0,0-.64-1,2.11,2.11,0,0,0-1.57-.44,4,4,0,0,0-3,2.5,9.74,9.74,0,0,0-1.06,4.56c.06,3.31,1.71,6.44,4.07,7.16a3,3,0,0,0,2.62-.4C214.74,177.88,214.83,177.52,214.77,177.49Z" style="fill:#eb996e"></path><path d="M254.5,92.31c0-.11,1.27-.32,3.3.13a14.26,14.26,0,0,1,6.85,4.07,11.82,11.82,0,0,1,1.42,1.85,9.22,9.22,0,0,1,.86,2,21,21,0,0,1,1,3.43c.39,2.06,0,3.34-.15,3.3s0-1.26-.55-3.14a31.61,31.61,0,0,0-1.19-3.25,9.57,9.57,0,0,0-.84-1.8,11.85,11.85,0,0,0-1.31-1.67,15.63,15.63,0,0,0-6.31-4.07C255.74,92.53,254.49,92.48,254.5,92.31Z" style="fill:#455a64"></path><path d="M210.86,160a8.43,8.43,0,0,1-1.82-2.12,28.85,28.85,0,0,1-3.08-6,37.43,37.43,0,0,1-1.82-6.49,10.87,10.87,0,0,1-.28-2.77,24.67,24.67,0,0,1,.65,2.7,50.69,50.69,0,0,0,1.94,6.38,36.67,36.67,0,0,0,2.89,6C210.24,159.11,210.93,159.92,210.86,160Z" style="fill:#e0e0e0"></path><path d="M267.19,107.87a6.16,6.16,0,0,1-.47.63l-1.42,1.73c-1.22,1.53-2.92,3.77-4.88,6.66s-4.12,6.42-6.47,10.39-4.86,8.37-7.71,12.88a103.19,103.19,0,0,1-8.8,12.2c-1.54,1.72-3,3.39-4.49,4.79a19.31,19.31,0,0,1-4.67,3.35,10.45,10.45,0,0,1-4.61,1.12,8.79,8.79,0,0,1-3.51-.69,6.49,6.49,0,0,1-1.88-1.25,3.36,3.36,0,0,1-.4-.44.58.58,0,0,1-.12-.16,8.08,8.08,0,0,0,2.48,1.66,9.63,9.63,0,0,0,7.88-.57c3.12-1.52,6-4.66,9-8.12a109,109,0,0,0,8.72-12.16c2.84-4.5,5.36-8.9,7.74-12.86s4.57-7.49,6.58-10.35,3.76-5.09,5-6.58l1.5-1.67A4.09,4.09,0,0,1,267.19,107.87Z" style="fill:#263238"></path><path d="M208.16,188.5a9.07,9.07,0,0,1-1.5,2.47,14.19,14.19,0,0,1-6.5,4.42,16.31,16.31,0,0,1-11.57-.36,23,23,0,0,1-10.68-9.41A29.24,29.24,0,0,1,173.74,172c-.09-1.1,0-2.18,0-3.23s.13-2.07.31-3a31.66,31.66,0,0,1,1.24-5.33,27.9,27.9,0,0,1,3.46-7.09,16.56,16.56,0,0,1,1.28-1.73c.31-.38.47-.58.49-.56s-.61.83-1.6,2.4a29.74,29.74,0,0,0-3.28,7.1,31.36,31.36,0,0,0-1.16,5.27c-.17,1-.2,2-.28,3s0,2.1.05,3.19a29,29,0,0,0,4.14,13.42,22.71,22.71,0,0,0,10.41,9.24,16.05,16.05,0,0,0,11.28.45,14.3,14.3,0,0,0,6.45-4.2A23.23,23.23,0,0,0,208.16,188.5Z" style="fill:#263238"></path><path d="M183.41,184.78a1.88,1.88,0,0,1-.24-.43c-.13-.29-.37-.7-.59-1.28a22.6,22.6,0,0,1-1.4-5,24.65,24.65,0,0,1,16-27.32,22.88,22.88,0,0,1,5-1.21,13.78,13.78,0,0,1,1.41-.11,1.68,1.68,0,0,1,.49,0s-.67.11-1.87.3a25.2,25.2,0,0,0-4.94,1.36,25.55,25.55,0,0,0-6.6,3.72,23.87,23.87,0,0,0-9.16,15.62,25.87,25.87,0,0,0,1.2,12.55A17,17,0,0,1,183.41,184.78Z" style="fill:#e0e0e0"></path><path d="M195.47,191.82a1.62,1.62,0,0,1-.2-.38c-.11-.26-.29-.64-.47-1.16a29.69,29.69,0,0,1-1.24-4.41,31.86,31.86,0,0,1,7.95-28.12,29.53,29.53,0,0,1,3.37-3.11c.42-.34.78-.57,1-.73a1.74,1.74,0,0,1,.37-.23A11.77,11.77,0,0,1,205,154.8a36,36,0,0,0-3.23,3.2,32.77,32.77,0,0,0-7.86,27.8,37,37,0,0,0,1.07,4.42A11.14,11.14,0,0,1,195.47,191.82Z" style="fill:#455a64"></path><path d="M209.83,115.52a2.82,2.82,0,0,1,.62.07l1.74.3c.75.14,1.68.31,2.76.43s2.3.34,3.67.43l2.14.18c.74.06,1.52.06,2.33.1,1.6.09,3.32,0,5.13,0a77.18,77.18,0,0,0,23.05-4.28c1.69-.63,3.32-1.2,4.78-1.87.74-.32,1.47-.6,2.14-.93l1.93-.93c1.25-.58,2.31-1.21,3.27-1.72s1.77-1,2.42-1.4l1.52-.9a3.65,3.65,0,0,1,.55-.29,2.34,2.34,0,0,1-.49.38c-.39.25-.87.58-1.47,1s-1.43.94-2.38,1.47-2,1.2-3.25,1.79l-1.93,1c-.67.33-1.4.63-2.13,1-1.47.69-3.1,1.27-4.8,1.92A79.85,79.85,0,0,1,240,116.3a81.1,81.1,0,0,1-11.77,1.23c-1.82,0-3.55,0-5.16-.07-.81,0-1.59-.06-2.34-.13l-2.15-.21c-1.37-.11-2.6-.35-3.68-.51s-2-.35-2.75-.52l-1.72-.4A2.39,2.39,0,0,1,209.83,115.52Z" style="fill:#e0e0e0"></path><path d="M263.17,112.86a3.39,3.39,0,0,1-.46.38c-.31.23-.77.59-1.38,1-1.21.85-3,2-5.31,3.34a86.79,86.79,0,0,1-8.31,4.23,50.87,50.87,0,0,1-10.86,3.54,28,28,0,0,1-5.92.42,47.91,47.91,0,0,1-5.51-.43,45.68,45.68,0,0,1-9-2.23,39.72,39.72,0,0,1-5.75-2.55c-.66-.34-1.15-.65-1.48-.85a2.64,2.64,0,0,1-.5-.33s.74.36,2.07,1a47.4,47.4,0,0,0,5.78,2.38,47.21,47.21,0,0,0,14.44,2.5,28.27,28.27,0,0,0,5.83-.42,52.23,52.23,0,0,0,10.76-3.47c3.2-1.39,6-2.83,8.32-4.11s4.14-2.39,5.38-3.19c.63-.39,1.1-.72,1.43-.93A2,2,0,0,1,263.17,112.86Z" style="fill:#455a64"></path><path d="M297.71,107.86a4.66,4.66,0,0,1-1.07.42c-.7.24-1.73.53-3,.83a41.2,41.2,0,0,1-20.49-.71,29.49,29.49,0,0,1-3-1,5.78,5.78,0,0,1-1-.49c0-.09,1.56.5,4.1,1.16a46.37,46.37,0,0,0,10.12,1.49,46.86,46.86,0,0,0,10.19-.79C296.12,108.25,297.68,107.78,297.71,107.86Z" style="fill:#455a64"></path><path d="M304.79,118.62a4.52,4.52,0,0,1-1,.41,7.53,7.53,0,0,1-1.26.36,13.55,13.55,0,0,1-1.71.31,25.32,25.32,0,0,1-4.53.22,39.39,39.39,0,0,1-5.51-.66,50.28,50.28,0,0,1-9.6-2.91c-1.19-.49-2.13-.94-2.77-1.27a4.36,4.36,0,0,1-1-.55c0-.08,1.48.58,3.87,1.47a59.73,59.73,0,0,0,9.57,2.75,43.61,43.61,0,0,0,5.43.69,28.83,28.83,0,0,0,4.46-.1C303.26,119.07,304.76,118.51,304.79,118.62Z" style="fill:#455a64"></path><path d="M319.52,264.73s11.18,3.55,15.66,12,24.15,19.16,32.66,34.33,32.67,41.49,33.59,54-8.6,52.59-8.6,52.59H313.68l-7.47-102.45Z" style="fill:#407BFF"></path><path d="M214,213.73,201.3,238.27s-6.7-2.68-10.72-3.12-8.49,3.12-8.49,3.12-9.38.9-13,3.58-23.67,13.39-23.67,13.39-43.32,101.83-42,117.91,6.7,45.56,6.7,45.56l203.49-1s10.43-66.4,10.88-93.2-4.91-59.4-4.91-59.4a20.5,20.5,0,0,0-12.51-7.65c-8-1.28-15.18-6.19-20.54-7.09l-17-25s-8.49,41.6-15.89,62.08Z" style="fill:#407BFF"></path><path d="M255.61,281.91s0,.13-.11.38-.2.63-.34,1.08l-1.39,4.17c-.6,1.82-1.35,4-2.28,6.57s-1.94,5.46-3.19,8.64-2.55,6.68-4.08,10.39-3.2,7.66-5,11.8c-3.64,8.26-7.84,17.25-12.55,26.54s-9.57,17.95-14.12,25.74c-2.32,3.87-4.49,7.57-6.65,10.95s-4.14,6.55-6,9.41-3.61,5.4-5.13,7.64-2.86,4.16-4,5.71l-2.56,3.57c-.29.38-.51.69-.68.92a2,2,0,0,1-.25.3,3.71,3.71,0,0,1,.21-.33c.15-.24.36-.55.63-.95.58-.86,1.42-2.07,2.48-3.63s2.41-3.48,3.9-5.75,3.24-4.8,5.06-7.68,3.87-6,6-9.44,4.29-7.09,6.59-11c4.53-7.8,9.33-16.48,14.07-25.74s8.92-18.25,12.58-26.49c1.78-4.14,3.51-8.06,5-11.78s2.9-7.17,4.14-10.35,2.3-6.07,3.25-8.61,1.74-4.73,2.37-6.53,1.13-3.17,1.48-4.14l.39-1.07A2.6,2.6,0,0,1,255.61,281.91Z" style="fill:#263238"></path><path d="M228.3,346.54a1.24,1.24,0,0,1-.07-.28c0-.21-.1-.49-.17-.83-.14-.77-.34-1.84-.59-3.2l-2.17-11.77c-1.87-9.94-4.63-23.63-8.28-38.61s-7.58-28.39-10.65-38c-1.53-4.82-2.81-8.7-3.72-11.38-.44-1.31-.78-2.35-1-3.09-.1-.33-.19-.6-.25-.81a.82.82,0,0,1-.07-.28l.12.27c.07.2.17.46.3.79l1.12,3c1,2.66,2.3,6.53,3.88,11.33,3.16,9.61,7.14,23,10.81,38s6.36,28.71,8.14,38.66c.89,5,1.57,9,2,11.81.21,1.37.38,2.44.5,3.22,0,.34.08.62.11.83A1.27,1.27,0,0,1,228.3,346.54Z" style="fill:#263238"></path><path d="M291.09,253.28s.07.13.19.4l.54,1.22c.23.53.53,1.19.81,2s.66,1.72,1,2.79a60.8,60.8,0,0,1,1.87,7.86,69.55,69.55,0,0,1,.87,10.67,88.59,88.59,0,0,1-4.45,27.42c-3.15,10-8,20.52-13.64,31.23l-29,54.69-8.85,16.54L238,412.59l-.65,1.16c-.14.26-.23.39-.23.39s.06-.15.19-.41l.59-1.19L240.2,408l8.7-16.62c7.4-14,17.61-33.38,28.88-54.76,5.59-10.71,10.48-21.16,13.64-31.14A89.25,89.25,0,0,0,296,278.22a71,71,0,0,0-.79-10.62,63.68,63.68,0,0,0-1.79-7.85c-.28-1.07-.65-2-.91-2.8s-.54-1.47-.76-2-.37-.94-.48-1.24A4,4,0,0,1,291.09,253.28Z" style="fill:#263238"></path><path d="M316.16,311.29a2.33,2.33,0,0,1-.09-.59c0-.44-.09-1-.15-1.69-.1-1.47-.31-3.59-.62-6.21s-.78-5.72-1.41-9.14-1.51-7.15-2.57-11-2.3-7.51-3.5-10.78-2.42-6.16-3.51-8.55-2-4.33-2.67-5.64c-.31-.62-.55-1.13-.75-1.53a3.57,3.57,0,0,1-.23-.55,2.27,2.27,0,0,1,.32.5l.84,1.48c.72,1.29,1.69,3.2,2.82,5.58s2.38,5.28,3.63,8.55,2.46,6.91,3.55,10.8,1.9,7.64,2.54,11.07,1.05,6.56,1.3,9.19.42,4.76.47,6.24c0,.69,0,1.25.05,1.7A2.65,2.65,0,0,1,316.16,311.29Z" style="fill:#263238"></path><path d="M385.3,355.88a4.09,4.09,0,0,1-.76.23c-.49.15-1.24.31-2.18.59-1.89.51-4.61,1.34-7.91,2.51A146.2,146.2,0,0,0,349.76,371c-2.41,1.27-4.82,2.23-7.15,3.24l-6.73,2.8c-4.3,1.75-8.19,3.28-11.47,4.52s-6,2.22-7.82,2.84c-.93.33-1.66.55-2.15.7a3.48,3.48,0,0,1-.76.21,4.06,4.06,0,0,1,.73-.31l2.11-.79c1.84-.68,4.49-1.71,7.76-3s7.13-2.85,11.42-4.63l6.71-2.81c2.31-1,4.76-2,7.09-3.23a137.14,137.14,0,0,1,24.83-11.65c3.33-1.13,6.07-1.9,8-2.36.95-.24,1.7-.38,2.21-.49A4.41,4.41,0,0,1,385.3,355.88Z" style="fill:#263238"></path><path d="M320.24,346.54a2.43,2.43,0,0,1,.06-.62c.08-.45.17-1,.29-1.75.27-1.53.7-3.73,1.28-6.43,1.15-5.41,2.91-12.85,4.83-21.06s3.57-15.68,4.55-21.11c.51-2.72.85-4.93,1.08-6.46.1-.72.18-1.3.24-1.76a2.89,2.89,0,0,1,.13-.61,3.63,3.63,0,0,1,0,.62c0,.46-.09,1.05-.15,1.78-.16,1.54-.45,3.76-.91,6.49-.9,5.46-2.51,12.94-4.41,21.17l-5,21c-.6,2.65-1.08,4.81-1.44,6.38-.16.72-.28,1.29-.38,1.74A2.8,2.8,0,0,1,320.24,346.54Z" style="fill:#263238"></path><g style="opacity:0.30000000000000004"><path d="M170.72,263.76s-3-6.91,2.06-9.7,9.22,2.79,9.22,2.79,4.74-5.81,9.7-.85c3.39,3.39,0,8.24,0,8.24s7.89,3.19,2.78,9.94c-3.75,5-8.6,1-8.6,1s1.81,6.31-5,7.28-6.07-7.16-6.07-7.16-8.29,3.11-9.12-4.72C165,264,170.72,263.76,170.72,263.76Z" style="fill:#fff"></path></g><path d="M185.8,268.3a.84.84,0,0,0-.67.34l-2.29-.81a2.35,2.35,0,0,0,.08-.6,2.5,2.5,0,0,0-.25-1.1l2-1.32a.8.8,0,0,0,.45.14.82.82,0,1,0,0-1.64.82.82,0,0,0-.82.82.63.63,0,0,0,0,.19l-1.94,1.31a2.49,2.49,0,0,0-1.08-.78l.72-2.46h0a.82.82,0,1,0-.82-.82.84.84,0,0,0,.23.57l-.76,2.57a2.58,2.58,0,0,0-.29,0,2.49,2.49,0,0,0-.87.16l-1.14-2.27-.11.06a.82.82,0,1,0-1.3-.77.81.81,0,0,0,.7.92.69.69,0,0,0,.35,0l-.17.09L179,265.1a2.6,2.6,0,0,0-.89,1l-2.31-.82h0a.82.82,0,1,0-.22.56l2.33.82a3,3,0,0,0,0,.52,2.44,2.44,0,0,0,.34,1.23l-2,1.33a.83.83,0,0,0-.39-.14.82.82,0,1,0,.74.89.69.69,0,0,0,0-.25l2-1.34a2.63,2.63,0,0,0,.76.56l-.63,2.15a.82.82,0,1,0,.87.81.79.79,0,0,0-.31-.63l.63-2.13a2.51,2.51,0,0,0,.55.06,2.48,2.48,0,0,0,.86-.16l1.1,2.19a.86.86,0,0,0-.17.39.84.84,0,0,0,.71.93.82.82,0,0,0,.22-1.63.69.69,0,0,0-.25,0l-1.07-2.15a2.54,2.54,0,0,0,.85-1l2.36.84a.82.82,0,0,0,1.63-.11A.82.82,0,0,0,185.8,268.3Z" style="fill:#407BFF"></path><g style="opacity:0.30000000000000004"><path d="M158.83,323.11s-3-6.91,2.06-9.7,9.21,2.79,9.21,2.79,4.74-5.8,9.7-.85c3.39,3.4,0,8.24,0,8.24s7.89,3.19,2.79,10c-3.76,5-8.61,1-8.61,1s1.82,6.3-5,7.27-6.06-7.15-6.06-7.15-8.29,3.11-9.13-4.73C153.13,323.35,158.83,323.11,158.83,323.11Z" style="fill:#fff"></path></g><path d="M173.9,327.66a.81.81,0,0,0-.66.34l-2.29-.81a2.4,2.4,0,0,0-.18-1.7l1.95-1.33a.81.81,0,0,0,.46.14.82.82,0,1,0-.82-.82,1.11,1.11,0,0,0,0,.19L170.45,325a2.58,2.58,0,0,0-1.09-.78l.72-2.46h0a.83.83,0,0,0,0-1.65.83.83,0,0,0-.82.83.79.79,0,0,0,.23.56l-.75,2.57-.3,0a2.59,2.59,0,0,0-.87.17l-1.14-2.27-.11.05a.82.82,0,0,0-.38-1.47.81.81,0,0,0-.92.7.82.82,0,0,0,.7.93,1.1,1.1,0,0,0,.36,0l-.18.08,1.14,2.27a2.52,2.52,0,0,0-.9,1l-2.3-.81h0a.82.82,0,0,0-1.64,0,.82.82,0,0,0,1.42.56l2.33.83a2.1,2.1,0,0,0-.05.51,2.5,2.5,0,0,0,.33,1.24l-2,1.32a.82.82,0,1,0,.36.76.74.74,0,0,0,0-.26l2-1.34a2.58,2.58,0,0,0,.75.56l-.63,2.15a.82.82,0,0,0,0,1.64.83.83,0,0,0,.83-.83.84.84,0,0,0-.31-.63l.62-2.13a2.51,2.51,0,0,0,.55.07,2.68,2.68,0,0,0,.86-.16l1.1,2.18a.9.9,0,0,0-.16.39.82.82,0,1,0,.92-.7,1,1,0,0,0-.24,0l-1.08-2.15a2.51,2.51,0,0,0,.85-.95l2.36.83a.82.82,0,1,0,.81-.92Z" style="fill:#407BFF"></path><g style="opacity:0.30000000000000004"><path d="M198.87,341.13s-3-6.91,2.06-9.7,9.22,2.79,9.22,2.79,4.74-5.8,9.7-.85c3.39,3.4,0,8.24,0,8.24s7.89,3.19,2.78,9.95c-3.75,5-8.6,1-8.6,1s1.81,6.3-5,7.27-6.07-7.15-6.07-7.15-8.29,3.11-9.12-4.73C193.17,341.37,198.87,341.13,198.87,341.13Z" style="fill:#fff"></path></g><path d="M214,345.68a.81.81,0,0,0-.67.34l-2.29-.81a2.45,2.45,0,0,0-.17-1.7l2-1.33a.8.8,0,0,0,.45.14.82.82,0,1,0-.82-.82.58.58,0,0,0,0,.19L210.5,343a2.58,2.58,0,0,0-1.09-.78l.72-2.46h0a.82.82,0,1,0-.82-.82.79.79,0,0,0,.23.56l-.76,2.57a2.58,2.58,0,0,0-.29,0,2.49,2.49,0,0,0-.87.17L206.52,340l-.11.05a.82.82,0,1,0-.6.16,1,1,0,0,0,.35,0l-.17.08,1.13,2.27a2.64,2.64,0,0,0-.89,1l-2.31-.81h0a.82.82,0,1,0-.22.56l2.33.83a2.76,2.76,0,0,0-.05.51,2.51,2.51,0,0,0,.34,1.24l-2,1.32A1,1,0,0,0,204,347a.82.82,0,0,0-.89.74.83.83,0,0,0,.74.9.82.82,0,0,0,.89-.74.74.74,0,0,0,0-.26l2-1.34a2.63,2.63,0,0,0,.76.56l-.63,2.15a.82.82,0,1,0,.87.82.81.81,0,0,0-.31-.64l.63-2.13a2.51,2.51,0,0,0,.55.07,2.73,2.73,0,0,0,.86-.16l1.1,2.19a.81.81,0,0,0,.54,1.31.81.81,0,0,0,.92-.7.82.82,0,0,0-.7-.93.92.92,0,0,0-.24,0l-1.08-2.15a2.51,2.51,0,0,0,.85-1l2.36.83a.82.82,0,1,0,.81-.92Z" style="fill:#407BFF"></path><g style="opacity:0.30000000000000004"><path d="M288.2,363s-3-6.91,2.06-9.7,9.21,2.79,9.21,2.79,4.75-5.81,9.7-.85c3.4,3.39,0,8.24,0,8.24s7.9,3.19,2.79,10c-3.76,5-8.61,1-8.61,1s1.82,6.3-5,7.27-6.06-7.15-6.06-7.15-8.29,3.1-9.12-4.73C282.5,363.28,288.2,363,288.2,363Z" style="fill:#fff"></path></g><path d="M303.27,367.58a.81.81,0,0,0-.66.35l-2.29-.81a2.49,2.49,0,0,0,.08-.61,2.58,2.58,0,0,0-.26-1.1l1.95-1.32a.81.81,0,0,0,.46.14.82.82,0,1,0-.82-.82,1.11,1.11,0,0,0,0,.19l-1.93,1.31a2.52,2.52,0,0,0-1.09-.78l.72-2.46h0a.83.83,0,1,0-.82-.82.79.79,0,0,0,.23.56l-.75,2.57a2.77,2.77,0,0,0-.3,0,2.73,2.73,0,0,0-.86.16l-1.14-2.26-.11.05a.82.82,0,1,0-.61.16,1.05,1.05,0,0,0,.36,0l-.18.08,1.14,2.27a2.43,2.43,0,0,0-.89,1l-2.31-.81h0a.82.82,0,1,0-.82.82.81.81,0,0,0,.6-.26l2.33.83a2.76,2.76,0,0,0-.05.51,2.61,2.61,0,0,0,.33,1.24l-2,1.32a.82.82,0,1,0-.54,1.5.82.82,0,0,0,.9-.74.74.74,0,0,0,0-.26l2-1.34a2.58,2.58,0,0,0,.75.56l-.63,2.15a.81.81,0,0,0-.76.81.82.82,0,1,0,1.64,0,.81.81,0,0,0-.31-.63l.63-2.13a2.35,2.35,0,0,0,.54.07,2.49,2.49,0,0,0,.87-.17l1.1,2.19a.81.81,0,0,0-.17.39.82.82,0,0,0,.7.93.82.82,0,1,0,.22-1.63,1,1,0,0,0-.24,0l-1.08-2.15a2.54,2.54,0,0,0,.85-1l2.36.84a.82.82,0,1,0,.81-.93Z" style="fill:#407BFF"></path><g style="opacity:0.30000000000000004"><path d="M347.6,338.79s-3-6.91,2.06-9.7,9.21,2.79,9.21,2.79,4.75-5.81,9.7-.85c3.4,3.39,0,8.24,0,8.24s7.9,3.19,2.79,9.94c-3.76,5-8.61,1-8.61,1s1.82,6.31-5,7.28-6.06-7.16-6.06-7.16-8.29,3.11-9.12-4.72C341.9,339,347.6,338.79,347.6,338.79Z" style="fill:#fff"></path></g><path d="M362.68,343.33a.84.84,0,0,0-.67.34l-2.29-.81a2.35,2.35,0,0,0,.08-.6,2.5,2.5,0,0,0-.25-1.1l1.95-1.32a.77.77,0,0,0,.45.14.82.82,0,1,0-.82-.82.63.63,0,0,0,0,.19l-1.94,1.31a2.49,2.49,0,0,0-1.08-.78l.72-2.46h0a.82.82,0,1,0-.82-.82.79.79,0,0,0,.23.57l-.76,2.57a2.85,2.85,0,0,0-.29,0,2.49,2.49,0,0,0-.87.16l-1.14-2.27-.11.06a.83.83,0,1,0-.6.15.69.69,0,0,0,.35,0l-.18.09,1.14,2.26a2.53,2.53,0,0,0-.89,1.05l-2.31-.82h0a.82.82,0,1,0-.22.56l2.33.82a3,3,0,0,0-.05.52,2.54,2.54,0,0,0,.33,1.23l-2,1.33a.77.77,0,0,0-.39-.14.82.82,0,1,0,.74.89.69.69,0,0,0,0-.25l2-1.34a2.72,2.72,0,0,0,.75.56l-.63,2.15a.82.82,0,0,0,.06,1.63.82.82,0,0,0,.82-.82.79.79,0,0,0-.31-.63l.63-2.13a2.44,2.44,0,0,0,.55.06,2.48,2.48,0,0,0,.86-.16l1.1,2.19a.77.77,0,0,0-.17.39.82.82,0,1,0,1.63.22.81.81,0,0,0-.7-.92.69.69,0,0,0-.25,0l-1.07-2.15a2.54,2.54,0,0,0,.85-1l2.35.84a.83.83,0,0,0,.82.71.82.82,0,1,0,0-1.64Z" style="fill:#407BFF"></path><g style="opacity:0.30000000000000004"><path d="M357.51,388.73s-3-6.91,2.06-9.69,9.21,2.78,9.21,2.78,4.75-5.8,9.7-.84c3.39,3.39,0,8.24,0,8.24s7.9,3.19,2.79,9.94c-3.76,5-8.61,1-8.61,1s1.82,6.31-5,7.28-6.06-7.16-6.06-7.16-8.29,3.11-9.12-4.73C351.81,389,357.51,388.73,357.51,388.73Z" style="fill:#fff"></path></g><path d="M372.58,393.28a.83.83,0,0,0-.66.34l-2.29-.81a2.43,2.43,0,0,0,.08-.61,2.5,2.5,0,0,0-.26-1.09l1.95-1.32a.89.89,0,0,0,.46.14.83.83,0,1,0-.82-.83,1.36,1.36,0,0,0,0,.2l-1.93,1.31a2.6,2.6,0,0,0-1.09-.79l.72-2.45h0a.82.82,0,1,0-.82-.82.84.84,0,0,0,.23.57l-.75,2.57-.3,0a2.48,2.48,0,0,0-.86.16l-1.15-2.27-.11.06a.83.83,0,0,0,.33-.55.82.82,0,0,0-.71-.92.82.82,0,1,0-.22,1.62.73.73,0,0,0,.36,0l-.18.09,1.14,2.26a2.55,2.55,0,0,0-.9,1.05l-2.3-.82h0a.82.82,0,1,0-.22.56l2.33.82a2.21,2.21,0,0,0-.05.51,2.47,2.47,0,0,0,.33,1.24l-2,1.33a.73.73,0,0,0-.38-.14.82.82,0,1,0-.16,1.63.83.83,0,0,0,.9-.74.76.76,0,0,0,0-.26l2-1.33a2.39,2.39,0,0,0,.75.55l-.63,2.15a.85.85,0,1,0,.57.19l.62-2.13a2.51,2.51,0,0,0,.55.06,2.43,2.43,0,0,0,.86-.16l1.11,2.19a.77.77,0,0,0-.17.39.81.81,0,0,0,.7.92.82.82,0,1,0,.22-1.62.65.65,0,0,0-.24,0l-1.08-2.14a2.54,2.54,0,0,0,.85-1l2.36.83a.82.82,0,1,0,.81-.92Z" style="fill:#407BFF"></path><g style="opacity:0.30000000000000004"><path d="M224.07,284.88s-2.82-6.41,1.91-9,8.55,2.59,8.55,2.59,4.4-5.39,9-.79c3.15,3.15,0,7.65,0,7.65s7.33,3,2.59,9.22c-3.49,4.62-8,.9-8,.9s1.69,5.85-4.61,6.75-5.63-6.63-5.63-6.63-7.69,2.88-8.46-4.39C218.78,285.1,224.07,284.88,224.07,284.88Z" style="fill:#fff"></path></g><path d="M238.06,289.1a.76.76,0,0,0-.62.31l-2.13-.75a2.1,2.1,0,0,0,.08-.56,2.32,2.32,0,0,0-.24-1l1.81-1.23a.71.71,0,0,0,.43.13.76.76,0,1,0-.77-.76.57.57,0,0,0,0,.18l-1.8,1.22a2.31,2.31,0,0,0-1-.73l.67-2.28h0a.75.75,0,1,0-.55-.23l-.7,2.38-.27,0a2.16,2.16,0,0,0-.81.15l-1.06-2.11-.1.05a.77.77,0,0,0,.3-.51.75.75,0,0,0-.65-.85.76.76,0,0,0-.86.65.77.77,0,0,0,.65.86.89.89,0,0,0,.33,0l-.16.08,1.05,2.1a2.37,2.37,0,0,0-.83,1l-2.13-.76h0a.77.77,0,0,0-.77-.76.76.76,0,1,0,0,1.52.8.8,0,0,0,.56-.24l2.16.76a2.52,2.52,0,0,0-.05.48,2.38,2.38,0,0,0,.31,1.15l-1.81,1.23a.78.78,0,0,0-.36-.13.76.76,0,0,0-.83.68.76.76,0,0,0,1.52.15.62.62,0,0,0,0-.24l1.83-1.24a2.38,2.38,0,0,0,.7.51l-.59,2a.76.76,0,1,0,.53.17l.58-2a2.1,2.1,0,0,0,.51.06,2.37,2.37,0,0,0,.8-.15l1,2a.83.83,0,0,0-.16.36.77.77,0,0,0,.66.86.75.75,0,0,0,.85-.65.76.76,0,0,0-.65-.86.79.79,0,0,0-.22,0l-1-2a2.43,2.43,0,0,0,.79-.89l2.18.77a.76.76,0,1,0,.76-.85Z" style="fill:#407BFF"></path><g style="opacity:0.30000000000000004"><path d="M209.13,242.28s-2.2-5,1.5-7.05,6.69,2,6.69,2,3.45-4.22,7.05-.62c2.46,2.47,0,6,0,6s5.73,2.32,2,7.22c-2.73,3.61-6.25.71-6.25.71s1.32,4.58-3.61,5.28-4.4-5.2-4.4-5.2-6,2.26-6.63-3.43C205,242.45,209.13,242.28,209.13,242.28Z" style="fill:#fff"></path></g><path d="M220.08,245.58a.59.59,0,0,0-.48.25l-1.66-.59a2.12,2.12,0,0,0,.05-.44,2,2,0,0,0-.18-.8l1.42-1a.52.52,0,0,0,.33.1.58.58,0,0,0,.59-.59.59.59,0,0,0-.59-.6.6.6,0,0,0-.6.6.78.78,0,0,0,0,.14l-1.41.95a1.76,1.76,0,0,0-.79-.57l.53-1.79h0a.59.59,0,0,0,.59-.6.58.58,0,0,0-.59-.59.59.59,0,0,0-.43,1l-.55,1.87-.21,0a1.61,1.61,0,0,0-.63.12l-.83-1.65-.08,0a.6.6,0,0,0-.28-1.07.59.59,0,0,0-.67.51.58.58,0,0,0,.51.67.74.74,0,0,0,.26,0l-.13.06.83,1.65a1.72,1.72,0,0,0-.65.76l-1.68-.6h0a.6.6,0,1,0-.59.6.61.61,0,0,0,.43-.19l1.69.6a2.22,2.22,0,0,0,0,.37,1.83,1.83,0,0,0,.24.9l-1.42,1a.67.67,0,0,0-.28-.1.6.6,0,0,0-.65.53.61.61,0,0,0,.53.66.61.61,0,0,0,.64-.73l1.43-1a2,2,0,0,0,.55.41l-.46,1.56a.59.59,0,0,0-.56.59.6.6,0,1,0,1.2,0,.58.58,0,0,0-.23-.46l.46-1.55a1.75,1.75,0,0,0,.4.05,1.8,1.8,0,0,0,.62-.12l.8,1.59a.58.58,0,0,0-.12.29.6.6,0,1,0,.67-.52H218l-.79-1.56a1.88,1.88,0,0,0,.62-.69l1.71.6a.6.6,0,0,0,1.19-.07A.6.6,0,0,0,220.08,245.58Z" style="fill:#407BFF"></path><g style="opacity:0.30000000000000004"><path d="M216.62,386.57s-3-6.91,2.06-9.7,9.21,2.79,9.21,2.79,4.75-5.8,9.7-.85c3.4,3.4,0,8.25,0,8.25s7.9,3.18,2.79,9.94c-3.76,5-8.61,1-8.61,1s1.82,6.3-5,7.27-6.06-7.15-6.06-7.15-8.29,3.11-9.12-4.73C210.92,386.81,216.62,386.57,216.62,386.57Z" style="fill:#fff"></path></g><path d="M231.69,391.12a.81.81,0,0,0-.66.34l-2.29-.81a2.4,2.4,0,0,0-.18-1.7l1.95-1.33a.81.81,0,0,0,.46.14.82.82,0,1,0-.82-.82,1.11,1.11,0,0,0,0,.19l-1.93,1.31a2.52,2.52,0,0,0-1.09-.78l.72-2.46h0a.82.82,0,1,0-.83-.82.84.84,0,0,0,.23.57l-.75,2.57a1.45,1.45,0,0,0-.3,0,2.48,2.48,0,0,0-.86.16l-1.14-2.27-.11.05a.8.8,0,0,0,.32-.54.82.82,0,1,0-.93.7.85.85,0,0,0,.36,0l-.18.09,1.14,2.26a2.56,2.56,0,0,0-.89,1l-2.31-.81h0a.83.83,0,1,0-.22.56l2.33.83a2.84,2.84,0,0,0-.05.51,2.61,2.61,0,0,0,.33,1.24l-2,1.33a.84.84,0,0,0-.38-.15.82.82,0,1,0,.74.9.74.74,0,0,0,0-.26l2-1.34a2.58,2.58,0,0,0,.75.56l-.63,2.15a.82.82,0,0,0,.06,1.64.82.82,0,0,0,.82-.82.81.81,0,0,0-.31-.64l.63-2.13a2.42,2.42,0,0,0,.54.07,2.74,2.74,0,0,0,.87-.16l1.1,2.19a.77.77,0,0,0-.17.39.82.82,0,0,0,1.63.22.83.83,0,0,0-.71-.93,1,1,0,0,0-.24,0l-1.08-2.14a2.64,2.64,0,0,0,.86-1l2.35.83a.82.82,0,0,0,1.63-.1A.81.81,0,0,0,231.69,391.12Z" style="fill:#407BFF"></path><g style="opacity:0.30000000000000004"><path d="M245.24,330.18s-3-6.91,2.06-9.7,9.21,2.79,9.21,2.79,4.75-5.81,9.7-.85c3.4,3.39,0,8.24,0,8.24s7.9,3.19,2.79,9.94c-3.76,5-8.61,1-8.61,1s1.82,6.31-5,7.28-6.06-7.15-6.06-7.15-8.29,3.1-9.12-4.73C239.54,330.42,245.24,330.18,245.24,330.18Z" style="fill:#fff"></path></g><path d="M260.31,334.72a.81.81,0,0,0-.66.35l-2.29-.81a2.49,2.49,0,0,0,.08-.61,2.54,2.54,0,0,0-.26-1.1l1.95-1.32a.81.81,0,0,0,.46.14.82.82,0,1,0-.82-.82,1.23,1.23,0,0,0,0,.19l-1.93,1.31a2.58,2.58,0,0,0-1.09-.78l.72-2.46h0a.83.83,0,1,0-.82-.83.84.84,0,0,0,.23.57l-.75,2.57-.3,0a2.48,2.48,0,0,0-.86.16L252.88,329l-.1.06a.86.86,0,0,0,.32-.55.82.82,0,1,0-.93.71.87.87,0,0,0,.36,0l-.18.09,1.14,2.27a2.52,2.52,0,0,0-.9,1l-2.3-.82h0a.82.82,0,1,0-.82.82.81.81,0,0,0,.6-.26l2.33.82a2.24,2.24,0,0,0-.05.52,2.43,2.43,0,0,0,.33,1.23l-2,1.33a.82.82,0,0,0-1.28.6.82.82,0,0,0,1.64.15.71.71,0,0,0,0-.25l2-1.34a2.58,2.58,0,0,0,.75.56l-.63,2.15a.82.82,0,1,0,.88.81.81.81,0,0,0-.31-.63l.62-2.13a2.51,2.51,0,0,0,.55.06,2.43,2.43,0,0,0,.86-.16l1.11,2.19a.77.77,0,0,0-.17.39.82.82,0,0,0,.7.93.84.84,0,0,0,.93-.71.82.82,0,0,0-.71-.92.65.65,0,0,0-.24,0l-1.08-2.15a2.54,2.54,0,0,0,.85-1l2.36.84a.82.82,0,1,0,.81-.93Z" style="fill:#407BFF"></path><g style="opacity:0.30000000000000004"><path d="M267.49,277.4s-3-6.91,2.07-9.7,9.21,2.79,9.21,2.79,4.74-5.81,9.7-.85c3.39,3.39,0,8.24,0,8.24s7.89,3.19,2.79,9.94c-3.76,5-8.61,1-8.61,1s1.82,6.31-5,7.28-6.06-7.15-6.06-7.15-8.29,3.1-9.13-4.73C261.8,277.64,267.49,277.4,267.49,277.4Z" style="fill:#fff"></path></g><path d="M282.57,281.94a.8.8,0,0,0-.66.35l-2.29-.81a3.09,3.09,0,0,0,.08-.61,2.54,2.54,0,0,0-.26-1.1l1.95-1.32a.81.81,0,0,0,.46.14.82.82,0,1,0-.82-.82,1.23,1.23,0,0,0,0,.19l-1.93,1.31a2.58,2.58,0,0,0-1.09-.78l.72-2.46h0a.84.84,0,1,0-.59-.26l-.75,2.57-.3,0a2.79,2.79,0,0,0-.87.16l-1.14-2.27-.11.06a.82.82,0,0,0,.32-.55.82.82,0,1,0-1.62-.22.8.8,0,0,0,1,.89l-.17.09,1.14,2.27a2.52,2.52,0,0,0-.9,1l-2.3-.82h0a.82.82,0,1,0-.22.56l2.33.82a2.24,2.24,0,0,0-.06.52,2.51,2.51,0,0,0,.34,1.24l-2,1.32a.82.82,0,0,0-1.28.6.82.82,0,0,0,1.64.16,2.11,2.11,0,0,0,0-.26l2-1.34a2.46,2.46,0,0,0,.75.56l-.63,2.15a.82.82,0,1,0,.87.81.83.83,0,0,0-.3-.63l.62-2.13a2.51,2.51,0,0,0,.55.06,2.48,2.48,0,0,0,.86-.16l1.1,2.19a.85.85,0,0,0-.16.39.82.82,0,1,0,.92-.7.65.65,0,0,0-.24,0L278.55,283a2.54,2.54,0,0,0,.85-1l2.36.84a.82.82,0,1,0,.81-.93Z" style="fill:#407BFF"></path><g style="opacity:0.30000000000000004"><path d="M172.52,390.18s-3-6.91,2.06-9.69,9.22,2.78,9.22,2.78,4.74-5.8,9.7-.84c3.39,3.39,0,8.24,0,8.24s7.89,3.19,2.79,9.94c-3.76,5-8.61,1-8.61,1s1.82,6.31-5,7.28-6.06-7.16-6.06-7.16-8.29,3.11-9.13-4.73C166.83,390.43,172.52,390.18,172.52,390.18Z" style="fill:#fff"></path></g><path d="M187.6,394.73a.85.85,0,0,0-.67.34l-2.29-.81a2.36,2.36,0,0,0,.09-.61,2.5,2.5,0,0,0-.26-1.09l1.95-1.32a.89.89,0,0,0,.46.14.83.83,0,1,0-.82-.82,1.37,1.37,0,0,0,0,.19l-1.93,1.31a2.6,2.6,0,0,0-1.09-.79l.72-2.45h0A.82.82,0,1,0,183,388a.84.84,0,0,0,.23.57l-.75,2.57-.3,0a2.49,2.49,0,0,0-.87.16L180.17,389l-.11.06a.82.82,0,0,0,.32-.55.82.82,0,1,0-.92.7.69.69,0,0,0,.35,0l-.17.09,1.14,2.26a2.55,2.55,0,0,0-.9,1.05l-2.3-.82h0a.83.83,0,0,0-1.65,0,.83.83,0,0,0,.83.82.81.81,0,0,0,.59-.26l2.34.82a2.22,2.22,0,0,0-.06.51,2.48,2.48,0,0,0,.34,1.24l-2,1.33a.73.73,0,0,0-.38-.14.81.81,0,0,0-.9.74.82.82,0,0,0,1.63.15,1.13,1.13,0,0,0,0-.26l2-1.33a2.46,2.46,0,0,0,.75.56l-.63,2.14a.82.82,0,0,0,.05,1.64.82.82,0,0,0,.52-1.45l.62-2.13a2.51,2.51,0,0,0,.55.06A2.48,2.48,0,0,0,183,396l1.1,2.19a.85.85,0,0,0-.16.39.82.82,0,1,0,.92-.7h-.24l-1.08-2.14a2.54,2.54,0,0,0,.85-1l2.36.84a.82.82,0,0,0,1.63-.11A.82.82,0,0,0,187.6,394.73Z" style="fill:#407BFF"></path><path d="M145.33,255.42l-14.8,40.73s-13.69,10.21-15.77,15.14c-1.38,3.27-4.71,19.36-4.71,19.36s-13,41.11-14.81,52.64C91.68,405.83,106.71,421,106.71,421s35.8,3.1,45.48-6.84a62.08,62.08,0,0,0,13.47-21.66l.7-84.48Z" style="fill:#407BFF"></path><g style="opacity:0.30000000000000004"><path d="M137.41,303.36s-2.43-5.53,1.65-7.77,7.37,2.24,7.37,2.24,3.8-4.65,7.77-.68c2.72,2.72,0,6.6,0,6.6s6.32,2.55,2.23,8c-3,4-6.89.78-6.89.78s1.46,5-4,5.82-4.85-5.73-4.85-5.73-6.64,2.49-7.31-3.78C132.84,303.55,137.41,303.36,137.41,303.36Z" style="fill:#fff"></path></g><path d="M149.48,307a.66.66,0,0,0-.53.27l-1.84-.64a1.87,1.87,0,0,0-.14-1.37l1.56-1.06a.67.67,0,0,0,.37.11.66.66,0,1,0-.66-.65.77.77,0,0,0,0,.15l-1.55,1.05a2,2,0,0,0-.87-.63l.58-2h0a.66.66,0,1,0,0-1.32.67.67,0,0,0-.66.66.69.69,0,0,0,.19.46l-.6,2.05-.24,0a2,2,0,0,0-.7.13l-.91-1.82-.09,0a.65.65,0,1,0-.2.1l-.14.07.91,1.81a2.07,2.07,0,0,0-.71.84l-1.85-.66h0a.66.66,0,1,0-.66.66.65.65,0,0,0,.48-.21l1.87.66a1.84,1.84,0,0,0,0,.41,2,2,0,0,0,.27,1l-1.57,1.06a.64.64,0,0,0-.31-.11.66.66,0,0,0-.72.59.67.67,0,0,0,.6.72.65.65,0,0,0,.71-.59.72.72,0,0,0,0-.21l1.58-1.07a2.25,2.25,0,0,0,.6.45l-.51,1.72a.65.65,0,0,0-.61.65.66.66,0,1,0,1.31,0,.64.64,0,0,0-.24-.51l.5-1.7a2.12,2.12,0,0,0,.44.05,2,2,0,0,0,.69-.13l.88,1.75a.61.61,0,0,0-.13.31.68.68,0,1,0,.54-.55l-.86-1.72a2,2,0,0,0,.68-.77l1.89.67a.65.65,0,1,0,.65-.74Z" style="fill:#407BFF"></path><path d="M166.42,305.5c-.13.05-4.16-9.24-9-20.75s-8.65-20.9-8.52-20.95,4.16,9.23,9,20.75S166.55,305.44,166.42,305.5Z" style="fill:#263238"></path><path d="M196.39,321.53c-.14,0-1.41-14.67-2.84-32.79s-2.46-32.83-2.32-32.84,1.41,14.67,2.84,32.8S196.54,321.52,196.39,321.53Z" style="fill:#263238"></path><path d="M140.37,348.59a2.82,2.82,0,0,1,.45.26l1.23.82,4.49,3.12c3.77,2.65,9,6.34,14.68,10.44,1.42,1,2.82,2,4.16,3a10.71,10.71,0,0,1,3.27,3.58,12.36,12.36,0,0,1,.89,8,28.12,28.12,0,0,1-1.66,5.22c-.25.6-.45,1.06-.59,1.37a2.18,2.18,0,0,1-.24.46,1.67,1.67,0,0,1,.14-.5l.5-1.4a32.14,32.14,0,0,0,1.48-5.22,12.15,12.15,0,0,0-.95-7.75,10.31,10.31,0,0,0-3.14-3.4l-4.17-3c-5.71-4.1-10.87-7.84-14.59-10.56l-4.38-3.25c-.48-.36-.86-.66-1.18-.91A2,2,0,0,1,140.37,348.59Z" style="fill:#263238"></path><path d="M166.42,305.5a2.45,2.45,0,0,1,.06.61c0,.46,0,1,.05,1.76,0,1.53.06,3.75.07,6.48,0,5.48,0,13-.19,21.38s-.51,15.91-.92,21.37c-.21,2.73-.42,4.93-.62,6.45-.11.71-.19,1.29-.25,1.75a2.43,2.43,0,0,1-.12.6,2.9,2.9,0,0,1,0-.62c0-.45.09-1,.15-1.75.14-1.52.3-3.73.46-6.46.32-5.45.58-13,.77-21.35s.27-15.9.34-21.37c0-2.68.07-4.88.1-6.48,0-.72,0-1.3,0-1.76A2.92,2.92,0,0,1,166.42,305.5Z" style="fill:#263238"></path><g style="opacity:0.30000000000000004"><path d="M271.31,418.1c.7-4.94,3.42-11.4,5.64-15.87a22,22,0,0,1,10.29-10.48c3.8-1.68,8.08-1.93,12.23-1.78,7.77.29,11.8-1.59,19.42,0,1.24.25,4.08,3.79,5.27,4.22.43.16,2.15,4.25,2,6.07-.21,3.51.48,6.85-.84,10.1s-3.92,6.2-7.34,7c-5,1.15-10.14-2.53-15.26-1.82a38.46,38.46,0,0,0-6.93,2.27Z"></path></g><g style="opacity:0.30000000000000004"><path d="M119.28,400.24c.43-.46,41.24,7.16,60.33,15.56-6.77,1.47-13.77,0-20.65-.77a100.34,100.34,0,0,0-26.76.6c-8,1.26-16.09,3.51-24.14,2.41C108.06,418,112.29,407.75,119.28,400.24Z"></path></g><path d="M106.71,421a5,5,0,0,1,.24-.77c.19-.49.43-1.24.84-2.16a57.94,57.94,0,0,1,3.86-7.6,85.73,85.73,0,0,1,7.33-10.3c3-3.69,6.54-7.55,10.33-11.51a49.94,49.94,0,0,1,12.31-9.38A40.5,40.5,0,0,1,153.53,375a31.93,31.93,0,0,1,8.51-.45,21.55,21.55,0,0,1,2.3.29,4.35,4.35,0,0,1,.8.15,4.44,4.44,0,0,1-.81,0c-.53,0-1.3-.18-2.3-.19a34.53,34.53,0,0,0-8.43.61,41,41,0,0,0-11.75,4.28A50.24,50.24,0,0,0,129.69,389c-3.79,4-7.33,7.8-10.34,11.46A90,90,0,0,0,112,410.64a66,66,0,0,0-4,7.49c-.43.91-.7,1.64-.92,2.12A5.44,5.44,0,0,1,106.71,421Z" style="fill:#263238"></path><g style="opacity:0.30000000000000004"><path d="M150.19,347c-2.39-2.32-5.28-4.48-8.62-4.63-3.09-.14-5.95,1.47-8.62,3-10.67,6.22-23.06,11.56-27.27,22.93a207.28,207.28,0,0,1,21.66-14c3-1.7,6.87-3.46,9.94-5.08s8.68,3.27,12.51,6.1,7.31,5.11,11.28,8.22A46,46,0,0,0,150.19,347Z"></path></g><g style="opacity:0.30000000000000004"><path d="M192.92,279.51a110.88,110.88,0,0,1,5.43,56.43q-3.33-27.62-5-55.39"></path></g><g style="opacity:0.30000000000000004"><path d="M204.67,389.84c16.19-32.23,30.71-67.44,47.91-99.15-11.3,33.89-29.05,68.4-47.91,99.15"></path></g><g style="opacity:0.30000000000000004"><path d="M323.7,381.66a84.24,84.24,0,0,0-3.32-56.6,227,227,0,0,1-5.51,59.82Z"></path></g><path d="M320,318.63a3.1,3.1,0,0,1,.12.67c0,.5.12,1.14.22,1.93.19,1.68.38,4.12.55,7.13s.28,6.61.27,10.61-.2,8.38-.55,13-.9,9-1.48,12.91-1.27,7.49-1.92,10.44-1.21,5.32-1.66,6.95c-.21.77-.38,1.39-.52,1.87a3.23,3.23,0,0,1-.21.65,2.94,2.94,0,0,1,.11-.67c.11-.49.25-1.12.43-1.9.38-1.64.9-4,1.49-7s1.22-6.49,1.8-10.43,1.08-8.29,1.44-12.88.52-9,.59-12.94,0-7.57-.15-10.58-.27-5.45-.4-7.13c-.05-.8-.09-1.44-.12-1.94A5,5,0,0,1,320,318.63Z" style="fill:#263238"></path><path d="M320.21,417.54A33.33,33.33,0,0,0,323,414a18.5,18.5,0,0,0,2.92-10.31,27.87,27.87,0,0,0-.55-6,12.36,12.36,0,0,0-1.94-4.42,22,22,0,0,0-3.13-3.25,5.11,5.11,0,0,1,1,.66,11.89,11.89,0,0,1,4.5,6.9,26.57,26.57,0,0,1,.6,6.08,18,18,0,0,1-3.13,10.51,16.11,16.11,0,0,1-2.16,2.57A4.85,4.85,0,0,1,320.21,417.54Z" style="fill:#263238"></path><path d="M360.57,313.25c.14,0-4.09,13.37-9.43,29.75s-9.79,29.64-9.93,29.6,4.09-13.37,9.43-29.76S360.43,313.2,360.57,313.25Z" style="fill:#263238"></path><g style="opacity:0.30000000000000004"><path d="M344.67,373.05c11.08-7.91,23.17-15.94,36.23-19.8,3.72-1.11,8.38-1.6,10.91,1.35-8.33,1.7-17.14,3.16-24.65,7.24s-14.71,7.06-22.49,11.21"></path></g><path d="M259.09,415.11l8.67-21.74,14.45-14s2.89-2.08,4.81-1.6,21.84,4,21.84,4L320.32,390a13.91,13.91,0,0,1,4.91,16.57,7.76,7.76,0,0,1-3.21,3.93c-5.94,3.38-9.47,0-9.47,0l-6.1-2.89-7.13.79s-11.49,13.5-15.67,13.34c0,0-3.85-1.45-3.53-3S292.88,403,292.88,403l4.9-4.17L289.11,402s-12.84,16.89-14.77,17.83-6.9-1.14-6.9-1.14-2.73,2.77-5.46,1.14-2.09-2.5-2.09-2.5Z" style="fill:#ffbe9d"></path><path d="M258.85,395.91a3,3,0,0,0-.31,3.69,8.85,8.85,0,0,0,3,2.67c1.33.87,2.9,1.78,4.41,1.29a5.45,5.45,0,0,0,1.94-1.37c4.68-4.5,9.45-9.12,12.31-14.93-6.54,3.94-13.42,8-21,8.47" style="fill:#ffbe9d"></path><path d="M296.18,387.84a12.38,12.38,0,0,1-1.54.81l-4.28,2-6.35,3a13.41,13.41,0,0,0-3.37,2.25,15.08,15.08,0,0,0-2.52,3.56c-3,5.33-5.68,10.15-7.66,13.62-1,1.67-1.77,3.05-2.37,4.1a10.11,10.11,0,0,1-.94,1.46,11.79,11.79,0,0,1,.76-1.56l2.23-4.18c1.9-3.52,4.55-8.36,7.52-13.69a15.47,15.47,0,0,1,2.62-3.67,13.87,13.87,0,0,1,3.51-2.32c2.41-1.13,4.59-2.06,6.42-2.88l4.34-1.88A10.61,10.61,0,0,1,296.18,387.84Z" style="fill:#eb996e"></path><path d="M259.48,417.17a12.45,12.45,0,0,1,.89-1.52,45.5,45.5,0,0,0,2.2-4.28c.84-1.86,1.71-4.12,2.72-6.62a50.27,50.27,0,0,1,3.86-7.91,26.69,26.69,0,0,1,5.9-6.55,47.1,47.1,0,0,1,6-4c1.77-1,3.25-1.76,4.27-2.27l1.18-.57a1.56,1.56,0,0,1,.43-.16,11.57,11.57,0,0,1-1.52.91c-1,.57-2.43,1.36-4.17,2.41a49.75,49.75,0,0,0-5.86,4.05,26.93,26.93,0,0,0-5.77,6.46,51.65,51.65,0,0,0-3.85,7.81c-1,2.49-1.95,4.75-2.84,6.59a35.05,35.05,0,0,1-2.35,4.23c-.32.48-.59.83-.77,1.07A2.05,2.05,0,0,1,259.48,417.17Z" style="fill:#eb996e"></path><path d="M267.64,393.15c.14.07-1,2.65-2.3,5.92s-2.11,6-2.25,5.94a25.08,25.08,0,0,1,1.77-6.12A25.73,25.73,0,0,1,267.64,393.15Z" style="fill:#eb996e"></path><path d="M253.62,447.51a7.34,7.34,0,0,1-5.68,2.28c0-.15,1.34-.37,2.9-1S253.53,447.39,253.62,447.51Z" style="fill:#263238"></path><path d="M249.08,451.82s3.56,10.33,4,11.17,3.17,6.16,8,5.33,8.64-1.4,8.64-1.4-7.7,0-9.36-1.64-3.31-7-4.21-9.15S254,450,254,450,249.44,450.58,249.08,451.82Z" style="fill:#fff"></path><path d="M249.08,451.82a.69.69,0,0,1,.17-.33,2.46,2.46,0,0,1,.88-.62,15.23,15.23,0,0,1,3.88-1l.12,0,0,.12c.43,1.34,1,2.9,1.59,4.63.31.86.72,1.74,1.08,2.71s.74,1.94,1.14,3a30.17,30.17,0,0,0,1.38,3.11,9.4,9.4,0,0,0,.94,1.47,2.85,2.85,0,0,0,1.43.89,18,18,0,0,0,3.68.7c1.29.13,2.61.2,3.94.23h.38l0,.52-6.16,1c-1,.15-2,.34-3,.44a5.94,5.94,0,0,1-2.9-.45,9.63,9.63,0,0,1-3.93-3.57,10.68,10.68,0,0,1-1.15-2.12c-.28-.71-.53-1.4-.76-2.06-.93-2.64-1.64-4.78-2.13-6.27l-.54-1.71a3.78,3.78,0,0,1-.16-.61,2.57,2.57,0,0,1,.26.57c.16.44.37,1,.63,1.69.56,1.52,1.34,3.63,2.28,6.2.25.65.51,1.33.79,2a10.32,10.32,0,0,0,1.14,2,9.2,9.2,0,0,0,3.76,3.37,5.44,5.44,0,0,0,2.66.4c.93-.1,1.93-.3,2.92-.45l6.16-1,0,.52h-.39c-1.35,0-2.68-.1-4-.24a17.87,17.87,0,0,1-3.8-.74,4.38,4.38,0,0,1-.89-.39,3,3,0,0,1-.75-.65,9.71,9.71,0,0,1-1-1.56,32.78,32.78,0,0,1-1.38-3.17c-.38-1-.75-2-1.11-3s-.75-1.84-1.05-2.73c-.62-1.75-1.1-3.32-1.5-4.67l.16.1a16.3,16.3,0,0,0-3.85.89,2.49,2.49,0,0,0-.88.52C249.14,451.7,249.11,451.82,249.08,451.82Z" style="fill:#263238"></path><path d="M257.18,458.88c.9,2.09,1.52,4.84,3.18,6.46s9.36,1.64,9.36,1.64-3.83.57-8.64,1.4-7.5-4.49-8-5.33c0,0-.65-1.62.68-1.41s2,.28,2.12-.51C256.25,459,257.18,458.88,257.18,458.88Z" style="fill:#263238"></path><path d="M248.39,430.83c.3-3.52.61-7,.91-10.56a9,9,0,0,0-.28-4.11,8.65,8.65,0,0,0-3-3.41A116.74,116.74,0,0,0,233.12,404l.78,11.71Z" style="fill:#ffbe9d"></path><path d="M215.89,367.73,248.6,451.9s5.15-.84,5.93-2.53l-31.71-84.59Z" style="fill:#455a64"></path><path d="M114,407.1c1,0,73.07,10.91,73.07,10.91l4.66,9.14s10.85,9.27,14.08,11.92,18,10.53,21.74,10.86,3.45-3,3.45-3c7.71,4.91,10.31.19,10.31.19s1,1.34,4.37-.71,1.63-7.17,1.63-7.17L250,437c.55-8.12-8.49-24.67-8.49-24.67s-13.73-19-18-20.92-10.07.14-10.07.14-9.6-1.62-10.66-2.38-45.58-14.4-45.58-14.4-17.64,2.62-29.44,16C117.78,402,114,407.1,114,407.1Z" style="fill:#ffbe9d"></path><path d="M247.65,439.43a10.72,10.72,0,0,1-1-1.36c-.65-1-1.52-2.26-2.57-3.82s-2.35-3.57-3.76-5.69-2.95-4.51-4.79-6.82a66.23,66.23,0,0,0-5.67-6.08,51.08,51.08,0,0,1-4.61-5.06,18.81,18.81,0,0,1-2.4-4,8.39,8.39,0,0,1-.45-1.17,2.15,2.15,0,0,1-.12-.43,25.91,25.91,0,0,0,3.26,5.32,56,56,0,0,0,4.66,4.95,62.1,62.1,0,0,1,5.74,6.1c1.85,2.34,3.4,4.72,4.79,6.88l3.66,5.75,2.43,3.91A10.58,10.58,0,0,1,247.65,439.43Z" style="fill:#eb996e"></path><path d="M213.75,415.5a8.19,8.19,0,0,1,1.08,1.25l2.82,3.51c2.38,3,5.71,7,9.5,11.4s7.34,8.25,9.94,11l3.07,3.28a12.15,12.15,0,0,1,1.09,1.25,8.8,8.8,0,0,1-1.23-1.1c-.78-.74-1.87-1.82-3.2-3.18-2.66-2.71-6.26-6.55-10.06-10.94s-7.09-8.49-9.4-11.51c-1.15-1.52-2.07-2.75-2.69-3.62A9.8,9.8,0,0,1,213.75,415.5Z" style="fill:#eb996e"></path><path d="M231.62,447a7.45,7.45,0,0,1-1.15-.81c-.73-.54-1.78-1.32-3.1-2.25-2.62-1.88-6.4-4.28-10.26-7.4a70.86,70.86,0,0,1-9.11-8.81c-1.05-1.23-1.87-2.26-2.41-3a6.38,6.38,0,0,1-.79-1.17,8.46,8.46,0,0,1,.95,1.05c.59.68,1.44,1.67,2.53,2.87a84.87,84.87,0,0,0,9.15,8.65c3.83,3.09,7.58,5.54,10.16,7.51,1.29,1,2.32,1.79,3,2.38A7.16,7.16,0,0,1,231.62,447Z" style="fill:#eb996e"></path><path d="M235.83,406a4.44,4.44,0,0,1,.86.65,25.46,25.46,0,0,1,2.14,2,36.85,36.85,0,0,1,9.27,16.8,26.33,26.33,0,0,1,.56,2.88,3.83,3.83,0,0,1,.08,1.08c-.09,0-.33-1.5-1-3.86a41.22,41.22,0,0,0-9.18-16.64C236.92,407.05,235.77,406,235.83,406Z" style="fill:#eb996e"></path><path d="M205.68,405.91a10.8,10.8,0,0,0-3.14.71,8.06,8.06,0,0,0-2.77,2,7.51,7.51,0,0,0-1.73,3.79c-.27,1.48-.5,3.08-1.48,4.18s-2.08,1.56-2.72,2.29A2.91,2.91,0,0,0,193,421a3.84,3.84,0,0,0,.24.81s-.31-.18-.44-.78a3,3,0,0,1,.74-2.34c.68-.83,1.8-1.41,2.64-2.37a8.2,8.2,0,0,0,1.33-4,7.65,7.65,0,0,1,1.88-4,8,8,0,0,1,3-2.05,6.83,6.83,0,0,1,2.39-.47A2.2,2.2,0,0,1,205.68,405.91Z" style="fill:#eb996e"></path></g></svg>