<svg xmlns="http://www.w3.org/2000/svg" viewBox="0 0 500 500"><g id="freepik--background-complete--inject-117"><rect y="382.4" width="500" height="0.25" style="fill:#ebebeb"></rect><rect x="416.78" y="398.49" width="33.12" height="0.25" style="fill:#ebebeb"></rect><rect x="322.53" y="401.21" width="8.69" height="0.25" style="fill:#ebebeb"></rect><rect x="396.59" y="389.21" width="19.19" height="0.25" style="fill:#ebebeb"></rect><rect x="52.46" y="390.89" width="43.19" height="0.25" style="fill:#ebebeb"></rect><rect x="104.56" y="390.89" width="6.33" height="0.25" style="fill:#ebebeb"></rect><rect x="131.47" y="395.11" width="93.68" height="0.25" style="fill:#ebebeb"></rect><path d="M237,337.8H43.91a5.71,5.71,0,0,1-5.7-5.71V60.66A5.71,5.71,0,0,1,43.91,55H237a5.71,5.71,0,0,1,5.71,5.71V332.09A5.71,5.71,0,0,1,237,337.8ZM43.91,55.2a5.46,5.46,0,0,0-5.45,5.46V332.09a5.46,5.46,0,0,0,5.45,5.46H237a5.47,5.47,0,0,0,5.46-5.46V60.66A5.47,5.47,0,0,0,237,55.2Z" style="fill:#ebebeb"></path><path d="M453.31,337.8H260.21a5.72,5.72,0,0,1-5.71-5.71V60.66A5.72,5.72,0,0,1,260.21,55h193.1A5.71,5.71,0,0,1,459,60.66V332.09A5.71,5.71,0,0,1,453.31,337.8ZM260.21,55.2a5.47,5.47,0,0,0-5.46,5.46V332.09a5.47,5.47,0,0,0,5.46,5.46h193.1a5.47,5.47,0,0,0,5.46-5.46V60.66a5.47,5.47,0,0,0-5.46-5.46Z" style="fill:#ebebeb"></path><circle cx="153.85" cy="114.15" r="27.79" transform="translate(-34.67 80.08) rotate(-26.33)" style="fill:#fafafa"></circle><path d="M139.43,113.84a4.83,4.83,0,0,0-6.21-4.63A10.28,10.28,0,0,0,123.09,97.5a10.6,10.6,0,0,0-1.88.17,8.94,8.94,0,0,0-16.58,4.52h-.15a8.24,8.24,0,0,0,0,16.48h30.26A4.82,4.82,0,0,0,139.43,113.84Z" style="fill:#f0f0f0"></path><path d="M426.76,222.08a4.84,4.84,0,0,0-6.22-4.63,10.21,10.21,0,0,0-10.12-11.71,9.85,9.85,0,0,0-1.89.18A8.93,8.93,0,0,0,392,210.44h-.15a8.24,8.24,0,0,0,0,16.48h30.25A4.82,4.82,0,0,0,426.76,222.08Z" style="fill:#f0f0f0"></path><path d="M256.16,139.8a7.62,7.62,0,0,1,9.84-7.31,16.56,16.56,0,0,1-.17-2.35A16.16,16.16,0,0,1,285,114.23a14.15,14.15,0,0,1,26.23,7.15h.24a13,13,0,1,1,0,26.08H263.59A7.65,7.65,0,0,1,256.16,139.8Z" style="fill:#f0f0f0"></path><path d="M131.29,247.35a9.22,9.22,0,0,1,11.84-8.81,18.72,18.72,0,0,1-.21-2.82A19.45,19.45,0,0,1,166,216.58a17,17,0,0,1,31.56,8.61l.29,0a15.69,15.69,0,0,1,0,31.38H140.23A9.2,9.2,0,0,1,131.29,247.35Z" style="fill:#f0f0f0"></path><path d="M200,128.31a3,3,0,0,0-3.86-2.88,7,7,0,0,0,.06-.92,6.36,6.36,0,0,0-6.36-6.36,6.45,6.45,0,0,0-1.17.11,5.55,5.55,0,0,0-10.3,2.81h-.1a5.12,5.12,0,0,0,0,10.24h18.81A3,3,0,0,0,200,128.31Z" style="fill:#f0f0f0"></path><path d="M371.35,107.76a3,3,0,0,1,3-3,3,3,0,0,1,.86.12,7,7,0,0,1-.07-.92,6.36,6.36,0,0,1,6.36-6.36,6.45,6.45,0,0,1,1.17.11A5.56,5.56,0,0,1,393,100.52h.09a5.12,5.12,0,1,1,0,10.24H374.26A3,3,0,0,1,371.35,107.76Z" style="fill:#f0f0f0"></path><path d="M66.35,195a3,3,0,0,1,3-3,3.15,3.15,0,0,1,.87.12,5.53,5.53,0,0,1-.07-.92,6.36,6.36,0,0,1,6.36-6.36,6.45,6.45,0,0,1,1.17.11A5.56,5.56,0,0,1,88,187.79h.09a5.12,5.12,0,1,1,0,10.24H69.27A3,3,0,0,1,66.35,195Z" style="fill:#f0f0f0"></path><polygon points="412.8 382.09 374.04 382.09 359.71 243.56 353.73 185.81 381.81 185.81 390.98 183.7 396.59 227.29 399.8 257.99 412.8 382.09" style="fill:#ebebeb"></polygon><polygon points="278.34 191.52 277.38 213.96 270.2 382.09 230.37 382.09 243.85 201.9 244.78 189.52 271.42 188.83 278.34 191.52" style="fill:#ebebeb"></polygon><polygon points="271.42 188.83 278.34 191.52 277.38 213.96 243.85 201.9 244.78 189.52 271.42 188.83" style="fill:#e0e0e0"></polygon><polygon points="399.8 257.99 359.71 243.56 353.73 185.81 381.81 185.81 390.98 183.7 396.59 227.29 399.8 257.99" style="fill:#e0e0e0"></polygon><path d="M416.78,162.08l-1,11.07-6.67,14.6-174,5-10.23-7.27-14.63-.13s.06-5.39.6-11c.58-5.94,1.72-12.1,4-12.27,0,0,150.13-11.47,153.2-10.48a7.12,7.12,0,0,1,3,2.42,27.38,27.38,0,0,1,3,4.93Z" style="fill:#ebebeb"></path><path d="M416.78,162.08l-1,11.07L402.25,183l-160.33,4.84-6.76-4.18-.66-9.35L278.44,169H231.92l-2.73,3.14-18.29,2.22c.58-5.94,1.72-12.1,4-12.27,0,0,150.13-11.47,153.2-10.48a7.12,7.12,0,0,1,3,2.42L353.73,159Z" style="fill:#f5f5f5"></path><path d="M56.11,384.32l1-2.47A14.62,14.62,0,0,1,56.11,384.32Z" style="fill:#ebebeb"></path><path d="M219.54,381.39l-58.8.09-103.5.17C63.13,365.86,88.81,286,88.81,286l18.91-20.38,19.19-34.4,11.74-6.92,22.15,14.28-3.57,24.8,3.57,17.17,14.11,3,11.45,6.88c.31.19,1.15,2,2.37,5C196.48,314.58,219.54,381.39,219.54,381.39Z" style="fill:#ebebeb"></path><path d="M56.11,384.32l1-2.47A14.62,14.62,0,0,1,56.11,384.32Z" style="fill:#f5f5f5"></path><path d="M201.13,373.54l-40.39,7.94-103.5.17C63.13,365.86,88.81,286,88.81,286l18.91-20.38,19.19-34.4,11.74-6.92,22.15,14.28-14.33,22.12-8.65,14.18v20.58s-5.53,16.83-6.37,17.94-9.29,26.5-9.29,26.5l-11.27,38.26,27.76-51.1,15.65-16.95,2.93-16.73,3.57-12.83,14.11,3,11.45,6.88c.31.19,1.15,2,2.37,5Z" style="fill:#f5f5f5"></path></g><g id="freepik--Shadow--inject-117"><ellipse id="freepik--path--inject-117" cx="250" cy="416.24" rx="193.89" ry="11.32" style="fill:#f5f5f5"></ellipse></g><g id="freepik--rope-fence--inject-117"><path d="M428.32,320.64,267.66,340.93,82.14,317.33a.5.5,0,0,0-.13,1l181.67,23.1L91.25,363.2a.5.5,0,0,0-.44.56.51.51,0,0,0,.5.44h.06l176.29-22.26,154.86,19.7h.07a.5.5,0,0,0,.06-1l-151-19.21,156.8-19.79a.51.51,0,0,0,.44-.56A.5.5,0,0,0,428.32,320.64Z" style="fill:#263238"></path><path d="M428.32,320.64,267.66,340.93,82.14,317.33a.5.5,0,0,0-.13,1l181.67,23.1L91.25,363.2a.5.5,0,0,0-.44.56.51.51,0,0,0,.5.44h.06l176.29-22.26,154.86,19.7h.07a.5.5,0,0,0,.06-1l-151-19.21,156.8-19.79a.51.51,0,0,0,.44-.56A.5.5,0,0,0,428.32,320.64Z" style="fill:#fff;isolation:isolate;opacity:0.2"></path><polygon points="427.67 398.77 434.05 301.81 424.49 302.51 421.36 398.77 427.67 398.77" style="fill:#407BFF"></polygon><polygon points="427.67 398.77 434.05 301.81 424.49 302.51 421.36 398.77 427.67 398.77" style="fill:#fff;isolation:isolate;opacity:0.6000000000000001"></polygon><polygon points="424.49 302.51 430.41 304.91 434.05 301.81 424.49 302.51" style="fill:#fff;isolation:isolate;opacity:0.6000000000000001"></polygon><path d="M424,398.77c-.05-.76-.1-1.52-.12-2.28a16.44,16.44,0,0,1,.08-2.34,3.85,3.85,0,0,1,.1-.53l.07-.23c0-.08.08-.2.11-.3a7.72,7.72,0,0,0,.33-1.25,43.14,43.14,0,0,0,.58-4.89c.13-1.62.19-3.26.35-4.83a42.49,42.49,0,0,0,.36-4.89l.1-2.43c0-.78.07-1.66.17-2.34.14-.88.16-1.68.23-2.49l.15-2.43,1.12-19.44c.38-6.47.7-13,1-19.43l-2.83,38.82-.2,2.42c-.08.81-.12,1.63-.24,2.35-.14.92-.15,1.68-.2,2.51l-.11,2.43a42.53,42.53,0,0,1-.37,4.81c-.17,1.66-.24,3.26-.37,4.87a43.46,43.46,0,0,1-.58,4.77,8.24,8.24,0,0,1-.29,1.09l-.09.26-.11.35a2.75,2.75,0,0,0-.13.66,16.44,16.44,0,0,0-.11,2.51c0,.76.08,1.5.13,2.25Z" style="isolation:isolate;opacity:0.2"></path><path d="M427.42,303.7c-.61,5.46-.69,10.69-1.05,16.17-.09,1.37-.15,2.75-.13,4.1a8.34,8.34,0,0,0,.27,2,18.27,18.27,0,0,1,.19,2.08c.12,2.77,0,5.53-.11,8.28l-2.37,33,2-33c.08-2.75.17-5.5,0-8.23a18.72,18.72,0,0,0-.22-2c0-.35-.15-.59-.2-1a6.77,6.77,0,0,1-.1-1.07c0-1.4,0-2.78.08-4.16.3-5.52.14-11,.68-16.53Z" style="isolation:isolate;opacity:0.2"></path><polygon points="97.52 398.77 83.43 301.24 74.22 303.9 91.17 398.77 97.52 398.77" style="fill:#407BFF"></polygon><polygon points="97.52 398.77 83.43 301.24 74.22 303.9 91.17 398.77 97.52 398.77" style="fill:#fff;isolation:isolate;opacity:0.6000000000000001"></polygon><polygon points="74.22 303.9 80.51 305.02 83.43 301.24 74.22 303.9" style="fill:#fff;isolation:isolate;opacity:0.6000000000000001"></polygon><path d="M89.32,369.6c.09.8.21,1.62.25,2.35.05.93.2,1.67.32,2.49l.4,2.4a44,44,0,0,1,.64,4.79c.17,1.65.44,3.23.64,4.84a41.19,41.19,0,0,1,.43,4.78,8.21,8.21,0,0,1-.06,1.13l0,.28,0,.36a3.7,3.7,0,0,0,0,.67,15.1,15.1,0,0,0,.42,2.48c.21.88.46,1.74.71,2.6h.9c-.28-.93-.53-1.87-.76-2.81a16,16,0,0,1-.4-2.31,2.38,2.38,0,0,1,0-.53v-.25c0-.08,0-.21,0-.32a8.12,8.12,0,0,0,.06-1.29,43.94,43.94,0,0,0-.45-4.9c-.21-1.61-.48-3.23-.65-4.8a45.63,45.63,0,0,0-.67-4.85l-.4-2.4c-.13-.78-.28-1.64-.32-2.33-.05-.88-.2-1.67-.3-2.48l-.35-2.41-2.94-19.24q-1.47-9.63-3.06-19.23L89,367.19Z" style="isolation:isolate;opacity:0.2"></path><path d="M77.34,304.46c.54,5.47,1.55,10.59,2.33,16,.2,1.36.42,2.72.72,4a9,9,0,0,0,.68,1.89,17.77,17.77,0,0,1,.62,2c.69,2.68,1.15,5.41,1.61,8.11l4.53,32.75-4.92-32.67c-.5-2.71-1-5.42-1.69-8.05a19,19,0,0,0-.63-1.93c-.11-.33-.27-.54-.41-.93a7.14,7.14,0,0,1-.32-1c-.32-1.36-.56-2.72-.78-4.09-.85-5.45-2.16-10.83-2.76-16.31Z" style="isolation:isolate;opacity:0.2"></path><path d="M81.11,318a11.53,11.53,0,0,1-5-1.28.5.5,0,0,1-.19-.68.5.5,0,0,1,.68-.19c.22.12,5.3,2.92,9-.57a.5.5,0,0,1,.7,0,.5.5,0,0,1,0,.71A7.19,7.19,0,0,1,81.11,318Z" style="fill:#263238"></path><path d="M422.53,363.29a.5.5,0,0,1-.41-.22.5.5,0,0,1,.12-.69c.22-.15,5.23-3.61,8.18-1.67a.5.5,0,0,1-.55.84c-2.38-1.57-7,1.62-7.05,1.65A.52.52,0,0,1,422.53,363.29Z" style="fill:#263238"></path><path d="M427.15,321.48a9.74,9.74,0,0,1-3.42-.56.5.5,0,0,1-.29-.65.49.49,0,0,1,.64-.29c3.63,1.37,8.55-.52,8.59-.54a.5.5,0,1,1,.37.93A18.14,18.14,0,0,1,427.15,321.48Z" style="fill:#263238"></path><path d="M92.82,366.75a.49.49,0,0,1-.3-.1c-4.11-3.06-6.72-.36-6.83-.25a.5.5,0,1,1-.73-.68s3.31-3.48,8.16.13a.5.5,0,0,1,.1.7A.48.48,0,0,1,92.82,366.75Z" style="fill:#263238"></path><g style="isolation:isolate;opacity:0.2"><path d="M422.53,363.29a.5.5,0,0,1-.41-.22.5.5,0,0,1,.12-.69c.22-.15,5.23-3.61,8.18-1.67a.5.5,0,0,1-.55.84c-2.38-1.57-7,1.62-7.05,1.65A.52.52,0,0,1,422.53,363.29Z" style="fill:#fff"></path></g><g style="isolation:isolate;opacity:0.2"><path d="M427.15,321.48a9.74,9.74,0,0,1-3.42-.56.5.5,0,0,1-.29-.65.49.49,0,0,1,.64-.29c3.63,1.37,8.55-.52,8.59-.54a.5.5,0,1,1,.37.93A18.14,18.14,0,0,1,427.15,321.48Z" style="fill:#fff"></path></g><g style="isolation:isolate;opacity:0.2"><path d="M81.11,318a11.53,11.53,0,0,1-5-1.28.5.5,0,0,1-.19-.68.5.5,0,0,1,.68-.19c.22.12,5.3,2.92,9-.57a.5.5,0,0,1,.7,0,.5.5,0,0,1,0,.71A7.19,7.19,0,0,1,81.11,318Z" style="fill:#fff"></path></g><g style="isolation:isolate;opacity:0.2"><path d="M92.82,366.75a.49.49,0,0,1-.3-.1c-4.11-3.06-6.72-.36-6.83-.25a.5.5,0,1,1-.73-.68s3.31-3.48,8.16.13a.5.5,0,0,1,.1.7A.48.48,0,0,1,92.82,366.75Z" style="fill:#fff"></path></g></g><g id="freepik--rock-2--inject-117"><path d="M384.83,366.54l4.5,24.61,1.64.79-3.09-25.69L391,365s0-.84-4.34-.44-4.82,1.73-4.82,1.73Z" style="fill:#407BFF"></path><path d="M384.83,366.54l4.5,24.61,1.64.79-3.09-25.69L391,365s0-.84-4.34-.44-4.82,1.73-4.82,1.73Z" style="fill:#fff;isolation:isolate;opacity:0.2"></path><path d="M384.83,366.54a4,4,0,0,1,3.05-.29l.44,3.66-2.21,3.6Z" style="isolation:isolate;opacity:0.2"></path><polygon points="424.6 407.83 417.48 387.73 401.66 382.09 386.23 387.73 379.84 399.91 371.19 406.66 364.87 408.54 357.35 415.68 424.6 415.68 424.6 407.83" style="fill:#263238"></polygon><polygon points="357.35 415.68 424.6 415.68 424.6 407.83 417.48 387.73 401.65 382.09 386.23 387.73 379.83 399.91 371.19 406.66 364.86 408.54 357.35 415.68" style="fill:#fff;isolation:isolate;opacity:0.6000000000000001"></polygon><path d="M357.35,415.68H424.6v-7.85l-9.1,4.3-11.87-1.51-4.35-11.74-4.35-1.46,1-4.37,4.15-4.48-.79-2.57-3,4.11s-4.55,3.27-5.34,3.93,0,5.87,0,5.87,3.56,4.29,3.17,5.08a40.86,40.86,0,0,1-3.52,4l-7.56-2.18v-6.86l3.17-12.18-6.4,12.18-8.64,6.75-6.33,1.88Z" style="isolation:isolate;opacity:0.2"></path><path d="M346.87,416.82l-.5-2.2,30.24-6.92a1.13,1.13,0,0,1,1.36.85h0a1.13,1.13,0,0,1-.85,1.35Z" style="fill:#407BFF"></path><polygon points="374.04 410.61 368.06 411.98 368.25 409.62 373.42 408.44 374.04 410.61" style="isolation:isolate;opacity:0.2"></polygon><rect x="367.5" y="406.88" width="12.88" height="5.19" rx="0.74" transform="translate(689.76 -46.33) rotate(77.12)" style="fill:#263238"></rect></g><g id="freepik--rock-1--inject-117"><path d="M69.79,415.71H287.6l-30-10.12L237.11,404l-13.54-30.49-4-13.67v-4.74l-4.68-7.55-2.52-6.33-1.44-3.61s-.43,0-1.09.12c-1.58.27-4.48,1.06-5.78,3.42,0,0-2.38-9.78-11.61-13.68l-6.06-13.75-17.94-6.22s-26.18,9.22-26.94,9.29-22.75,9.28-22.75,9.28l-11.1,29.3s-2.77,12-8.31,15.91S84,382.47,83.5,384.43s-7.65,18.26-8.18,19.6S69.79,415.71,69.79,415.71Z" style="fill:#263238"></path><path d="M287.6,415.71H69.79s5-10.35,5.53-11.68,7.65-17.65,8.18-19.6,10.29-9.22,15.82-13.12,8.31-15.91,8.31-15.91l11.1-29.3s22-9.22,22.75-9.28,26.94-9.29,26.94-9.29l17.94,6.22L191,324.18l1.47,3.32a17.57,17.57,0,0,1,2.21,1.12C202,333,204,341.18,204,341.18s.09-.16.15-.24a5.88,5.88,0,0,1,2-1.9,8.09,8.09,0,0,1,1.36-.66,11.53,11.53,0,0,1,2.29-.62c.66-.1,1.09-.12,1.09-.12l1.44,3.61,2.52,6.33.3.47h0l3.61,5.83.77,1.24v4.74l3,10.14,1,3.53,1.75,3.94L237.11,404l19.65,1.5.82.06Z" style="fill:#fff;isolation:isolate;opacity:0.6000000000000001"></path><path d="M206.7,347.13c.1,2.27.17,4.72.15,7.05,1.47.34,6.22,1.82,7.07,6.1,0,0-3.43-3.79-7.11-4.27a36.66,36.66,0,0,1-.54,5.6,7.55,7.55,0,0,1-.58,1.81,9.36,9.36,0,0,1-.53,11.57c.14-.44,1.9-6.29-.63-10-1.46,1.28-3.54,1.14-5.45-.63a9.12,9.12,0,0,1-3.61,4.38,14.57,14.57,0,0,0,2.53-5.61,17.53,17.53,0,0,1-2.66-5.86,9,9,0,0,0,2.64,3.88l-.08-1.05a6.6,6.6,0,0,0,0-2,9.38,9.38,0,0,0-.79-1.58c-.5-1,.09-.61,0-1.66s-2.48-1.76-2.43-.69c-.07-.49-.15-1-.21-1.51a18.16,18.16,0,0,1,.05-5.27,15.63,15.63,0,0,0-5.13-5.05,6.28,6.28,0,0,1,5.57,3.4c.8-2,2.21-2.61,3.66-1.69a9.49,9.49,0,0,0,2.36-6s.55,3.94-1.44,6.78A9,9,0,0,1,201,347c3.05,6.14,2.52,8.37,1.2,8.93s-2.64-3.91-2.64-3.91,1.45,1.52,1.78.83-.59-5.57-2.3-6.55c-1.09-.62-1.67,3-1.48,6.59a1.79,1.79,0,0,0,1.05.81c.89.31,1,2.82,1,3.56s.24-.7.39,1.25a10.35,10.35,0,0,0,.58,2.32,3.81,3.81,0,0,0,1.24.68,8,8,0,0,0,1-4.18s.63,2.8,0,4.31c1.25-.07,2.3-1.1,2.6-3.2.18-1.26.29-2.46.36-3.62a6.08,6.08,0,0,0-1.6-1.12,2.07,2.07,0,0,1,1.63.39c.34-8-1.71-12.94-1.71-12.94a5.91,5.91,0,0,1,2.13-2.14c.13,1.53.33,4,.48,6.88a7.82,7.82,0,0,1,7.25,3.45C213.5,349.06,209.89,346.27,206.7,347.13Z" style="isolation:isolate;opacity:0.2"></path><path d="M69.79,415.71H190.38s-7.85-16.1-7.85-17.68-16.68-20.44-16.68-20.44l-3.76-9.21,1.19-6.77L170,355.4,169,352l-2-2.74.79,3.34a12.58,12.58,0,0,1-1.91,4.81c-1.38,1.75-4.68,3.28-4.68,3.28s-2.77.84-2.9,1.68S157,366.7,155.5,372.7s-1.85,7.26-1.85,10.2.93,6.83-.79,8.15l-3.69,2.86,8.7,6.54,2.11,4.84-3,3.28a3.17,3.17,0,0,0,.28-1.26,3.31,3.31,0,0,0-.37-1.48,3.22,3.22,0,0,0-2-1.8s1.85,1.33,1.19,2.87a2.71,2.71,0,0,1-2.9,1.67c-.79-.14-1.71-1.4-1.71-.42s.92,1,0,1-1.58-1.26-2.11-2.37a51.36,51.36,0,0,0-3.69-5.26L135.72,390a1,1,0,0,0,.26-1.34c-.52-.76-3.15-1.17-2.76-1.59s1.85-.28,1.78-1.12-.59-2.15,0-2.76,2.18-.3,2,.67a29.9,29.9,0,0,0,0,3.49l13.41,14.87c-3.1-3.53-12.5-14.31-12.5-15s.27-4.19-.91-5.3h0v-4.05l2-7a27.81,27.81,0,0,1,2.46-3.51,11.77,11.77,0,0,0,1.57-1.81l1.11-3.11s-2.09,3.25-2.3,2.27-.38-2.27-.38-2.27a2.07,2.07,0,0,0-1.41-.86c-1-.22-2.5-.64-2.5-.64s-.39,1.19-.53,1.5a6.2,6.2,0,0,0,0,1.57l1.1,1L137,366.7s-1.45.7-1.12.14-1.65-3-1.65-3l-.73,2.73c-.46-.7-.91-1.4-1.38-2.08a20,20,0,0,1-1.91-2.39,2.07,2.07,0,0,1-.13-1.6c.28,0,.45.33.53.61a1.91,1.91,0,0,0,.33.8c.33.35,1,.29,1.17.75a.34.34,0,0,0,.09.19.25.25,0,0,0,.15,0l.93,0a10.87,10.87,0,0,0-.06-2.42c-.15-1.1-1.35-.83-1.71-1.67-.18-.42-1.46-1.12-1.46-1.12s.81-2.93,1.17-3.9,2-2.1,1.91-3.21,2.94-5,3-5a3.63,3.63,0,0,1,2.76-1.1,9.62,9.62,0,0,1,6.27,1.35,6.61,6.61,0,0,1,1.54,1.45,6,6,0,0,1,1.34,3.58c.09-.78.19-1.55.29-2.33a1.7,1.7,0,0,1,.13-.55,2.08,2.08,0,0,0,.22-.38,1,1,0,0,0-.07-.55c-.3-.83-.59-1.66-.88-2.49a.79.79,0,0,1-1.26.43c-.14-.13-.23-.31-.38-.41s-.32.12-.48.11-.32-.17-.52-.26c-.37-.17-.72-.42-1.1-.61a12.33,12.33,0,0,0-2.56-.89,7.92,7.92,0,0,0-5.3.42c-4.09,2.09-5.66,8.23-6.13,9.63a19.81,19.81,0,0,1-2.05,3.65s1.07,4.72,2.05,6.12,2.57,3.9,2.43,4a30.3,30.3,0,0,0,2.58,3.24l-.8,4.58a23.52,23.52,0,0,0,.8,2.65c.32.7-.8,5.21-.8,5.21h0a9.54,9.54,0,0,0-1,2.61c-.67,1.81-4.68.39-4.45,3.68s3,1.41,4.45,2c.76.31,4.39,4.08,7.84,7.92l-2.27,10.14-12.68,1.51s-8.85-1.95-9.25-1.95-9.23-6.65-9.23-6.65l-12.21-1.13v-.06l-2.77-8.05-2.57-8.32,6.53-2.79,9.5-3.5L117,382l7.38,4-4.85-5.21-11.89-7.21v-5l8.46-10.47,2.64-32-11.1,29.3s-2.77,12-8.31,15.91S84,382.47,83.5,384.43s-7.65,18.26-8.18,19.6S69.79,415.71,69.79,415.71Zm75.58-12.13c.35.42.66.81.94,1.17Zm-4.29-5c1.41,1.58,2.79,3.16,3.93,4.53Z" style="isolation:isolate;opacity:0.2"></path><path d="M163.88,333.78s-4.69,4-4.95,4.3,0,7.41,0,7.41l-1.7-7.41,5.52-7.7c.27-.37,3-6.1,3.1-7.49s-.24-2.83.6-3.63l.83-.8,1.14-10.93,17.94,6.22-7.66,15.49Z" style="isolation:isolate;opacity:0.2"></path><path d="M189.39,395.82l3.76-10.69s.82,2,1.88,4.34l3.46,8,5.54,3,3.16,7-2,8.25h14.29c.24-1.5.72-4.28,1-4.44s3.09-2.34,5.3-4l11.3-3.22-11.79-26.55.52,6.6,6.17,14.4a23,23,0,0,1-1.64-2.07c-.55-.87-3.6-2.08-5.44-1.6s-2.11-2.36-3-2.41-3.15-2.88-3.15-2.88l-.42-1.09a15.72,15.72,0,0,0-1.27-3.3c-.79-1.26-.79-2.31-1.28-3.4a1.5,1.5,0,0,0-.3-.5,9.39,9.39,0,0,0-.07-1.48,2.34,2.34,0,0,0-1-1.85c-.81-.52.22-1.78,1-2.91.54-.73.38-2.74.2-4.07,2.1-5.45,2.87-12.4,3.14-17l-3.91-6.31s.42,3.8.47,8.74a8,8,0,0,0-4-3.92,15.64,15.64,0,0,1,4,6.91c-.1,4.5-.58,9.44-1.91,13.21.12-2.4-.21-6.41-3.23-9a19.11,19.11,0,0,1,1.93,11.25,38.83,38.83,0,0,1-5,4.15c-2.93.61-5.93-.7-8.82-3.4a12.9,12.9,0,0,0,3.15-5.2,9,9,0,0,1-4.13,4.23,33.91,33.91,0,0,1-3.53-4.49c0-.11,0-.23,0-.4a8.74,8.74,0,0,0,0-2.86c-.22-.73-.57-1.88-.18-2.51s0-2,0-2l-.49-.47a4.27,4.27,0,0,0,.86-1.56,5.63,5.63,0,0,1-1.16,1,1.67,1.67,0,0,1,0-.92,7.23,7.23,0,0,0,0-2.09,4.74,4.74,0,0,1-1.28-.94,5.44,5.44,0,0,1-1-1.78c-.2-.42-1.78-1.78-2.75-1.67s-1.68-.64-1.7-2a10,10,0,0,1,4.84-.77s-3.5-1.26-5.47-.25a38.84,38.84,0,0,1-.69-5.42c.2,1.21.63-1.1,1.12-1.83s1.38-1.05,1.38-2.29-1.92-2-1.25-2.52a4.08,4.08,0,0,0,1.75-3.88c-.2-2.29.2-1.2-.2-2.29a2.11,2.11,0,0,1-.15-1.55,7.92,7.92,0,0,1,2.94-3,15.73,15.73,0,0,1,5.91,10.62s-.34-8.88-4.63-11.08a4.53,4.53,0,0,1,.74-.08L191,324.18a12.48,12.48,0,0,0-4.87,4.1,7.75,7.75,0,0,0-.32,2.1c.17.84,1.45,2.31,1.26,2.62s.33,1.26,0,2.1-.08,1.06-.6,1.52-1.8,1-1.8,1.46.3.79,0,1.15,1.21,2.14,1.25,2.56-.73.84-1.29,1.37a13.17,13.17,0,0,0-1.11,1.24s0,.06,0,.09a2.25,2.25,0,0,1,.06.6c.3,2.48.75,5.11,1.33,7.84,1,1,1.86,2,2.32,1.85.7-.21,2.18,1.14,2.18,1.14l1.09,1.5s.59-.24.69.81a7.37,7.37,0,0,1,0,2.61c-.2.43.3,1.26-.4,1.26s-1.68.41-1.87,0-1.51-.49-1.51-.49l.81,1.12s.6,1,1.19.79,1.71.17,1.89,0,.88.36,1.08.88-.3,1.88,0,2.83-.1,2.26,0,2.44a3.2,3.2,0,0,1,.06,1.12l-2-1.11s-.06,3.93-.06,5.82a1.9,1.9,0,0,0,.23.89l.89,3.36.13,4.68-5.85,12ZM185.78,352v0h0Zm9.82,24.09c3.84,3.37,8.2,4.56,12.15,3.33a.88.88,0,0,1,.23.32c.13.35,1.49.25,1.68.16a6.34,6.34,0,0,1,1.24,0l.74-.16s.3.56,1,1.72,1.29.09,1.76.26,1.7,2.66,1.38,3c-.09.1.17.64.59,1.35a10,10,0,0,0-1.5,2.62c-.45,1.45,1,1.06,1.83,2s.39,2.62-.92,4.14-1.85,1-1.85,1-5.34-2.74-5.54-3.42a27.26,27.26,0,0,0-2.37-3.5l-9.89-10Z" style="isolation:isolate;opacity:0.2"></path><polygon points="219.54 359.87 222.53 370.01 219.54 373.54 219.54 359.87" style="isolation:isolate;opacity:0.2"></polygon><path d="M287.6,415.71H268.36c-4.76-4.34-10.69-9.41-11.6-10.18l.82.06Z" style="isolation:isolate;opacity:0.2"></path><path d="M205,352l-1.09,0a27.17,27.17,0,0,0-1.09-3.83c-.49-1.09-2.07-3.56-2.07-3.56a16.42,16.42,0,0,0,.93-4.71,29.89,29.89,0,0,0-.84-3.93c-.09,4.91-2.57,6.58-2.57,6.58a2.19,2.19,0,0,0-1.12-.18,11.13,11.13,0,0,0-2.64,1.15,20.06,20.06,0,0,0-1.79-1.92c-1-.93-3.94-.95-4.34-1.37s.6-.87.59-.91,0-1.24,0-1.89a7.06,7.06,0,0,1,.44-2.42,5.37,5.37,0,0,0-.39-3.26c-.36-1,1.38-2.23,1.38-2.23,4.3,1.25,6.26,10.44,6.26,10.44a13.67,13.67,0,0,0-2-11.35C202,333,204,341.18,204,341.18s.09-.16.15-.24A48.71,48.71,0,0,1,205,352Z" style="fill:#fff;isolation:isolate;opacity:0.2"></path><path d="M210.3,351.64a18,18,0,0,1,4.56,8.23c-2.4-5.53-6.62-6.45-6.62-6.45v-5.64c1.46-.37,6.33,1.94,6.61,2.07-1.79-4-6.9-5.23-6.9-5.23l-.43-6.24a11.53,11.53,0,0,1,2.29-.62c.66-.1,1.09-.12,1.09-.12l1.44,3.61,2.52,6.33.3.47h0c0,2.57-.3,5.85-.3,5.85C213.56,351.44,210.3,351.64,210.3,351.64Z" style="fill:#fff;isolation:isolate;opacity:0.2"></path><path d="M188.27,343s4.83,2.87,5.43,4.75a56.6,56.6,0,0,0,.5,8.76c.59,3.11-.6,2.91-.6,2.91s-.49-1.28-1.18-2.91a9.54,9.54,0,0,0-2.57-3.42,13.77,13.77,0,0,1-1.58-1.09s4.06-1.28,4.55-.79-4-1.68-5.55-2-1.33-3.85-.91-4.35S188.27,343,188.27,343Z" style="fill:#fff;isolation:isolate;opacity:0.2"></path><path d="M195.6,361.13l1.47,2.57a21.57,21.57,0,0,1-1.88,3c-.4.27-1.35-1.51-.83-2s.43-2.82.43-2.82Z" style="fill:#fff;isolation:isolate;opacity:0.2"></path><path d="M199.54,366.25s2.73,1.37,4.84,0c0,0,1.92,5.15.3,8.75s1.65,1,1.67-.42,2.29-3.16,2-5.34a42.82,42.82,0,0,0-1.48-5.73s1-5.35,1-6,5.72,3.07,6.07,3.66a10.44,10.44,0,0,1,.45,2.8l-.45,4.42s-2.35-4.84-3.62-5.83-.06,1.75.6,3.16.4,6.82.36,7.86a3.55,3.55,0,0,1-2.33,2.9c-1.48.61-3.36,1.36-5.24.79a17,17,0,0,1-3.36-1.45s2.06-5,1.33-6.64a32.56,32.56,0,0,1-2.12,2.62c-.59.55-2,1.78-2,1.78l-1.92-2.63A8.76,8.76,0,0,0,199.54,366.25Z" style="fill:#fff;isolation:isolate;opacity:0.2"></path><path d="M204.38,354.7l.65,1.09L203.79,359l-.49-2.13h-1.19l-.45,2.62-1.53-2.06.85-2.1s1.53,1.39,2.22.8A7,7,0,0,0,204.38,354.7Z" style="fill:#fff;isolation:isolate;opacity:0.2"></path><path d="M199,350.25c0-1.12,1.49,1.34,1.87,1s-1.08-3.46-1.48-3.46-1,3.27-.89,3.46a8.16,8.16,0,0,1,0,1.58l1.22.7A8.8,8.8,0,0,1,199,350.25Z" style="fill:#fff;isolation:isolate;opacity:0.2"></path><path d="M134,353.52c-.26-1.16.79-7.64,2.77-8s7,1.79,7.52,2.29a5.09,5.09,0,0,1,1.52,4.23c-.07,2.59-.73,5.52-2.18,5.38a44.84,44.84,0,0,0-4.62,0s3.43,1.77,3.43,2.06.53,2.8-.39,1.68-3.17-1.31-4-1.68-2,.94-2.24.42.26-3.33.26-3.33L134,358.82s-2.84-.88-2.52-2.28.32-1.61.85-1.84,2,.56,2,.56Z" style="fill:#fff;isolation:isolate;opacity:0.2"></path><path d="M138.65,391c.39,0,11.87,13.21,11.87,13.21s1.32,2.39,2.24,2.52a1.38,1.38,0,0,0,1.45-1.78c-.4-.86-2.64-1.33-2.64-1.33Z" style="fill:#fff;isolation:isolate;opacity:0.2"></path></g><g id="freepik--Character--inject-117"><path d="M231.78,317.5S218.43,327.58,217.09,328s-22.16-11.73-22.16-11.73l-2.11,3.52s20.57,15.51,24.79,15.19,20.47-11,20.47-11Z" style="fill:#e4897b"></path><path d="M231.78,313.64c-2.7,2.47-12.24,11.83-12.24,11.83l10.2,9.55,14.56-11.08Z" style="fill:#407BFF"></path><path d="M219.54,325.47l10.2,9.55,5.12-3.9,9.44-7.18L239.52,320l-7.74-6.37C229.08,316.11,219.54,325.47,219.54,325.47Z" style="fill:#fff;isolation:isolate;opacity:0.5"></path><polygon points="232.43 335.02 219.54 323.94 218.14 325.47 229.27 336.4 232.43 335.02" style="fill:#407BFF"></polygon><polygon points="232.43 335.02 219.54 323.94 218.14 325.47 229.27 336.4 232.43 335.02" style="fill:#fff;isolation:isolate;opacity:0.4"></polygon><path d="M234.86,331.12l9.44-7.18L239.52,320C237.72,322.45,234.86,327,234.86,331.12Z" style="isolation:isolate;opacity:0.2"></path><path d="M231.78,313.64q2.15,2.22,4,4.21c4.83,5.14,8.27,8.78,10.92,11.73,3.63,4.06,7.76,1.81,9.92,5.32.92,1.49,1.86,3.13,2.91,5.07l28.06-11c-7.76-19.6-15.63-24.69-18.57-29.71l-.09-.16a7.38,7.38,0,0,0-9.05-3.1c-2,.8-4.37,1.79-6.53,2.81a95.58,95.58,0,0,0-11.59,6.92A88.46,88.46,0,0,0,231.78,313.64Z" style="fill:#407BFF"></path><path d="M231.78,313.64q2.15,2.22,4,4.21c4.84,5.14,8.28,8.78,10.93,11.73,3.63,4.06,7.76,1.81,9.92,5.32.92,1.49,1.86,3.13,2.91,5.07l28.06-11c-4.35-11-8.73-17.4-12.26-21.81-1.72-2.15-3.23-3.82-4.44-5.3a20.07,20.07,0,0,1-1.87-2.6l-.09-.16a7.38,7.38,0,0,0-9.05-3.1c-2,.8-4.37,1.79-6.53,2.81a95.58,95.58,0,0,0-11.59,6.92A88.46,88.46,0,0,0,231.78,313.64Z" style="fill:#fff;isolation:isolate;opacity:0.6000000000000001"></path><polygon points="250.25 319.83 244.86 322.31 245.99 325.08 246.42 325.08 248.14 328.04 253.35 325.87 250.25 319.83" style="isolation:isolate;opacity:0.2"></polygon><polygon points="245.99 325.08 250.64 322.97 246.42 325.08 245.99 325.08" style="isolation:isolate;opacity:0.2"></polygon><polygon points="263.53 313.57 258.23 316.24 259.45 318.96 259.89 318.95 261.7 321.86 266.83 319.5 263.53 313.57" style="isolation:isolate;opacity:0.2"></polygon><polygon points="259.45 318.96 264.03 316.7 259.89 318.95 259.45 318.96" style="isolation:isolate;opacity:0.2"></polygon><path d="M273.12,316.31a13.57,13.57,0,0,0,2.22-9.17c-1.72-2.15-3.23-3.82-4.44-5.3C267.66,305.27,273.12,316.31,273.12,316.31Z" style="isolation:isolate;opacity:0.2"></path><path d="M225.85,406c-.14,4,2.48,6.89,8.86,8.43,11.74,2.86,36.2,1.12,79.56-6.9l-3.43-4.3-61.65.28,19.68-23.82,1.84-2.23-20.93-11.17s-3,3.6-6.85,8.75l-.82,1.09C235.21,385.39,226.09,398.94,225.85,406Z" style="fill:#e4897b"></path><path d="M234.71,414.39c11.74,2.86,36.2,1.12,79.56-6.9l-3.43-4.3-61.65.28,19.68-23.82L242.93,375l-.82,1.09,7.41,6.48S234.6,402.49,234.71,414.39Z" style="opacity:0.2"></path><path d="M309.2,402.92c-.39.51,6.06,5,6.06,5s6.84-.82,11.2,1.26,4.07-1.77,0-5L316.3,396C313.39,393.71,313.22,397.65,309.2,402.92Z" style="fill:#263238"></path><path d="M266.34,367.8,287.27,379l-21.53,26,40.12.71h0l18.5-.48,3.33,4.76c-73.22,13.57-85.68,8.82-85.29-2.5S266.34,367.8,266.34,367.8Z" style="fill:#e4897b"></path><path d="M252.8,316.76l.93-16.13c-6.4.51-9.46-7.5-9.46-7.5l-4.72,7.69a25.87,25.87,0,0,1,3,2.25c4,3.55,2.44,5.39,2.44,5.39Z" style="fill:#e4897b"></path><path d="M239.55,300.82a25.87,25.87,0,0,1,3,2.25c2.13-3.84,1.72-9.94,1.72-9.94Z" style="isolation:isolate;opacity:0.2"></path><path d="M237.47,271.9s.58-7.16,8.88-7.91,9.71,9.67,8.5,16.28,5.56,9.48,5.56,9.48a6.35,6.35,0,0,1-6.21,3.42C249.64,292.9,237.47,271.9,237.47,271.9Z" style="fill:#263238"></path><path d="M226.59,295.15s-2.32,1.76-4.51-3.13-4.46-13,.13-17.09,9.44-7.15,16-4.62,18.35,16.12,7,22.28-18.7,2.13-18.7,2.13" style="fill:#263238"></path><path d="M230.57,275.47c-7.25,2.66-8.15,7.4-5.94,15.06,2.77,9.57,7.28,15.43,15.6,10.11C251.53,293.41,242.6,271,230.57,275.47Z" style="fill:#e4897b"></path><path d="M229.17,288.4a16.24,16.24,0,0,1-1,3.78,2.12,2.12,0,0,0,2.21.12Z" style="fill:#de5753"></path><path d="M233.38,286.18c.21.6.7,1,1.1.84s.56-.74.35-1.34-.69-1-1.09-.84S233.18,285.58,233.38,286.18Z" style="fill:#263238"></path><path d="M233.91,284.81l-1.48-.06S233.46,285.62,233.91,284.81Z" style="fill:#263238"></path><path d="M225.88,288.6c.2.6.69,1,1.09.84s.56-.74.36-1.34-.7-1-1.1-.84S225.67,288,225.88,288.6Z" style="fill:#263238"></path><path d="M226.41,287.24l-1.48-.07S226,288.05,226.41,287.24Z" style="fill:#263238"></path><path d="M235.16,281.54a.36.36,0,0,1-.2-.06,3.69,3.69,0,0,0-3.19-.09.37.37,0,0,1-.48-.18.35.35,0,0,1,.18-.48,4.35,4.35,0,0,1,3.89.15.36.36,0,0,1,.1.5A.37.37,0,0,1,235.16,281.54Z" style="fill:#263238"></path><path d="M223.69,284.94a.31.31,0,0,1-.18-.05.36.36,0,0,1-.14-.49,4,4,0,0,1,2.73-2.14.37.37,0,0,1,.4.32.35.35,0,0,1-.31.4,3.27,3.27,0,0,0-2.19,1.78A.37.37,0,0,1,223.69,284.94Z" style="fill:#263238"></path><path d="M243,284.76s-5.57-4.7-6.75-9.48c0,0-16.51-.59-11.86,14.24,0,0-6.16-12.42,6.19-17.29s19,13.37,14.55,21.16C245.1,293.39,246.44,287.72,243,284.76Z" style="fill:#263238"></path><path d="M242.35,286.73a3.38,3.38,0,0,1,2.36-4.16c2.33-.58,5.09,3.63-.08,6.79C243.89,289.82,243.15,289.2,242.35,286.73Z" style="fill:#e4897b"></path><path d="M231.56,295.16a18.78,18.78,0,0,1,2.37,1.23c.11-.11.21-.23.31-.35,1.38-1.64,1.48-2.85,1.18-3.7a2.73,2.73,0,0,0-.75-1.07,2.58,2.58,0,0,0-.6-.44,10.15,10.15,0,0,1-2,3.77Z" style="fill:#263238"></path><path d="M232,294.6l.71.34c1.3-1.54,2-2.8,1.94-3.67a2.58,2.58,0,0,0-.6-.44A10.15,10.15,0,0,1,232,294.6Z" style="fill:#fff"></path><path d="M234.24,296c1.38-1.64,1.48-2.85,1.18-3.7a6.89,6.89,0,0,0-1.18,2.12A2.57,2.57,0,0,0,234.24,296Z" style="fill:#de5753"></path><path d="M321.63,405c-.39.51,6.06,5,6.06,5s6.84-.81,11.2,1.26,4.07-1.77,0-5l-10.13-8.11C325.82,395.77,325.65,399.71,321.63,405Z" style="fill:#263238"></path><path d="M332.17,411a1.07,1.07,0,0,1,.42.58.75.75,0,0,1-.37.77.84.84,0,0,1-.66.15,3.15,3.15,0,0,1-1.5-.95c.29.67.47,1.34.23,1.68s-.43.28-.82.19a1.23,1.23,0,0,1-.81-.61c-.55-1,.07-2.84.1-2.94l.05-.07h0a.1.1,0,0,1,.05,0h0l.06,0H329A9.73,9.73,0,0,1,332.17,411Zm-1.38.65a2,2,0,0,0,.83.44.46.46,0,0,0,.35-.07c.25-.19.23-.32.22-.36-.1-.47-1.49-1-2.71-1.37A9.83,9.83,0,0,0,330.79,411.68Zm-1.56,1.21a.83.83,0,0,0,.34.16c.11,0,.31.06.38,0,.2-.29-.29-1.47-.92-2.54a3.4,3.4,0,0,0,0,2.16A1,1,0,0,0,329.23,412.89Z" style="fill:#407BFF"></path><path d="M238.08,372.75l16.78,8.9,2.72-2.68,23.15,13c7.17-8.75,17-24.81,15.67-37.79-.86-8.24-8.54-24.69-8.8-25.2L259,339l.61,3.5-3.27,9.63S247.15,361.37,238.08,372.75Z" style="fill:#407BFF"></path><polygon points="288.24 329.53 278.44 332.98 279.54 335.98 289.62 332.68 288.24 329.53" style="fill:#263238"></polygon><polygon points="277.31 333.38 261.56 338.93 262.29 341.61 278.28 336.39 277.31 333.38" style="fill:#263238"></polygon><polygon points="258.92 339.86 259.39 342.56 261.04 342.02 260.41 339.33 258.92 339.86" style="fill:#263238"></polygon><path d="M266.38,340.75a1.06,1.06,0,0,1-.5-.13,1,1,0,0,1-.55-.65l-.5-1.61a1.1,1.1,0,0,1,.68-1.36l3-1a1.1,1.1,0,0,1,.87.06,1.15,1.15,0,0,1,.55.67h0l.48,1.69a1.08,1.08,0,0,1-.71,1.34l-2.95,1A1.06,1.06,0,0,1,266.38,340.75Zm-.09-1.07.12.06h0l2.95-1a.08.08,0,0,0,.06-.11l-.48-1.7a.08.08,0,0,0-.05,0l-3,1a.08.08,0,0,0-.06.11l.5,1.62Z" style="fill:#fff"></path><path d="M266.19,339.32a.49.49,0,0,1-.48-.35.5.5,0,0,1,.33-.62l1.11-.35a.51.51,0,0,1,.63.33.51.51,0,0,1-.33.63l-1.11.34A.39.39,0,0,1,266.19,339.32Z" style="fill:#fff"></path><path d="M257.58,379l12.35-17.1s-15.22,9.52-19.4,17.49l4.33,2.29Z" style="opacity:0.2"></path><polygon points="257.58 378.97 239.33 369.91 237.11 372.94 254.86 381.65 257.58 378.97" style="fill:#407BFF"></polygon><polygon points="237.11 372.95 250.27 379.4 254.86 381.65 257.58 378.97 252.48 376.44 252.47 376.44 239.33 369.91 237.11 372.95" style="fill:#fff;isolation:isolate;opacity:0.6000000000000001"></polygon><polygon points="250.27 379.4 254.86 381.65 257.58 378.97 252.48 376.44 252.47 376.44 250.27 379.4" style="opacity:0.2"></polygon><polygon points="282.49 391.52 258.09 377.23 255.85 379.54 279.72 394.04 282.49 391.52" style="fill:#407BFF"></polygon><polygon points="282.49 391.52 258.09 377.23 255.85 379.54 279.72 394.04 282.49 391.52" style="fill:#fff;isolation:isolate;opacity:0.6000000000000001"></polygon><polygon points="294.36 372.55 284.03 367.8 276.69 379.05 286.71 385.64 291.06 377.52 291.98 377.65 294.36 372.55" style="fill:#407BFF"></polygon><polygon points="294.36 372.55 284.03 367.8 276.69 379.05 286.71 385.64 290.63 378.32 283.74 373.75 291.98 377.65 294.36 372.55" style="fill:#fff;isolation:isolate;opacity:0.2"></polygon><path d="M254.41,298.3l-5.47,1s2,4,1,7.32l2.19,9.21-4.57-8.28s-3-1.65-4.24-3.73l-1.1,4.52,2.07,7.49,2-5.12,6.46,6.07.93-9.63,5.31.4S257.73,301.21,254.41,298.3Z" style="fill:#407BFF"></path><path d="M254.41,298.3l-5.47,1s2,4,1,7.32l2.19,9.21-4.57-8.28s-3-1.65-4.24-3.73l-1.1,4.52,2.07,7.49,2-5.12,6.46,6.07.93-9.63,5.31.4S257.73,301.21,254.41,298.3Z" style="fill:#fff;isolation:isolate;opacity:0.5"></path><path d="M264.19,306c-.05,4.08-2.35,17.81-4.63,19.19s-25.06,0-25.06,0l-.59,4.54s24.83,4.09,29.37,2.11S270.2,310,270.2,310Z" style="fill:#e4897b"></path><path d="M263.28,295.47c5.61.72,7.45,3.88,8.77,10.48a56.13,56.13,0,0,1,1.05,12.26l-12.69-1.45s.83-15.43,1-16.75S263.28,295.47,263.28,295.47Z" style="fill:#407BFF"></path><path d="M263.28,295.47c5.61.72,7.45,3.88,8.77,10.48a56.13,56.13,0,0,1,1.05,12.26l-12.69-1.45s.83-15.43,1-16.75S263.28,295.47,263.28,295.47Z" style="fill:#fff;isolation:isolate;opacity:0.5"></path><polygon points="274.69 317.63 259.56 315.18 259.56 318.21 273.9 319.83 274.69 317.63" style="fill:#407BFF"></polygon><polygon points="274.69 317.63 259.56 315.18 259.56 318.21 273.9 319.83 274.69 317.63" style="fill:#fff;isolation:isolate;opacity:0.4"></polygon><path d="M265.81,310.12a2.8,2.8,0,1,0,2.76-3.28A3.05,3.05,0,0,0,265.81,310.12Z" style="isolation:isolate;opacity:0.2"></path><polygon points="229.19 318.62 215.44 336.4 216.69 337.5 229.74 319.14 229.19 318.62" style="fill:#263238"></polygon><polygon points="215.44 336.4 214.86 337.93 215.44 338.48 216.69 337.5 215.44 336.4" style="fill:#263238"></polygon><polygon points="215.44 336.4 214.86 337.93 215.44 338.48 216.69 337.5 215.44 336.4" style="fill:#fff;isolation:isolate;opacity:0.6000000000000001"></polygon><path d="M214.86,337.93s-1.39.3-2.13.55-1.43-1-1.43-1,0,1.48,1.13,1.53H210.9a3,3,0,0,0,.89,2.13l1.09-.84-.89,1.18.54.4,1.49-1.33-1,1.33.44.54a5,5,0,0,0,2-3.9Z" style="fill:#407BFF"></path><path d="M214.86,337.93s-1.39.3-2.13.55-1.43-1-1.43-1,0,1.48,1.13,1.53H210.9a3,3,0,0,0,.89,2.13l1.09-.84-.89,1.18.54.4,1.49-1.33-1,1.33.44.54a5,5,0,0,0,2-3.9Z" style="fill:#fff;isolation:isolate;opacity:0.6000000000000001"></path><path d="M235.56,324.55l-.72,6.46-1.49-.79s-4.93,3.16-8.22,4.09l-2.31-9.23s7.24-1.14,8.11-1.14a15.63,15.63,0,0,1,3,.68Z" style="fill:#407BFF"></path><path d="M235.56,324.55l-.72,6.46-1.49-.79s-4.93,3.16-8.22,4.09l-2.31-9.23s7.24-1.14,8.11-1.14a15.63,15.63,0,0,1,3,.68Z" style="fill:#fff;isolation:isolate;opacity:0.8"></path><path d="M196.64,316.31,194,321.14,191.9,320a6.09,6.09,0,0,1-3.83-.18c-1.58-.82-6.72-4.65-6.72-4.65l.66-7.65s10.55,4.89,10.81,4.89,1.32,2.76,1.32,2.76Z" style="fill:#407BFF"></path><path d="M196.64,316.31,194,321.14,191.9,320a6.09,6.09,0,0,1-3.83-.18c-1.58-.82-6.72-4.65-6.72-4.65l.66-7.65s10.55,4.89,10.81,4.89,1.32,2.76,1.32,2.76Z" style="fill:#fff;isolation:isolate;opacity:0.8"></path></g></svg>